<?xml version="1.0" encoding="utf-8"?>
<!-- Generator: Adobe Illustrator 19.0.0, SVG Export Plug-In . SVG Version: 6.00 Build 0)  -->
<svg version="1.1" id="Layer_1" xmlns="http://www.w3.org/2000/svg" xmlns:xlink="http://www.w3.org/1999/xlink" x="0px" y="0px"
	 viewBox="-461.9 7110.4 983.2 1076.3" style="enable-background:new -461.9 7110.4 983.2 1076.3;" xml:space="preserve">
<style type="text/css">
	.st0{display:none;}
	.st1{display:inline;fill:#191717;}
	.st2{fill:#191717;}
	.st3{fill:#494368;}
	.st4{fill:#FC60A8;}
	.st5{fill:#FFFFFF;}
</style>
<g id="BACK" class="st0">
	<path class="st1" d="M-157.1,7607.6c-15.2,0-30.7-3.1-46.5-10.5c-5.9-2.8-8.5-9.8-5.7-15.7c2.8-5.9,9.8-8.5,15.7-5.7
		c57,26.6,111.2-15.2,163.6-55.7c6.1-4.7,12-9.3,17.9-13.7c8-7.6,16.7-7.6,21.9-7.6c1,0,1.9,0.1,2.9,0.4
		c69.1,17.3,143.2,10.5,208.5-19.2c6-2.7,13-0.1,15.7,5.9s0.1,13-5.9,15.7c-69.7,31.6-148.7,39-222.6,20.9c-3.1,0-3.5,0.3-4.4,1.3
		c-0.4,0.4-0.8,0.8-1.3,1.1c-6,4.5-12,9.2-18.2,13.9C-56.2,7570.2-104.7,7607.6-157.1,7607.6z"/>
	<path class="st1" d="M-3.7,7456.9c-3.6,0-6.2-0.3-7.2-0.4c-41.8-4.4-42.9-30.4-42.9-31.6c-0.1-25.9,27.7-39.8,44.5-44
		c30.9-9.8,50.1-10.6,60.3-2.4c4.2,3.3,6.2,7.6,6.7,11.3c6.6,20.7-8.8,41.2-19.7,50.6C24.6,7454.6,6.4,7456.9-3.7,7456.9z
		 M-30,7423.8c0.9,2.3,6.1,7.5,21.8,9.1c0.2,0,0.4,0,0.6,0.1c0.1,0,18.1,2.4,28.8-9.2c0.3-0.4,0.7-0.7,1.1-1
		c4.4-3.8,16.1-16.5,12.9-26c-3.4-0.6-13.5-0.9-37.6,6.8c-0.2,0.1-0.5,0.2-0.8,0.2C-8.8,7405.2-29.1,7412.6-30,7423.8z
		 M-30.1,7424.2c0,0.1,0,0.2,0,0.3C-30.1,7424.4-30.1,7424.3-30.1,7424.2z M-6,7392.3L-6,7392.3L-6,7392.3z M34.3,7391.3
		L34.3,7391.3L34.3,7391.3z"/>
	<circle class="st1" cx="198.2" cy="7337.8" r="20.1"/>
	<circle class="st1" cx="-119.6" cy="7414.4" r="20.1"/>
	<path class="st1" d="M7.1,7563.7c-26.3,0-46.4-16.9-47.4-17.7c-5-4.2-5.6-11.7-1.4-16.7s11.7-5.6,16.7-1.4
		c0.4,0.3,18.1,14.8,37.8,11.6c12.6-2,24.1-11.1,34-27.1c3.5-5.6,10.8-7.3,16.3-3.8c5.6,3.5,7.3,10.8,3.8,16.3
		c-13.7,22.1-30.8,34.9-50.6,38C13.2,7563.5,10.1,7563.7,7.1,7563.7z"/>
</g>
<g id="FRONT">
	<path class="st2" d="M86.4,7447.4c-2.5-1.7-5.9-1-7.6,1.5c-9.9,14.9-30.9,15.7-32,15.7c-0.2,0-0.3,0-0.5,0
		c-25.9,0-35.8,22.1-36.2,23c-1.2,2.8,0.1,6,2.8,7.2c0.7,0.3,1.5,0.5,2.2,0.5c2.1,0,4.1-1.2,5-3.3c0.1-0.2,6.9-15.4,24.4-16.4v28.3
		c-0.7,6.1-3.6,10.9-8.7,14.5c-5.3,3.7-12.4,5.6-21.1,5.6c-10.4,0-18.9-3.6-25.2-10.7c-6.4-7.1-9.6-17.2-9.6-30.2l0.1-31.2
		c0.5-11.5,3.6-20.6,9.5-27.1c6.4-7.1,14.8-10.7,25.2-10.7c8.7,0,15.8,1.9,21.1,5.6s8.3,8.8,8.8,15.4l0,0c0,0.2,0,0.5,0,0.7
		c0,3.8,3.1,6.9,6.9,6.9s6.9-3.1,6.9-6.9c0-0.2,0-0.5,0-0.7l0,0c-1-9.9-5.5-17.7-13.6-23.6c-8.1-5.9-18.2-8.8-30.4-8.8
		c-14.5,0-26.2,4.8-35.1,14.3c-8.4,8.9-12.8,20.6-13.3,35l0,0l0,0c0,1-0.1,2-0.1,3l0.1,28.1h-0.1c0,15.9,4.5,28.6,13.4,38.1
		s20.6,14.3,35.1,14.3c12.2,0,22.3-2.9,30.4-8.8c7.4-5.4,11.8-12.5,13.3-21.3l0.3-31.4c9.1-2.2,21.5-7.2,29.3-19
		C89.7,7452.5,89,7449.1,86.4,7447.4z"/>
	<path class="st2" d="M182.7,7125.9h76.7c3.4,0,6.2-2.8,6.2-6.2s-2.8-6.2-6.2-6.2h-76.7c-3.4,0-6.2,2.8-6.2,6.2
		S179.3,7125.9,182.7,7125.9z"/>
	<path class="st2" d="M-228.2,7125.9h76.7c3.4,0,6.2-2.8,6.2-6.2s-2.8-6.2-6.2-6.2h-76.7c-3.4,0-6.2,2.8-6.2,6.2
		S-231.7,7125.9-228.2,7125.9z"/>
	<circle class="st2" cx="263.3" cy="7181.9" r="6.2"/>
	<circle class="st2" cx="13.8" cy="7162.4" r="6.2"/>
	<path class="st2" d="M-101.2,7182c0.1,0,0.2,0,0.3,0c23.3,0,33.7-14.6,41.6-28.2c2.6-4.5,12.2-19.5,25.8-23.4
		c16.8-4.9,34.7,2.9,41.7,18.2c1,2.2,3.2,3.5,5.4,3.6c0.1,0,0.2,0,0.3,0c0.1,0,0.2,0,0.4,0c2.2-0.1,4.4-1.4,5.4-3.6
		c7-15.3,24.9-23.1,41.7-18.2c13.6,4,23.2,18.9,25.8,23.4c7.9,13.7,18.3,28.2,41.9,28.2l0,0c14.2,0,31-10.6,35.7-30.9
		c3.9-16.8-3.3-32-19-39.7c-3.1-1.5-6.8-0.3-8.3,2.8s-0.3,6.8,2.8,8.3c14.9,7.4,13.6,20.5,12.4,25.8c-2.4,10.4-11.6,21.4-23.7,21.4
		c-15.5,0-22.9-7.8-31.2-22.1c-4.1-7-15.5-24-33-29.1c-19.1-5.6-39.3,1.1-50.9,15.8c-11.6-14.7-31.8-21.4-50.9-15.8
		c-17.5,5.1-28.9,22.1-33,29.1c-8.3,14.3-15.7,22.1-30.9,22.1c-0.1,0-0.2,0-0.2,0c-13.2-0.1-21.6-9.3-24-18.4
		c-1.2-4.3-3.7-19,13.1-29c2.9-1.7,3.9-5.5,2.1-8.5c-1.8-2.9-5.5-3.9-8.5-2.1c-19.3,11.5-22.3,29.7-18.7,42.9
		C-132.7,7170.9-118.2,7181.9-101.2,7182z"/>
	<polygon class="st2" points="14,7765.8 14.1,7765.8 14.1,7765.8 	"/>
	<circle class="st2" cx="-237.9" cy="7181.9" r="6.2"/>
	<circle class="st2" cx="-255.3" cy="7119.8" r="6.2"/>
	<circle class="st2" cx="285.3" cy="7119.8" r="6.2"/>
	<circle class="st2" cx="318.5" cy="7517.1" r="6.2"/>
	<circle class="st2" cx="293.6" cy="7658.9" r="6.2"/>
	<circle class="st2" cx="253.8" cy="7676.6" r="6.2"/>
	<path class="st2" d="M-114.1,7143c0,9.2,7.5,16.7,16.7,16.7s16.7-7.5,16.7-16.7c0-9.2-7.5-16.7-16.7-16.7
		C-106.6,7126.2-114.1,7133.7-114.1,7143z M-97.4,7138.6c2.4,0,4.4,2,4.4,4.4s-2,4.4-4.4,4.4s-4.4-2-4.4-4.4
		S-99.8,7138.6-97.4,7138.6z"/>
	<path class="st2" d="M127.6,7159.7c9.2,0,16.7-7.5,16.7-16.7c0-9.2-7.5-16.7-16.7-16.7s-16.7,7.5-16.7,16.7
		C110.9,7152.2,118.4,7159.7,127.6,7159.7z M127.6,7138.6c2.4,0,4.4,2,4.4,4.4s-2,4.4-4.4,4.4s-4.4-2-4.4-4.4
		C123.2,7140.6,125.2,7138.6,127.6,7138.6z"/>
	<path class="st2" d="M30.7,7153.4c-3.2,1.2-4.8,4.7-3.6,7.9c1.2,3.2,4.7,4.8,7.9,3.7c1-0.4,25-8.4,43.4,20.2
		c1.2,1.8,3.2,2.8,5.2,2.8c1.1,0,2.3-0.3,3.3-1c2.9-1.8,3.7-5.7,1.9-8.5C69.6,7148.8,42.4,7149.1,30.7,7153.4z"/>
	<path class="st2" d="M-2.7,7153.4c-0.9-0.3-9.1-3.2-20.3-1.5c-10.4,1.5-25.3,7.4-37.7,26.7c-1.8,2.9-1,6.7,1.9,8.5
		c1,0.7,2.2,1,3.3,1c2,0,4-1,5.2-2.8c18.3-28.6,42.3-20.6,43.4-20.2c3.2,1.2,6.7-0.5,7.9-3.7C2.2,7158.2,0.5,7154.6-2.7,7153.4z"/>
	<path class="st2" d="M281.8,7170.3l30.1-34.2v49.3c0,3.4,2.8,6.2,6.2,6.2s6.2-2.8,6.2-6.2v-65.6c0-2.6-1.6-4.9-4-5.8
		s-5.1-0.2-6.8,1.7l-40.9,46.5c-2.3,2.6-2,6.5,0.6,8.7C275.6,7173.2,279.5,7172.9,281.8,7170.3z"/>
	<path class="st2" d="M-289.2,7191.7c3.4,0,6.2-2.8,6.2-6.2v-49.3l30.1,34.2c2.3,2.6,6.2,2.8,8.7,0.6c2.6-2.3,2.8-6.2,0.6-8.7
		l-40.9-46.6c-1.7-1.9-4.4-2.6-6.8-1.7c-2.4,0.9-4,3.2-4,5.8v65.7C-295.3,7188.9-292.6,7191.7-289.2,7191.7z"/>
	<path class="st2" d="M147.4,7197.8c-2.9-0.2-5.6,1.8-6.3,4.6c-0.7,2.9,0.7,5.9,3.3,7.1c9.8,4.6,18.7,6.4,26.7,6.4
		c15.3,0,27.5-6.7,36-13.7c13.6-11.2,20.6-25.3,20.9-25.9c1.4-2.9,0.4-6.4-2.4-8c-6.3-3.7-17.2-6-33.8,4.1
		c-8.3,5.1-14.7,11.2-15.8,12.3C160.8,7198.1,148.1,7197.8,147.4,7197.8z M184.3,7193.9c0.1-0.1,0.2-0.2,0.3-0.3
		c4.7-4.7,18-15.6,28.4-16.1c-3,4.3-7.5,10.1-13.6,15.2c-9,7.4-18.6,11-28.8,10.8C174.8,7201.3,179.5,7198.1,184.3,7193.9z"/>
	<path class="st2" d="M-194.6,7168.3c-2.8,1.6-3.8,5.1-2.4,8c0.3,0.6,7.3,14.7,20.9,25.9c8.5,7,20.6,13.7,36,13.7
		c8.1,0,17-1.8,26.7-6.4c2.7-1.3,4-4.2,3.3-7.1c-0.7-2.9-3.3-4.8-6.3-4.7c-0.5,0-13.3,0.4-28.5-13c-1.1-1.1-7.5-7.2-15.8-12.3
		C-177.3,7162.4-188.3,7164.7-194.6,7168.3z M-153.2,7193.9c4.7,4.2,9.4,7.3,13.7,9.6c-21.6,0.2-35.9-16.3-42.4-26
		c10.4,0.5,23.7,11.4,28.4,16.1C-153.4,7193.7-153.3,7193.8-153.2,7193.9z"/>
	<path class="st2" d="M325.8,7696.4c-6.2-5.2-13-8.2-19.3-9.9c2.4-1.8,4.7-3.9,6.7-6.2c15.3-18,15.4-44.5,0.2-61.7
		c-2.3-2.6-6.2-2.8-8.7-0.5c-2.6,2.3-2.8,6.2-0.5,8.7c11.1,12.6,10.9,32.1-0.4,45.5c-9.2,10.8-26.7,13.4-31.9,14
		c-15.7,1.7-33.3,5.3-42.8,26.8c-1.5,3.3-2.4,7-2.6,11c-2.2-0.7-4.6-1.1-7-1.1c-12.5,0-22.7,10.2-22.7,22.7
		c0,8.6,4.8,16.1,11.9,19.9c-2.1,1.9-4.1,4-5.9,6.4c-21-28.3-54.6-46.1-91.6-46.1c-5.3,0-10.6,0.4-15.7,1.1
		c30.4-9.3,58.7-23.8,84.5-43l0,0c33.3-24.9,61-57.4,80-93.9c20-38.4,30.1-79.9,30.1-123.1c0-0.3,0-0.5,0-0.8c0-0.1,0-0.1,0-0.2
		c0-0.1,0-0.2,0-0.3c-0.2-35.1-8-66.7-19.1-93.9c4.1,0.8,8,1.1,11.5,1.1c25.9,0,37.3-17.8,38.5-19.9l0,0c5.6-9.4,6.5-20.8,3.3-31.1
		c0.1-0.3,0.1-0.7,0.1-1.1v-112.7c0-3.4-2.8-6.2-6.2-6.2s-6.2,2.8-6.2,6.2v94.7c-10.5-9.1-25.7-10.1-32-10.1
		c-12.2,0.1-19.8-1.8-25.4-11.4c-4.7-8.1-2-16.5,2.7-21.3c5.9-6,14.3-6.8,22.5-2.3c3,1.6,6.8,0.6,8.4-2.4s0.6-6.8-2.4-8.4
		c-13-7.2-27.6-5.4-37.3,4.4c-9.6,9.8-11.4,24.3-4.6,36.1c8.9,15.3,22.4,17.5,35.7,17.5c0.2,0,0.3,0,0.5,0c4,0,16.9,0.6,24.3,7.6
		c9.6,9.1,12.1,23.4,5.8,34c0,0-0.1,0.1-0.1,0.2c-0.5,0.9-12.4,21.1-45.6,10.5c-10-21.2-21.6-39.2-32.4-53.6l-4.9,3.7l4.9-3.8
		l-2-2.6c-21.3-35.7,3.3-73.7,16.1-89.8l7.2-8.2l0,0l0,0l0,0c2.2-2.6,2-6.5-0.6-8.7c-2.5-2.1-6.1-2-8.4,0.3l0,0
		c-0.2,0.2-1.3,1.3-3,3.2c-11.1,11.3-54.5,51.3-96.6,30.4l-1.2-0.8l-0.6-0.4c-37.7-20.3-74.9-32-110.4-35
		c-4.6-10.5-10.7-18.5-18.4-18.5c-7.8,0-13.9,8.1-18.6,18.8c-49.7,2.2-111.5,34.3-114.1,35.6c-42.3,21.3-85.9-18.9-97-30.2
		c-1.7-1.9-2.9-3-3-3.2l0,0c-2.3-2.3-5.9-2.4-8.4-0.3c-2.6,2.2-2.8,6.1-0.6,8.7l0,0l0,0l0,0l7.7,8.7c4.5,5.6,10.2,13.7,15,23.4
		c12,24.3,12.2,46.4,0.7,65.8c-14.3,17.8-25.9,36.5-34.8,56.2c-33.5,10.9-45.5-9.5-46-10.4c0-0.1-0.1-0.1-0.1-0.2
		c-6.3-10.6-3.8-24.9,5.8-34c7.4-7,20.3-7.6,24.3-7.6h0.1c13.4,0,27.2-2.1,36.1-17.5c6.8-11.8,5-26.4-4.6-36.1
		c-9.7-9.9-24.3-11.6-37.3-4.4c-3,1.6-4.1,5.4-2.4,8.4c1.6,3,5.4,4.1,8.4,2.4c8.3-4.5,16.7-3.7,22.5,2.3c4.7,4.8,7.3,13.2,2.7,21.3
		c-5.5,9.5-13,11.4-25,11.4c-0.1,0-0.2,0-0.4,0c-5.5,0-18.3,0.8-28.5,7.4v-90.3c0-3.4-2.8-6.2-6.2-6.2c-3.4,0-6.2,2.8-6.2,6.2v104
		c-6.8,12.2-7.2,27.1-0.2,39.1c0.7,1.3,5,8.5,14.6,13.9c5.5,3.1,13.4,6,23.9,6c3.8,0,8-0.4,12.5-1.3c-10.8,29-16.2,60.2-16.4,94.2
		c0,0.1,0,0.1,0,0.2v0.1c0,0.3,0,0.6,0,0.8c0,61.4,21.6,121.7,60.8,169.8c34.7,42.6,81.9,74.2,134.2,90.3
		c-5.5-0.8-11.1-1.2-16.7-1.2c-36.7,0-70,17.5-91,45.4c-1.7-2.2-3.6-4.3-5.7-6.1c6.6-4,11.1-11.2,11.1-19.5
		c0-12.5-10.2-22.7-22.7-22.7c-2.3,0-4.5,0.4-6.6,1c-0.3-3.9-1.2-7.6-2.6-10.9c-9.6-21.5-27.1-25.1-42.8-26.8
		c-5.2-0.6-22.7-3.2-31.9-14c-11.6-13.1-11.8-32.6-0.7-45.2c2.3-2.6,2-6.5-0.5-8.7c-2.6-2.3-6.5-2-8.7,0.5
		c-15.1,17.2-15,43.7,0.2,61.7c2,2.4,4.3,4.4,6.7,6.2c-6.3,1.7-13.1,4.8-19.3,9.9c-14.7,12.1-22.2,32.3-22.4,59.8
		c-0.5,2.5,0.6,5.1,2.8,6.5c1,0.6,2.1,0.9,3.2,0.9c0.4,0,0.9-0.1,1.3-0.2h0.1c0.2,0,0.3-0.1,0.5-0.2c0.3-0.1,0.7-0.2,1-0.4
		c0.1,0,0.1-0.1,0.2-0.1c1-0.6,1.9-1.4,2.5-2.4c2.4-3.1,12.3-7,20.5-8.7c32.1-7,38.8-28.7,37.8-39.1c-0.3-3.4-3.3-5.9-6.7-5.6
		s-5.9,3.3-5.6,6.7c0,0.1,0.1,1.9-0.5,4.6c-1.5,6.2-7,16.9-27.6,21.4c-0.1,0-0.1,0-0.2,0c-2.4,0.5-9.6,2.2-16.3,5.3
		c1.8-17.8,7.5-30.8,17.2-38.9c14.9-12.4,34.6-8.9,34.8-8.8c0.7,0.1,1.3,0.1,1.9,0c3.3,0.7,6.1,1.1,8.2,1.3
		c16.5,1.8,26.6,5.4,32.9,19.5c4.9,11.1-1.4,23.9-9.9,30.3c-4.3,3.3-15.8,9.8-28.7-0.8c-2.6-2.2-6.5-1.8-8.7,0.8
		c-2.2,2.6-1.8,6.5,0.8,8.7c5.8,4.8,12.3,7.6,19,8.4c-8.6,7-14.4,15.8-17,20.4c-8.4,14.5-15.2,22.3-26.5,22.4v-43.3
		c0-3.4-2.8-6.2-6.2-6.2c-3.4,0-6.2,2.8-6.2,6.2v50.2c0,2.5,1.5,4.6,3.6,5.6c1.1,0.8,2.4,1.4,3.8,1.4h144c2.2,0,4-1.1,5.2-2.8
		c0.8-0.8,1.5-1.8,1.8-3c5.7-22.1,25.6-37.5,48.4-37.5c20.4,0,38.5,12.4,46.2,30.9h-13.2c-5.4-13.3-18.4-22.2-33.1-22.2
		c-16.1,0-30.3,10.9-34.6,26.4c-0.9,3.3,1.1,6.7,4.3,7.6c3.3,0.9,6.7-1.1,7.6-4.3c2.8-10.2,12.1-17.3,22.6-17.3
		c7.8,0,14.8,3.8,19.1,9.8h-3.6c-3.4,0-6.2,2.8-6.2,6.2s2.8,6.2,6.2,6.2h12.5c0.2,0,0.5,0.1,0.7,0.1c0.3,0,0.6,0,0.8-0.1h24.8
		c3.4,0,6.2-2.8,6.2-6.2c0-0.3,0-0.6-0.1-0.9c0.1-0.8,0.1-1.7-0.1-2.6c-7.3-27.1-32.1-46-60.2-46c-27.2,0-51.1,17.6-59.4,43.3h-32.3
		c2.6-8.3,6.1-16,10.5-23.2c0.3-0.4,0.5-0.8,0.8-1.2c18.3-28.7,50.3-47.1,85.8-47.1c21,0,41.2,6.4,58.3,18.4c0.5,0.3,1,0.6,1.5,0.7
		c2.6,3.1,5.2,6.4,7.7,9.8c0.6,0.8,1.1,1.6,1.7,2.4c-0.6,12.7,6.3,26,20.6,39.6c0.5,1.5,1,2.8,1.3,3.8v1.3c0,3.4,2.8,6.2,6.2,6.2
		c2.9,0,5.2-1.9,5.9-4.6l0,0c0-0.1,0.9-3.1,2.7-8.1c12.9-12.6,19.3-24.9,19.2-36.8c0.8-1.2,1.7-2.5,2.6-3.7c2.8-3.8,5.7-7.5,8.7-11
		c17-11.8,36.9-18,57.7-18c44.8,0,84,29.2,97,71.5h-32.3c-8.2-25.7-32.1-43.3-59.4-43.3c-28.1,0-52.8,18.9-60.2,46c-0.3,1-0.3,2,0,3
		c0,0.2,0,0.3,0,0.5c0,3.4,2.8,6.2,6.2,6.2h54.2c3.4,0,6.2-2.8,6.2-6.2s-2.8-6.2-6.2-6.2H96.7c4.3-6,11.3-9.8,19.1-9.8
		c10.7,0,20,7.2,22.7,17.6c0.7,2.8,3.2,4.6,6,4.6c0.5,0,1-0.1,1.5-0.2c3.3-0.8,5.3-4.2,4.5-7.5c-4.1-15.8-18.3-26.9-34.7-26.9
		c-14.6,0-27.6,8.9-33.1,22.2H70.2c7.6-18.5,25.8-30.9,46.2-30.9c22.8,0,42.7,15.4,48.4,37.5c0.1,0.5,0.4,1,0.6,1.5
		c0.8,2.5,3.1,4.3,5.9,4.3H318c3.4,0,6.2-2.8,6.2-6.2c0-0.1,0-0.3,0-0.4s0-0.3,0-0.4v-1.2c0.1-0.6,0.1-1.2,0.1-1.8
		c0-0.1,0-0.2-0.1-0.3v-46.9c0-3.4-2.8-6.2-6.2-6.2s-6.2,2.8-6.2,6.2v42c-10.4-0.8-16.9-8.5-24.9-22.3c-2.6-4.4-8-12.7-16-19.5
		c5.5-1.2,10.8-3.8,15.7-7.9c2.6-2.2,3-6.1,0.8-8.7s-6.1-3-8.7-0.8c-12.8,10.6-24.3,4.1-28.7,0.8c-8.5-6.4-14.8-19.3-9.9-30.3
		c6.3-14.1,16.4-17.8,32.9-19.5c2.1-0.2,4.9-0.6,8.2-1.3c0.6,0.1,1.3,0.1,2,0c0.2,0,19.7-3.6,34.7,8.8c9.8,8.1,15.6,21.1,17.3,39
		c-6.8-3.2-14.1-4.9-16.4-5.4c-0.1,0-0.1,0-0.2,0c-20.5-4.5-26.1-15.1-27.6-21.3c-0.6-2.6-0.6-4.4-0.5-4.6c0.3-3.4-2.2-6.4-5.6-6.7
		c-3.4-0.3-6.4,2.2-6.7,5.6c-1,10.5,5.7,32.1,37.9,39.1c8.3,1.8,18.8,5.9,20.7,9c0,0,0,0.1,0.1,0.1c0.3,0.4,0.6,0.8,0.9,1.1
		c0.1,0.1,0.2,0.1,0.3,0.2c0.3,0.2,0.6,0.5,0.9,0.6c0.1,0.1,0.3,0.2,0.4,0.2c0.3,0.2,0.6,0.3,0.9,0.4c0.1,0,0.3,0.1,0.4,0.1
		c0.4,0.1,0.9,0.2,1.4,0.2l0,0c0.4,0,0.7,0,1.1-0.1c0.1,0,0.2,0,0.3-0.1c0.3-0.1,0.6-0.2,1-0.3h0.1c0.3-0.1,0.5-0.3,0.8-0.4l0.1-0.1
		c0.2-0.1,0.4-0.3,0.5-0.4s0.3-0.2,0.4-0.4c0.1-0.1,0.3-0.3,0.4-0.4c0.1-0.2,0.3-0.3,0.4-0.5s0.2-0.3,0.3-0.5
		c0.1-0.2,0.2-0.3,0.3-0.5c0.1-0.2,0.1-0.4,0.2-0.6s0.1-0.4,0.2-0.6c0-0.2,0.1-0.4,0.1-0.5c0-0.2,0.1-0.4,0.1-0.7v-0.1
		C348.3,7729.2,340.7,7708.7,325.8,7696.4z M-193.1,7809.5h-65.1c5.5-5.6,9.4-12.3,12.4-17.5c2.6-4.5,12.2-19.5,25.8-23.4
		c16-4.7,31,0.8,38.4,13.5C-186.5,7790.6-190.4,7799.8-193.1,7809.5z M-191.4,7755.8c-5.7,0-10.3-4.6-10.3-10.3
		c0-5.7,4.6-10.3,10.3-10.3c5.7,0,10.3,4.6,10.3,10.3S-185.8,7755.8-191.4,7755.8z M175.2,7677.7L175.2,7677.7l0.9,1.1L175.2,7677.7
		z M175.4,7671.5c-58.4-6.8-100.6,18.3-125.8,40.5c-10.9,9.6-19.5,19.5-26,27.9c-1.2-0.8-2.3-1.6-3.3-2.1v-17.6
		c47.3-47.5,94.3-61.7,125.5-65.2c20.7-2.3,37.4-0.4,47.4,1.5C187.5,7661.8,181.6,7666.8,175.4,7671.5z M248.7,7584.3
		c-6,11.5-12.9,22.5-20.5,33.1c-7.9-2.5-17.8-4.8-29.7-5.9c26.5-33.6,43.3-73.7,48.7-116c8.6-1,20.5-4.7,29.6-10.6
		C274.4,7519.6,265,7553,248.7,7584.3z M206.6,7472.7l7.2-0.3c2.4,10.7,10.5,19.3,21.1,22.2c-5.6,42.8-23.4,83.2-51.8,116.2
		c-13.7,0-29.6,1.6-47.6,5.5C177.5,7582.1,204.9,7530.6,206.6,7472.7z M89.1,7630.7c-4,1.6-6.8,2.9-8.2,3.5
		c-16.6,6.6-34.4,10.9-53,12.3l165.9-165.9C188.8,7547.4,147.2,7604,89.1,7630.7z M277.4,7466c-0.2,5.6-15.5,14.7-29,16.9
		c-1.9,0.3-3.8,0.5-5.6,0.5c-2.4,0-4.7-0.5-6.8-1.4c-6.3-2.7-10.7-8.9-10.7-16.1s4.4-13.4,10.7-16.1c2.1-0.9,4.4-1.4,6.8-1.4
		c1.8,0,3.7,0.2,5.6,0.5c13.5,2.2,28.7,11.3,29,16.8C277.4,7465.8,277.4,7465.9,277.4,7466z M219.5,7307.8l2.6,3.5l0,0
		c22.7,30.3,49.3,77.2,54.4,135.6c-9-5.8-20.8-9.5-29.3-10.5c-6.4-50.6-28.9-96.3-62.2-131.6c1.4-2.9,2.2-6.2,2.2-9.6
		c0-4.6-1.4-8.9-3.7-12.4l28.4-32.4C206.5,7271,209.1,7290.5,219.5,7307.8z M136.6,7237.7l1.3,0.9l0.7,0.4c9.9,5,20.5,7.5,31.5,7.5
		c11.6,0,23.7-2.8,35.9-8.4l-32,36.5c-2.9-1.4-6.1-2.1-9.6-2.1c-4.5,0-8.6,1.3-12.1,3.5c-31.5-23-68.8-38.3-109.4-43.3
		c-1-7.3-3-17.7-6-27.9C69,7208.4,102.5,7219.4,136.6,7237.7z M174.8,7295.2c0,4.5-3,8.4-7.1,9.8c-1,0.3-2.1,0.5-3.2,0.5
		c-0.3,0-0.7,0-1,0c-4.6-0.4-8.3-3.9-9.1-8.3c-0.1-0.6-0.2-1.3-0.2-1.9c0-0.7,0.1-1.3,0.2-2c0.9-4.5,4.7-8,9.4-8.3
		c0.2,0,0.5,0,0.7,0s0.4,0,0.6,0c4.6,0.3,8.5,3.6,9.5,8c0.1,0.6,0.2,1.1,0.2,1.7C174.7,7294.8,174.8,7295,174.8,7295.2z
		 M43.4,7245.3c37.2,4.9,71.6,19.1,100.7,40.1c-1.5,3-2.3,6.3-2.3,9.9c0,4.5,1.3,8.6,3.6,12.2l-49.8,56.8c-2.3,2.6-2,6.5,0.6,8.7
		c1.2,1,2.6,1.5,4.1,1.5c1.7,0,3.4-0.7,4.7-2.1l49.7-56.7c3,1.5,6.3,2.3,9.9,2.3c4.6,0,8.8-1.4,12.3-3.7c31,33.2,51.9,75.8,58.1,123
		c-10.7,3-19,11.8-21.2,22.8l-7.1,0.3c-1.5-45.7-19.2-89.3-50.1-123.2c-2.3-2.5-6.2-2.7-8.7-0.4c-2.5,2.3-2.7,6.2-0.4,8.7
		c27.2,29.8,43.4,67.6,46.5,107.6l-66.5-66.3c-2.4-2.4-6.3-2.4-8.7,0s-2.4,6.3,0,8.7l71.4,71.4l-176,176l-176-176l70.8-70.8
		c2.4-2.4,2.4-6.3,0-8.7s-6.3-2.4-8.7,0l-65.7,65.7c3.5-45.5,23.9-86.4,55-116.2l31,35.4c1.2,1.4,2.9,2.1,4.7,2.1
		c1.4,0,2.9-0.5,4.1-1.5c2.6-2.3,2.8-6.2,0.6-8.7l-31.1-35.5c28-23.4,63.1-38.5,101.6-41.4l-52.8,52.3c-2.4,2.4-2.4,6.3,0,8.7
		c1.2,1.2,2.8,1.8,4.4,1.8s3.1-0.6,4.4-1.8l58-57.4l56.3,56.3c2.4,2.4,6.3,2.4,8.7,0s2.4-6.3,0-8.7l-51.2-51.2
		c31.7,2.4,61.9,13,88.2,31.1c2.8,1.9,6.7,1.2,8.6-1.6c1.9-2.8,1.2-6.7-1.6-8.6c-30.4-20.9-65.8-32.5-102.8-33.6v-4.4
		C32.3,7267.4,41.6,7257.5,43.4,7245.3z M-137.3,7319.6c3.5,0,6.8-0.8,9.7-2.2l8.9,10.2c-35.3,33.7-57.8,80.6-59.6,132.7l-5-0.3
		c-2.4-11.7-11.5-20.9-23.2-23.3c6.1-46.3,26.5-88.1,56.5-120.9C-146.3,7318.2-142,7319.6-137.3,7319.6z M-147.6,7297
		c0-0.5,0-0.9,0.1-1.4c0-0.3,0.1-0.5,0.1-0.8c0.9-4.4,4.7-7.8,9.3-8.1c0.2,0,0.4,0,0.5,0c0.1,0,0.1,0,0.2,0c4.7,0,8.7,3.2,9.9,7.6
		c0.2,0.9,0.4,1.8,0.4,2.7c0,0.7-0.1,1.4-0.2,2.1c-0.9,4.4-4.7,7.8-9.3,8.1c-0.3,0-0.5,0-0.8,0c-1.3,0-2.6-0.3-3.7-0.7
		C-144.8,7305.1-147.6,7301.3-147.6,7297z M-183.4,7472.4l5.1,0.3c1.7,58,29.2,109.6,71.3,143.8c-18.1-4-34-5.6-47.8-5.7
		c-28.2-32.9-46.1-73.1-51.7-115.7C-195,7492.7-185.9,7483.8-183.4,7472.4z M-165.5,7480.6L0.4,7646.5
		C-88,7639.8-158.8,7569-165.5,7480.6z M-2.8,7231.6c2.7-18.7,11.9-43.7,16.7-45.7c5.5,2.1,14,28,16.6,45.6c0.5,3.5,0.8,6.7,0.8,9.3
		c0,1.1-0.1,2.1-0.3,3.1c-1.5,8.1-8.6,14.3-17.2,14.3s-15.7-6.2-17.2-14.3c-0.2-1-0.3-2.1-0.3-3.1C-3.6,7238.1-3.3,7235-2.8,7231.6z
		 M8,7270.1v4.3c-44.6,1.4-85.4,18.1-117.4,44.9l-8.8-10.1c2.3-3.5,3.7-7.8,3.7-12.3c0-3.8-1-7.4-2.6-10.5
		c29.3-21.5,64-36,101.7-41.1C-13.7,7257.7-4.2,7267.7,8,7270.1z M-144.7,7246.5c11,0,21.6-2.5,31.6-7.5c0.6-0.3,57.7-30,103.9-34
		c-3,10.1-5,20.6-6,27.8c-41.1,5.1-79,21-110.7,44.6c-3.4-2-7.2-3.1-11.4-3.1c-3.5,0-6.8,0.8-9.7,2.2l-33.6-38.3
		C-168.3,7243.7-156.3,7246.5-144.7,7246.5z M-194.6,7308.4l0.5-0.7c10.4-17.2,13-36.8,7.8-57.4l30,34.3c-2.3,3.5-3.7,7.8-3.7,12.3
		c0,3.3,0.7,6.4,2,9.3c-32.7,35.2-54.7,80.4-61,130.4c-8.9,1.4-20.7,5.2-29.6,10.9C-245.1,7394.7-227.4,7349-194.6,7308.4z
		 M-249.1,7465.8c0.2-5.8,16.3-13.8,29-16.4c2.8-0.6,5.4-0.9,7.6-0.9c1.7,0,3.2,0.2,4.8,0.7c7.3,2.1,12.7,8.8,12.7,16.8
		s-5.4,14.7-12.7,16.8c-1.5,0.4-3.1,0.7-4.8,0.7c-2.3,0-4.9-0.3-7.6-0.9c-12.7-2.7-28.8-10.7-29-16.5
		C-249.1,7465.9-249.1,7465.9-249.1,7465.8z M-248.5,7484.2c8.9,5.8,20.8,9.6,29.6,11c5.3,42.4,22.1,82.6,48.7,116.2
		c-11.9,1.1-21.8,3.3-29.8,5.8C-228.7,7577.8-245.3,7532.3-248.5,7484.2z M-191.1,7628.8c-0.3-0.4-0.6-0.7-0.9-1.1
		c30.1-8.3,63-3.9,86.1,1.6c27.9,6.7,48.3,16.4,48.5,16.5l0.1-0.2c22.1,8.8,46.2,13.7,71.4,13.7c25.1,0,49.1-4.8,71.1-13.6l0,0
		c0,0,0.2-0.1,0.6-0.3c2.6-1.1,5.3-2.2,7.8-3.4c8.5-3.5,22.8-8.7,40-12.8c23.3-5.6,56.3-10,86.4-1.6c-5.2,6.4-10.6,12.5-16.4,18.4
		c-8.4-2.3-29.8-6.7-58.7-3.6c-31.4,3.4-77.6,16.8-124.8,60.4v-10.9c0-3.4-2.8-6.2-6.2-6.2s-6.2,2.8-6.2,6.2v10.3
		c-46.9-43.1-92.9-56.4-124.1-59.8c-29.6-3.2-51.3,1.6-59.2,3.8C-180.8,7640.8-186.1,7634.9-191.1,7628.8z M-164.8,7656.6
		c10-2,26.9-4,48-1.6c55.5,6.2,98.1,37.9,124.8,64.5v18.1c-0.9,0.5-1.9,1.1-3,1.9c-6.5-8.3-15-18-25.7-27.4
		c-25.2-22.3-67.6-47.5-126.2-40.5v0.1C-153.1,7666.9-159.1,7661.9-164.8,7656.6z M-9.5,7754.6c-11.7-15-24.5-26.3-37.3-34.8
		l0.1-0.3c-0.3-0.1-0.6-0.2-0.9-0.2c-21.3-13.9-42.7-20-59.9-22.5c-8.1-4.2-16.1-8.9-23.8-14c37.7-1.1,71.9,11.7,102.1,38.2
		c10.4,9.1,18.6,18.5,24.8,26.6C-6.3,7749.7-8,7752-9.5,7754.6z M20.4,7792.1c-1.5,1.8-3.1,3.6-4.9,5.4c-0.4,0.4-0.9,0.9-1.4,1.3
		l-0.1,0.1l-0.1,0.1v-0.2c-0.2-0.2-0.5-0.4-0.7-0.7c-2-1.9-3.7-3.8-5.3-5.7c-7.3-8.7-10.5-16.8-9.4-24.2c0.1-0.6,0.2-1.2,0.4-1.8
		c0.8-3.2,2.3-6,4.1-8.4c1.5-2,3.2-3.7,4.9-5.2c1.5-1.3,3-2.4,4.3-3.3c0.6-0.4,1.1-0.7,1.6-1c0,0,0.1,0,0.1-0.1H14
		c0.7,0.4,1.4,0.9,2.3,1.5c1.2,0.8,2.6,1.9,4,3.1c1.8,1.6,3.6,3.5,5.1,5.6c1.8,2.6,3.3,5.5,3.9,8.8c0,0.2,0.1,0.5,0.2,0.7
		C30.6,7775.4,27.5,7783.4,20.4,7792.1z M44.8,7747c-0.2,0.2-0.4,0.4-0.5,0.6c-2.3,2.6-4.4,5.2-6.3,7.7c-1.5-2.6-3.2-5-5-7.1
		c6.2-8.1,14.6-17.8,25.2-27.1c30-26.4,64.1-39.2,101.5-38.3c-7.8,5.1-15.8,9.9-24,14.1C92.9,7703.4,63.6,7725.6,44.8,7747z
		 M219.3,7735.2c5.7,0,10.3,4.6,10.3,10.3c0,5.7-4.6,10.3-10.3,10.3s-10.3-4.6-10.3-10.3C209,7739.9,213.6,7735.2,219.3,7735.2z
		 M250.5,7767.3c13.6,4,23.2,18.9,25.8,23.4c3.2,5.6,7.5,13,13.8,18.8H221c-2.6-9.4-6.3-18.3-11-26.5
		C217.6,7769.4,234.6,7762.6,250.5,7767.3z"/>
	<path class="st2" d="M-276.4,7332.9c0,10.1,8.2,18.4,18.4,18.4c10.2,0,18.4-8.2,18.4-18.4c0-10.1-8.2-18.4-18.4-18.4
		C-268.2,7314.5-276.4,7322.8-276.4,7332.9z M-252,7332.9c0,3.3-2.7,6-6,6c-3.3,0-6-2.7-6-6c0-3.3,2.7-6,6-6
		C-254.7,7326.9-252,7329.6-252,7332.9z"/>
	<path class="st2" d="M302.7,7332.9c0-10.1-8.2-18.4-18.4-18.4c-10.1,0-18.4,8.2-18.4,18.4c0,10.1,8.2,18.4,18.4,18.4
		S302.7,7343.1,302.7,7332.9z M278.3,7332.9c0-3.3,2.7-6,6-6s6,2.7,6,6c0,3.3-2.7,6-6,6C281,7339,278.3,7336.3,278.3,7332.9z"/>
	<path class="st2" d="M320.4,7378.7c-2.3-0.9-5-0.4-6.8,1.4c-8.1,8.3-21.4,8-21.6,8c-0.1,0-0.2,0-0.2,0c-3.3,0-6,2.6-6.2,5.9
		c-0.1,3.4,2.5,6.3,5.9,6.4c0.6,0,10.4,0.3,20.4-4.3V7497c0,3.4,2.8,6.2,6.2,6.2s6.2-2.8,6.2-6.2v-112.6
		C324.2,7381.9,322.7,7379.6,320.4,7378.7z"/>
	<path class="st2" d="M-290.3,7503.2c3.4,0,6.2-2.8,6.2-6.2v-100.9c10,4.6,19.8,4.3,20.4,4.3c3.4-0.1,6.1-3,5.9-6.4
		c-0.1-3.4-3-6.1-6.4-5.9c-0.1,0-13.5,0.3-21.6-8c-1.8-1.8-4.4-2.3-6.8-1.4c-2.3,0.9-3.8,3.2-3.8,5.7v112.7
		C-296.5,7500.5-293.7,7503.2-290.3,7503.2z"/>
	<path class="st2" d="M325.3,7606.1c0-3.4-2.8-6.2-6.2-6.2h-40c-3.4,0-6.2,2.8-6.2,6.2c0,3.4,2.8,6.2,6.2,6.2h40
		C322.5,7612.3,325.3,7609.6,325.3,7606.1z"/>
	<path class="st2" d="M283.8,7629.8c3.4,0,6.2-2.8,6.2-6.2c0-3.4-2.8-6.2-6.2-6.2h-15.4c-3.4,0-6.2,2.8-6.2,6.2
		c0,3.4,2.8,6.2,6.2,6.2H283.8z"/>
	<path class="st2" d="M298.8,7641.2c0-3.4-2.8-6.2-6.2-6.2h-38.2c-3.4,0-6.2,2.8-6.2,6.2s2.8,6.2,6.2,6.2h38.2
		C296,7647.4,298.8,7644.7,298.8,7641.2z"/>
	<path class="st2" d="M274.6,7658.9c0-3.4-2.8-6.2-6.2-6.2h-29.9c-3.4,0-6.2,2.8-6.2,6.2c0,3.4,2.8,6.2,6.2,6.2h29.9
		C271.8,7665.1,274.6,7662.3,274.6,7658.9z"/>
	<path class="st2" d="M219.1,7670.4c-3.4,0-6.2,2.8-6.2,6.2c0,3.4,2.8,6.2,6.2,6.2h17c3.4,0,6.2-2.8,6.2-6.2c0-3.4-2.8-6.2-6.2-6.2
		H219.1z"/>
	<path class="st2" d="M319.1,7564.6h-22.3c-3.4,0-6.2,2.8-6.2,6.2s2.8,6.2,6.2,6.2h22.3c3.4,0,6.2-2.8,6.2-6.2
		S322.5,7564.6,319.1,7564.6z"/>
	<path class="st2" d="M319.1,7582.3H288c-3.4,0-6.2,2.8-6.2,6.2c0,3.4,2.8,6.2,6.2,6.2h31.1c3.4,0,6.2-2.8,6.2-6.2
		C325.3,7585.1,322.5,7582.3,319.1,7582.3z"/>
	<path class="st2" d="M319.1,7529.3h-9.9c-3.4,0-6.2,2.8-6.2,6.2s2.8,6.2,6.2,6.2h9.9c3.4,0,6.2-2.8,6.2-6.2
		C325.3,7532.1,322.5,7529.3,319.1,7529.3z"/>
	<path class="st2" d="M319.1,7547h-15.2c-3.4,0-6.2,2.8-6.2,6.2s2.8,6.2,6.2,6.2h15.2c3.4,0,6.2-2.8,6.2-6.2
		C325.3,7549.8,322.5,7547,319.1,7547z"/>
	<circle class="st2" cx="-290.5" cy="7517.4" r="6.2"/>
	<circle class="st2" cx="-265.5" cy="7659.1" r="6.2"/>
	<circle class="st2" cx="-225.7" cy="7676.8" r="6.2"/>
	<path class="st2" d="M-291.1,7612.5h40c3.4,0,6.2-2.8,6.2-6.2s-2.8-6.2-6.2-6.2h-40c-3.4,0-6.2,2.8-6.2,6.2
		C-297.3,7609.8-294.5,7612.5-291.1,7612.5z"/>
	<path class="st2" d="M-240.4,7617.7h-15.4c-3.4,0-6.2,2.8-6.2,6.2s2.8,6.2,6.2,6.2h15.4c3.4,0,6.2-2.8,6.2-6.2
		C-234.2,7620.5-237,7617.7-240.4,7617.7z"/>
	<path class="st2" d="M-226.4,7635.3h-38.2c-3.4,0-6.2,2.8-6.2,6.2c0,3.4,2.8,6.2,6.2,6.2h38.2c3.4,0,6.2-2.8,6.2-6.2
		C-220.2,7638-223,7635.3-226.4,7635.3z"/>
	<path class="st2" d="M-210.5,7652.9h-29.9c-3.4,0-6.2,2.8-6.2,6.2c0,3.4,2.8,6.2,6.2,6.2h29.9c3.4,0,6.2-2.8,6.2-6.2
		C-204.3,7655.7-207.1,7652.9-210.5,7652.9z"/>
	<path class="st2" d="M-214.3,7676.8c0,3.4,2.8,6.2,6.2,6.2h17c3.4,0,6.2-2.8,6.2-6.2s-2.8-6.2-6.2-6.2h-17
		C-211.5,7670.6-214.3,7673.4-214.3,7676.8z"/>
	<path class="st2" d="M-291.1,7577.2h22.3c3.4,0,6.2-2.8,6.2-6.2c0-3.4-2.8-6.2-6.2-6.2h-22.3c-3.4,0-6.2,2.8-6.2,6.2
		S-294.5,7577.2-291.1,7577.2z"/>
	<path class="st2" d="M-291.1,7594.9h31.1c3.4,0,6.2-2.8,6.2-6.2s-2.8-6.2-6.2-6.2h-31.1c-3.4,0-6.2,2.8-6.2,6.2
		S-294.5,7594.9-291.1,7594.9z"/>
	<path class="st2" d="M-291.1,7541.9h9.9c3.4,0,6.2-2.8,6.2-6.2s-2.8-6.2-6.2-6.2h-9.9c-3.4,0-6.2,2.8-6.2,6.2
		S-294.5,7541.9-291.1,7541.9z"/>
	<path class="st2" d="M-291.1,7559.5h15.2c3.4,0,6.2-2.8,6.2-6.2s-2.8-6.2-6.2-6.2h-15.2c-3.4,0-6.2,2.8-6.2,6.2
		C-297.3,7556.8-294.5,7559.5-291.1,7559.5z"/>
	<path class="st2" d="M14,7798.9L14,7798.9c0.1-0.1,0-0.1,0-0.2V7798.9z"/>
	<path class="st2" d="M295.2,7234.5C295.3,7234.5,295.3,7234.5,295.2,7234.5c2.8,0,5.3-1.9,6-4.7c2.2-8.8,1.3-16.3-2.9-22.5
		c-6.7-10-19-11.9-20.4-12.1c-3.2-0.4-6.2,1.6-6.9,4.8c-2.3,10.5-1,18.9,4,25.1C282.4,7234.1,294,7234.4,295.2,7234.5z
		 M288.2,7214.3c1.2,1.9,1.9,4.1,1.9,6.7c-1.8-0.7-3.8-1.8-5.2-3.6c-1.6-2-2.4-4.6-2.4-7.9C284.5,7210.5,286.7,7212.1,288.2,7214.3z
		"/>
	<path class="st2" d="M255,7145.1c-6.7-10-19-11.9-20.4-12.1c-3.2-0.4-6.2,1.6-6.9,4.8c-2.3,10.5-1,18.9,4,25.1
		c7.2,9,18.8,9.3,20.1,9.3l0,0c2.8,0,5.3-1.9,6-4.7C260.1,7158.9,259.2,7151.3,255,7145.1z M241.5,7155.2c-1.6-2-2.4-4.6-2.4-7.9
		c2.1,1,4.3,2.6,5.7,4.8c1.2,1.9,1.9,4.1,1.9,6.7C244.9,7158.1,242.9,7157,241.5,7155.2z"/>
	<path class="st2" d="M-248.7,7195.2c-1.4,0.2-13.6,2.1-20.4,12.1c-4.1,6.2-5.1,13.7-2.9,22.5c0.7,2.7,3.2,4.7,6,4.7l0,0
		c1.3,0,12.9-0.3,20.1-9.3c5-6.2,6.3-14.7,4-25.1C-242.5,7196.9-245.5,7194.8-248.7,7195.2z M-255.4,7217.4
		c-1.4,1.8-3.4,2.9-5.3,3.6c0-2.6,0.7-4.9,1.9-6.7c1.5-2.2,3.7-3.8,5.7-4.8C-253.1,7212.8-253.9,7215.4-255.4,7217.4z"/>
	<path class="st2" d="M-206.3,7133c-1.4,0.2-13.6,2.1-20.4,12.1c-4.1,6.2-5.1,13.7-2.9,22.5c0.7,2.7,3.2,4.7,6,4.7l0,0
		c1.3,0,12.9-0.3,20.1-9.3c5-6.2,6.3-14.7,4-25.1C-200.2,7134.7-203.1,7132.6-206.3,7133z M-213.1,7155.2c-1.4,1.8-3.4,2.9-5.3,3.6
		c0-2.6,0.7-4.9,1.9-6.7c1.5-2.2,3.7-3.8,5.7-4.8C-210.8,7150.6-211.5,7153.2-213.1,7155.2z"/>
	<path class="st2" d="M209.1,7423.8c0.4,3.2,3,5.5,6.1,5.5c0.2,0,0.5,0,0.7,0c3.4-0.4,5.8-3.5,5.4-6.9c-6.2-54-43.1-92.2-44.7-93.8
		c-2.4-2.4-6.3-2.5-8.7-0.1c-2.4,2.4-2.5,6.3-0.1,8.7C168.2,7337.6,203.4,7374.1,209.1,7423.8z"/>
	<path class="st2" d="M-186.9,7429.2c0.2,0,0.5,0,0.7,0c3.1,0,5.8-2.3,6.1-5.5c5.7-49.7,40.9-86.2,41.2-86.5
		c2.4-2.4,2.3-6.4-0.1-8.7c-2.4-2.4-6.4-2.4-8.7,0.1c-1.6,1.6-38.4,39.8-44.7,93.8C-192.7,7425.8-190.3,7428.8-186.9,7429.2z"/>
</g>
<path class="st3" d="M-376.6,8079c6.7,0,12.3,2.4,17,7.1c4.7,4.7,7.1,10.4,7.1,17v83.3h-85.2c-6.7,0-12.3-2.4-17-7.1
	s-7.1-10.4-7.1-17v-39.7h89.2v-19.7c0-1.2-0.3-2-1.2-2.9c-0.8-0.8-1.7-1.2-2.9-1.2h-85.2v-20h85.3V8079z M-372.6,8166.4v-23.7h-69.2
	v19.7c0,1.2,0.3,2,1.2,2.9c0.8,0.8,1.7,1.2,2.9,1.2h65.1V8166.4z M-179.9,8079h21.3l-40.3,107.4h-16.3l-36.1-79.8l-34.1,79.8
	l-0.3-0.2l0.2,0.2h-16.1l-42.2-107.4h21.2l29.1,71.2l30.9-71.2h22.9l32.8,71.2L-179.9,8079z M-67,8079c6.7,0,12.3,2.4,17,7.1
	s7.1,10.4,7.1,17v39.7h-89.2v19.7c0,1.2,0.3,2,1.2,2.9c0.8,0.8,1.7,1.2,2.9,1.2h85v20h-85.2c-6.7,0-12.3-2.4-17-7.1
	s-7.1-10.4-7.1-17v-59.3c0-6.7,2.4-12.3,7.1-17s10.4-7.1,17-7.1H-67V8079z M-132.2,8122.7H-63V8103c0-1.2-0.3-2-1.2-2.9
	c-0.8-0.8-1.7-1.2-2.9-1.2h-61.2c-1.2,0-2,0.3-2.9,1.2c-0.8,0.8-1.2,1.7-1.2,2.9L-132.2,8122.7L-132.2,8122.7z M84.6,8103.2v4h-20
	v-4c0-1.2-0.3-2-1.2-2.9c-0.8-0.8-1.7-1.2-2.9-1.2H-0.7c-1.2,0-2,0.3-2.9,1.2c-0.8,0.8-1.2,1.7-1.2,2.9v15.6c0,1.2,0.3,2,1.2,2.9
	c0.8,0.8,1.7,1.2,2.9,1.2h61.2c6.7,0,12.3,2.4,17,7.1s7.1,10.4,7.1,17v15.6c0,6.7-2.4,12.3-7.1,17c-4.7,4.7-10.4,7.1-17,7.1H-0.7
	c-6.7,0-12.3-2.4-17-7.1s-7.1-10.4-7.1-17v-4h20v4c0,1.2,0.3,2,1.2,2.9c0.8,0.8,1.7,1.2,2.9,1.2h61.2c1.2,0,2-0.3,2.9-1.2
	c0.8-0.8,1.2-1.7,1.2-2.9V8147c0-1.2-0.3-2-1.2-2.9c-0.8-0.8-1.7-1.2-2.9-1.2H-0.7c-6.7,0-12.3-2.4-17-7.1s-7.1-10.4-7.1-17v-15.6
	c0-6.7,2.4-12.3,7.1-17s10.4-7.1,17-7.1h61.2c6.7,0,12.3,2.4,17,7.1C82.2,8090.8,84.6,8096.5,84.6,8103.2z M126.9,8079h61.2
	c6.7,0,12.3,2.4,17,7.1s7.1,10.4,7.1,17v59.3c0,6.7-2.4,12.3-7.1,17s-10.4,7.1-17,7.1h-61.2c-6.7,0-12.3-2.4-17-7.1
	s-7.1-10.4-7.1-17v-59.3c0-6.7,2.4-12.3,7.1-17C114.7,8081.4,120.4,8079,126.9,8079L126.9,8079z M188.1,8099h-61.2
	c-1.2,0-2,0.3-2.9,1.2c-0.8,0.8-1.2,1.7-1.2,2.9v59.3c0,1.2,0.3,2,1.2,2.9c0.8,0.8,1.7,1.2,2.9,1.2h61.2c1.2,0,2-0.3,2.9-1.2
	c0.8-0.8,1.2-1.7,1.2-2.9v-59.3c0-1.2-0.3-2-1.2-2.9C190.1,8099.5,189.3,8099,188.1,8099z M368.7,8079c6.7,0,12.3,2.4,17,7.1
	s7.1,10.4,7.1,17v83.3H373v-83.3c0-1.2-0.3-2-1.2-2.9c-0.8-0.8-1.8-1.2-3-1.2h-42.3c-1.2,0-2,0.3-2.9,1.2c-0.8,0.8-1.2,1.7-1.2,2.9
	v83.3h-20v-83.3c0-1.2-0.3-2-1.2-2.9c-0.8-0.8-1.7-1.2-2.9-1.2h-42.5c-1.2,0-2,0.3-2.9,1.2c-0.8,0.8-1.2,1.7-1.2,2.9v83.3h-20V8079
	H368.7z M497.2,8079c6.7,0,12.3,2.4,17,7.1s7.1,10.4,7.1,17v39.7H432v19.7c0,1.2,0.3,2,1.2,2.9c0.8,0.8,1.7,1.2,2.9,1.2h85.2v20
	h-85.2c-6.7,0-12.3-2.4-17-7.1s-7.1-10.4-7.1-17v-59.3c0-6.7,2.4-12.3,7.1-17c4.7-4.7,10.4-7.1,17-7.1h61.1V8079z M432,8122.7h69.2
	V8103c0-1.2-0.3-2-1.2-2.9c-0.8-0.8-1.7-1.2-2.9-1.2h-61.2c-1.2,0-2,0.3-2.9,1.2c-0.8,0.8-1.2,1.7-1.2,2.9L432,8122.7L432,8122.7z"
	/>
<g id="FRONT_1_">
	<path class="st2" d="M86.4,7447.4c-2.5-1.7-5.9-1-7.6,1.5c-9.9,14.9-30.9,15.7-32,15.7c-0.2,0-0.3,0-0.5,0
		c-25.9,0-35.8,22.1-36.2,23c-1.2,2.8,0.1,6,2.8,7.2c0.7,0.3,1.5,0.5,2.2,0.5c2.1,0,4.1-1.2,5-3.3c0.1-0.2,6.9-15.4,24.4-16.4v28.3
		c-0.7,6.1-3.6,10.9-8.7,14.5c-5.3,3.7-12.4,5.6-21.1,5.6c-10.4,0-18.9-3.6-25.2-10.7c-6.4-7.1-9.6-17.2-9.6-30.2l0.1-31.2
		c0.5-11.5,3.6-20.6,9.5-27.1c6.4-7.1,14.8-10.7,25.2-10.7c8.7,0,15.8,1.9,21.1,5.6s8.3,8.8,8.8,15.4l0,0c0,0.2,0,0.5,0,0.7
		c0,3.8,3.1,6.9,6.9,6.9s6.9-3.1,6.9-6.9c0-0.2,0-0.5,0-0.7l0,0c-1-9.9-5.5-17.7-13.6-23.6c-8.1-5.9-18.2-8.8-30.4-8.8
		c-14.5,0-26.2,4.8-35.1,14.3c-8.4,8.9-12.8,20.6-13.3,35l0,0l0,0c0,1-0.1,2-0.1,3l0.1,28.1h-0.1c0,15.9,4.5,28.6,13.4,38.1
		s20.6,14.3,35.1,14.3c12.2,0,22.3-2.9,30.4-8.8c7.4-5.4,11.8-12.5,13.3-21.3l0.3-31.4c9.1-2.2,21.5-7.2,29.3-19
		C89.7,7452.5,89,7449.1,86.4,7447.4z"/>
	<path class="st2" d="M182.7,7125.9h76.7c3.4,0,6.2-2.8,6.2-6.2s-2.8-6.2-6.2-6.2h-76.7c-3.4,0-6.2,2.8-6.2,6.2
		S179.3,7125.9,182.7,7125.9z"/>
	<path class="st2" d="M-228.2,7125.9h76.7c3.4,0,6.2-2.8,6.2-6.2s-2.8-6.2-6.2-6.2h-76.7c-3.4,0-6.2,2.8-6.2,6.2
		S-231.7,7125.9-228.2,7125.9z"/>
	<circle class="st2" cx="263.3" cy="7181.9" r="6.2"/>
	<circle class="st2" cx="13.8" cy="7162.4" r="6.2"/>
	<path class="st2" d="M-101.2,7182c0.1,0,0.2,0,0.3,0c23.3,0,33.7-14.6,41.6-28.2c2.6-4.5,12.2-19.5,25.8-23.4
		c16.8-4.9,34.7,2.9,41.7,18.2c1,2.2,3.2,3.5,5.4,3.6c0.1,0,0.2,0,0.3,0c0.1,0,0.2,0,0.4,0c2.2-0.1,4.4-1.4,5.4-3.6
		c7-15.3,24.9-23.1,41.7-18.2c13.6,4,23.2,18.9,25.8,23.4c7.9,13.7,18.3,28.2,41.9,28.2l0,0c14.2,0,31-10.6,35.7-30.9
		c3.9-16.8-3.3-32-19-39.7c-3.1-1.5-6.8-0.3-8.3,2.8s-0.3,6.8,2.8,8.3c14.9,7.4,13.6,20.5,12.4,25.8c-2.4,10.4-11.6,21.4-23.7,21.4
		c-15.5,0-22.9-7.8-31.2-22.1c-4.1-7-15.5-24-33-29.1c-19.1-5.6-39.3,1.1-50.9,15.8c-11.6-14.7-31.8-21.4-50.9-15.8
		c-17.5,5.1-28.9,22.1-33,29.1c-8.3,14.3-15.7,22.1-30.9,22.1c-0.1,0-0.2,0-0.2,0c-13.2-0.1-21.6-9.3-24-18.4
		c-1.2-4.3-3.7-19,13.1-29c2.9-1.7,3.9-5.5,2.1-8.5c-1.8-2.9-5.5-3.9-8.5-2.1c-19.3,11.5-22.3,29.7-18.7,42.9
		C-132.7,7170.9-118.2,7181.9-101.2,7182z"/>
	<polygon class="st2" points="14,7765.8 14.1,7765.8 14.1,7765.8 	"/>
	<circle class="st2" cx="-237.9" cy="7181.9" r="6.2"/>
	<circle class="st2" cx="-255.3" cy="7119.8" r="6.2"/>
	<circle class="st2" cx="285.3" cy="7119.8" r="6.2"/>
	<circle class="st2" cx="318.5" cy="7517.1" r="6.2"/>
	<circle class="st2" cx="293.6" cy="7658.9" r="6.2"/>
	<circle class="st2" cx="253.8" cy="7676.6" r="6.2"/>
	<path class="st2" d="M-114.1,7143c0,9.2,7.5,16.7,16.7,16.7s16.7-7.5,16.7-16.7c0-9.2-7.5-16.7-16.7-16.7
		C-106.6,7126.2-114.1,7133.7-114.1,7143z M-97.4,7138.6c2.4,0,4.4,2,4.4,4.4s-2,4.4-4.4,4.4s-4.4-2-4.4-4.4
		S-99.8,7138.6-97.4,7138.6z"/>
	<path class="st2" d="M127.6,7159.7c9.2,0,16.7-7.5,16.7-16.7c0-9.2-7.5-16.7-16.7-16.7s-16.7,7.5-16.7,16.7
		C110.9,7152.2,118.4,7159.7,127.6,7159.7z M127.6,7138.6c2.4,0,4.4,2,4.4,4.4s-2,4.4-4.4,4.4s-4.4-2-4.4-4.4
		C123.2,7140.6,125.2,7138.6,127.6,7138.6z"/>
	<path class="st2" d="M30.7,7153.4c-3.2,1.2-4.8,4.7-3.6,7.9c1.2,3.2,4.7,4.8,7.9,3.7c1-0.4,25-8.4,43.4,20.2
		c1.2,1.8,3.2,2.8,5.2,2.8c1.1,0,2.3-0.3,3.3-1c2.9-1.8,3.7-5.7,1.9-8.5C69.6,7148.8,42.4,7149.1,30.7,7153.4z"/>
	<path class="st2" d="M-2.7,7153.4c-0.9-0.3-9.1-3.2-20.3-1.5c-10.4,1.5-25.3,7.4-37.7,26.7c-1.8,2.9-1,6.7,1.9,8.5
		c1,0.7,2.2,1,3.3,1c2,0,4-1,5.2-2.8c18.3-28.6,42.3-20.6,43.4-20.2c3.2,1.2,6.7-0.5,7.9-3.7C2.2,7158.2,0.5,7154.6-2.7,7153.4z"/>
	<path class="st2" d="M281.8,7170.3l30.1-34.2v49.3c0,3.4,2.8,6.2,6.2,6.2s6.2-2.8,6.2-6.2v-65.6c0-2.6-1.6-4.9-4-5.8
		s-5.1-0.2-6.8,1.7l-40.9,46.5c-2.3,2.6-2,6.5,0.6,8.7C275.6,7173.2,279.5,7172.9,281.8,7170.3z"/>
	<path class="st2" d="M-289.2,7191.7c3.4,0,6.2-2.8,6.2-6.2v-49.3l30.1,34.2c2.3,2.6,6.2,2.8,8.7,0.6c2.6-2.3,2.8-6.2,0.6-8.7
		l-40.9-46.6c-1.7-1.9-4.4-2.6-6.8-1.7c-2.4,0.9-4,3.2-4,5.8v65.7C-295.3,7188.9-292.6,7191.7-289.2,7191.7z"/>
	<path class="st2" d="M147.4,7197.8c-2.9-0.2-5.6,1.8-6.3,4.6c-0.7,2.9,0.7,5.9,3.3,7.1c9.8,4.6,18.7,6.4,26.7,6.4
		c15.3,0,27.5-6.7,36-13.7c13.6-11.2,20.6-25.3,20.9-25.9c1.4-2.9,0.4-6.4-2.4-8c-6.3-3.7-17.2-6-33.8,4.1
		c-8.3,5.1-14.7,11.2-15.8,12.3C160.8,7198.1,148.1,7197.8,147.4,7197.8z M184.3,7193.9c0.1-0.1,0.2-0.2,0.3-0.3
		c4.7-4.7,18-15.6,28.4-16.1c-3,4.3-7.5,10.1-13.6,15.2c-9,7.4-18.6,11-28.8,10.8C174.8,7201.3,179.5,7198.1,184.3,7193.9z"/>
	<path class="st2" d="M-194.6,7168.3c-2.8,1.6-3.8,5.1-2.4,8c0.3,0.6,7.3,14.7,20.9,25.9c8.5,7,20.6,13.7,36,13.7
		c8.1,0,17-1.8,26.7-6.4c2.7-1.3,4-4.2,3.3-7.1c-0.7-2.9-3.3-4.8-6.3-4.7c-0.5,0-13.3,0.4-28.5-13c-1.1-1.1-7.5-7.2-15.8-12.3
		C-177.3,7162.4-188.3,7164.7-194.6,7168.3z M-153.2,7193.9c4.7,4.2,9.4,7.3,13.7,9.6c-21.6,0.2-35.9-16.3-42.4-26
		c10.4,0.5,23.7,11.4,28.4,16.1C-153.4,7193.7-153.3,7193.8-153.2,7193.9z"/>
	<path class="st2" d="M175.2,7677.7L175.2,7677.7l0.9,1.1L175.2,7677.7z"/>
	<path class="st2" d="M-276.4,7332.9c0,10.1,8.2,18.4,18.4,18.4c10.2,0,18.4-8.2,18.4-18.4c0-10.1-8.2-18.4-18.4-18.4
		C-268.2,7314.5-276.4,7322.8-276.4,7332.9z M-252,7332.9c0,3.3-2.7,6-6,6c-3.3,0-6-2.7-6-6c0-3.3,2.7-6,6-6
		C-254.7,7326.9-252,7329.6-252,7332.9z"/>
	<path class="st2" d="M302.7,7332.9c0-10.1-8.2-18.4-18.4-18.4c-10.1,0-18.4,8.2-18.4,18.4c0,10.1,8.2,18.4,18.4,18.4
		S302.7,7343.1,302.7,7332.9z M278.3,7332.9c0-3.3,2.7-6,6-6s6,2.7,6,6c0,3.3-2.7,6-6,6C281,7339,278.3,7336.3,278.3,7332.9z"/>
	<path class="st2" d="M320.4,7378.7c-2.3-0.9-5-0.4-6.8,1.4c-8.1,8.3-21.4,8-21.6,8c-0.1,0-0.2,0-0.2,0c-3.3,0-6,2.6-6.2,5.9
		c-0.1,3.4,2.5,6.3,5.9,6.4c0.6,0,10.4,0.3,20.4-4.3V7497c0,3.4,2.8,6.2,6.2,6.2s6.2-2.8,6.2-6.2v-112.6
		C324.2,7381.9,322.7,7379.6,320.4,7378.7z"/>
	<path class="st2" d="M-290.3,7503.2c3.4,0,6.2-2.8,6.2-6.2v-100.9c10,4.6,19.8,4.3,20.4,4.3c3.4-0.1,6.1-3,5.9-6.4
		c-0.1-3.4-3-6.1-6.4-5.9c-0.1,0-13.5,0.3-21.6-8c-1.8-1.8-4.4-2.3-6.8-1.4c-2.3,0.9-3.8,3.2-3.8,5.7v112.7
		C-296.5,7500.5-293.7,7503.2-290.3,7503.2z"/>
	<path class="st2" d="M325.3,7606.1c0-3.4-2.8-6.2-6.2-6.2h-40c-3.4,0-6.2,2.8-6.2,6.2c0,3.4,2.8,6.2,6.2,6.2h40
		C322.5,7612.3,325.3,7609.6,325.3,7606.1z"/>
	<path class="st2" d="M283.8,7629.8c3.4,0,6.2-2.8,6.2-6.2c0-3.4-2.8-6.2-6.2-6.2h-15.4c-3.4,0-6.2,2.8-6.2,6.2
		c0,3.4,2.8,6.2,6.2,6.2H283.8z"/>
	<path class="st2" d="M298.8,7641.2c0-3.4-2.8-6.2-6.2-6.2h-38.2c-3.4,0-6.2,2.8-6.2,6.2s2.8,6.2,6.2,6.2h38.2
		C296,7647.4,298.8,7644.7,298.8,7641.2z"/>
	<path class="st2" d="M274.6,7658.9c0-3.4-2.8-6.2-6.2-6.2h-29.9c-3.4,0-6.2,2.8-6.2,6.2c0,3.4,2.8,6.2,6.2,6.2h29.9
		C271.8,7665.1,274.6,7662.3,274.6,7658.9z"/>
	<path class="st2" d="M219.1,7670.4c-3.4,0-6.2,2.8-6.2,6.2c0,3.4,2.8,6.2,6.2,6.2h17c3.4,0,6.2-2.8,6.2-6.2c0-3.4-2.8-6.2-6.2-6.2
		H219.1z"/>
	<path class="st2" d="M319.1,7564.6h-22.3c-3.4,0-6.2,2.8-6.2,6.2s2.8,6.2,6.2,6.2h22.3c3.4,0,6.2-2.8,6.2-6.2
		S322.5,7564.6,319.1,7564.6z"/>
	<path class="st2" d="M319.1,7582.3H288c-3.4,0-6.2,2.8-6.2,6.2c0,3.4,2.8,6.2,6.2,6.2h31.1c3.4,0,6.2-2.8,6.2-6.2
		C325.3,7585.1,322.5,7582.3,319.1,7582.3z"/>
	<path class="st2" d="M319.1,7529.3h-9.9c-3.4,0-6.2,2.8-6.2,6.2s2.8,6.2,6.2,6.2h9.9c3.4,0,6.2-2.8,6.2-6.2
		C325.3,7532.1,322.5,7529.3,319.1,7529.3z"/>
	<path class="st2" d="M319.1,7547h-15.2c-3.4,0-6.2,2.8-6.2,6.2s2.8,6.2,6.2,6.2h15.2c3.4,0,6.2-2.8,6.2-6.2
		C325.3,7549.8,322.5,7547,319.1,7547z"/>
	<circle class="st2" cx="-265.5" cy="7659.1" r="6.2"/>
	<circle class="st2" cx="-225.7" cy="7676.8" r="6.2"/>
	<path class="st2" d="M-291.1,7612.5h40c3.4,0,6.2-2.8,6.2-6.2s-2.8-6.2-6.2-6.2h-40c-3.4,0-6.2,2.8-6.2,6.2
		C-297.3,7609.8-294.5,7612.5-291.1,7612.5z"/>
	<path class="st2" d="M-240.4,7617.7h-15.4c-3.4,0-6.2,2.8-6.2,6.2s2.8,6.2,6.2,6.2h15.4c3.4,0,6.2-2.8,6.2-6.2
		C-234.2,7620.5-237,7617.7-240.4,7617.7z"/>
	<path class="st2" d="M-226.4,7635.3h-38.2c-3.4,0-6.2,2.8-6.2,6.2c0,3.4,2.8,6.2,6.2,6.2h38.2c3.4,0,6.2-2.8,6.2-6.2
		C-220.2,7638-223,7635.3-226.4,7635.3z"/>
	<path class="st2" d="M-210.5,7652.9h-29.9c-3.4,0-6.2,2.8-6.2,6.2c0,3.4,2.8,6.2,6.2,6.2h29.9c3.4,0,6.2-2.8,6.2-6.2
		C-204.3,7655.7-207.1,7652.9-210.5,7652.9z"/>
	<path class="st2" d="M-214.3,7676.8c0,3.4,2.8,6.2,6.2,6.2h17c3.4,0,6.2-2.8,6.2-6.2s-2.8-6.2-6.2-6.2h-17
		C-211.5,7670.6-214.3,7673.4-214.3,7676.8z"/>
	<path class="st2" d="M-291.1,7577.2h22.3c3.4,0,6.2-2.8,6.2-6.2c0-3.4-2.8-6.2-6.2-6.2h-22.3c-3.4,0-6.2,2.8-6.2,6.2
		S-294.5,7577.2-291.1,7577.2z"/>
	<path class="st2" d="M-291.1,7594.9h31.1c3.4,0,6.2-2.8,6.2-6.2s-2.8-6.2-6.2-6.2h-31.1c-3.4,0-6.2,2.8-6.2,6.2
		S-294.5,7594.9-291.1,7594.9z"/>
	<path class="st2" d="M-291.1,7541.9h9.9c3.4,0,6.2-2.8,6.2-6.2s-2.8-6.2-6.2-6.2h-9.9c-3.4,0-6.2,2.8-6.2,6.2
		S-294.5,7541.9-291.1,7541.9z"/>
	<path class="st2" d="M-291.1,7559.5h15.2c3.4,0,6.2-2.8,6.2-6.2s-2.8-6.2-6.2-6.2h-15.2c-3.4,0-6.2,2.8-6.2,6.2
		C-297.3,7556.8-294.5,7559.5-291.1,7559.5z"/>
	<path class="st2" d="M14,7798.9L14,7798.9c0.1-0.1,0-0.1,0-0.2V7798.9z"/>
	<path class="st2" d="M295.2,7234.5C295.3,7234.5,295.3,7234.5,295.2,7234.5c2.8,0,5.3-1.9,6-4.7c2.2-8.8,1.3-16.3-2.9-22.5
		c-6.7-10-19-11.9-20.4-12.1c-3.2-0.4-6.2,1.6-6.9,4.8c-2.3,10.5-1,18.9,4,25.1C282.4,7234.1,294,7234.4,295.2,7234.5z
		 M288.2,7214.3c1.2,1.9,1.9,4.1,1.9,6.7c-1.8-0.7-3.8-1.8-5.2-3.6c-1.6-2-2.4-4.6-2.4-7.9C284.5,7210.5,286.7,7212.1,288.2,7214.3z
		"/>
	<path class="st2" d="M255,7145.1c-6.7-10-19-11.9-20.4-12.1c-3.2-0.4-6.2,1.6-6.9,4.8c-2.3,10.5-1,18.9,4,25.1
		c7.2,9,18.8,9.3,20.1,9.3l0,0c2.8,0,5.3-1.9,6-4.7C260.1,7158.9,259.2,7151.3,255,7145.1z M241.5,7155.2c-1.6-2-2.4-4.6-2.4-7.9
		c2.1,1,4.3,2.6,5.7,4.8c1.2,1.9,1.9,4.1,1.9,6.7C244.9,7158.1,242.9,7157,241.5,7155.2z"/>
	<path class="st2" d="M-248.7,7195.2c-1.4,0.2-13.6,2.1-20.4,12.1c-4.1,6.2-5.1,13.7-2.9,22.5c0.7,2.7,3.2,4.7,6,4.7l0,0
		c1.3,0,12.9-0.3,20.1-9.3c5-6.2,6.3-14.7,4-25.1C-242.5,7196.9-245.5,7194.8-248.7,7195.2z M-255.4,7217.4
		c-1.4,1.8-3.4,2.9-5.3,3.6c0-2.6,0.7-4.9,1.9-6.7c1.5-2.2,3.7-3.8,5.7-4.8C-253.1,7212.8-253.9,7215.4-255.4,7217.4z"/>
	<path class="st2" d="M-206.3,7133c-1.4,0.2-13.6,2.1-20.4,12.1c-4.1,6.2-5.1,13.7-2.9,22.5c0.7,2.7,3.2,4.7,6,4.7l0,0
		c1.3,0,12.9-0.3,20.1-9.3c5-6.2,6.3-14.7,4-25.1C-200.2,7134.7-203.1,7132.6-206.3,7133z M-213.1,7155.2c-1.4,1.8-3.4,2.9-5.3,3.6
		c0-2.6,0.7-4.9,1.9-6.7c1.5-2.2,3.7-3.8,5.7-4.8C-210.8,7150.6-211.5,7153.2-213.1,7155.2z"/>
	<path class="st2" d="M209.1,7423.8c0.4,3.2,3,5.5,6.1,5.5c0.2,0,0.5,0,0.7,0c3.4-0.4,5.8-3.5,5.4-6.9c-6.2-54-43.1-92.2-44.7-93.8
		c-2.4-2.4-6.3-2.5-8.7-0.1c-2.4,2.4-2.5,6.3-0.1,8.7C168.2,7337.6,203.4,7374.1,209.1,7423.8z"/>
	<path class="st2" d="M-186.9,7429.2c0.2,0,0.5,0,0.7,0c3.1,0,5.8-2.3,6.1-5.5c5.7-49.7,40.9-86.2,41.2-86.5
		c2.4-2.4,2.3-6.4-0.1-8.7c-2.4-2.4-6.4-2.4-8.7,0.1c-1.6,1.6-38.4,39.8-44.7,93.8C-192.7,7425.8-190.3,7428.8-186.9,7429.2z"/>
</g>
<path class="st4" d="M521.1,7689l-252-231.2l-35.5,38.6l210,192.5h-827.8l210-192.7l-35.5-38.6l-252,231.4h-0.2v152.4
	c0,68.9,66.4,125,147.9,125h155.4c81.5,0,147.9-56.1,147.9-125v-100.1H70v100.1c0,68.9,66.4,125,147.9,125h155.4
	c81.5,0,147.9-56.1,147.9-125L521.1,7689L521.1,7689z"/>
<rect x="-297.3" y="7110.4" class="st5" width="621.6" height="560.2"/>
<g id="FRONT_2_">
	<path class="st2" d="M85.9,7447c-2.5-1.7-5.9-1-7.6,1.5c-9.9,14.9-30.9,15.7-32,15.7c-0.2,0-0.3,0-0.5,0c-25.9,0-35.8,22.1-36.2,23
		c-1.2,2.8,0.1,6,2.8,7.2c0.7,0.3,1.5,0.5,2.2,0.5c2.1,0,4.1-1.2,5-3.3c0.1-0.2,6.9-15.4,24.4-16.4v28.3c-0.7,6.1-3.6,10.9-8.7,14.5
		c-5.3,3.7-12.4,5.6-21.1,5.6c-10.4,0-18.9-3.6-25.2-10.7c-6.4-7.1-9.6-17.2-9.6-30.2l0.1-31.2c0.5-11.5,3.6-20.6,9.5-27.1
		c6.4-7.1,14.8-10.7,25.2-10.7c8.7,0,15.8,1.9,21.1,5.6c5.3,3.7,8.3,8.8,8.8,15.4l0,0c0,0.2,0,0.5,0,0.7c0,3.8,3.1,6.9,6.9,6.9
		s6.9-3.1,6.9-6.9c0-0.2,0-0.5,0-0.7l0,0c-1-9.9-5.5-17.7-13.6-23.6s-18.2-8.8-30.4-8.8c-14.5,0-26.2,4.8-35.1,14.3
		c-8.4,8.9-12.8,20.6-13.3,35l0,0l0,0c0,1-0.1,2-0.1,3l0.1,28.1h-0.1c0,15.9,4.5,28.6,13.4,38.1s20.6,14.3,35.1,14.3
		c12.2,0,22.3-2.9,30.4-8.8c7.4-5.4,11.8-12.5,13.3-21.3l0.3-31.4c9.1-2.2,21.5-7.2,29.3-19C89.2,7452.1,88.5,7448.7,85.9,7447z"/>
	<path class="st2" d="M182.2,7125.5h76.7c3.4,0,6.2-2.8,6.2-6.2s-2.8-6.2-6.2-6.2h-76.7c-3.4,0-6.2,2.8-6.2,6.2
		S178.8,7125.5,182.2,7125.5z"/>
	<path class="st2" d="M-228.7,7125.5h76.7c3.4,0,6.2-2.8,6.2-6.2s-2.8-6.2-6.2-6.2h-76.7c-3.4,0-6.2,2.8-6.2,6.2
		S-232.2,7125.5-228.7,7125.5z"/>
	<circle class="st2" cx="262.8" cy="7181.5" r="6.2"/>
	<circle class="st2" cx="13.3" cy="7162" r="6.2"/>
	<path class="st2" d="M-101.7,7181.6c0.1,0,0.2,0,0.3,0c23.3,0,33.7-14.6,41.6-28.2c2.6-4.5,12.2-19.5,25.8-23.4
		c16.8-4.9,34.7,2.9,41.7,18.2c1,2.2,3.2,3.5,5.4,3.6c0.1,0,0.2,0,0.3,0c0.1,0,0.2,0,0.4,0c2.2-0.1,4.4-1.4,5.4-3.6
		c7-15.3,24.9-23.1,41.7-18.2c13.6,4,23.2,18.9,25.8,23.4c7.9,13.7,18.3,28.2,41.9,28.2l0,0c14.2,0,31-10.6,35.7-30.9
		c3.9-16.8-3.3-32-19-39.7c-3.1-1.5-6.8-0.3-8.3,2.8s-0.3,6.8,2.8,8.3c14.9,7.4,13.6,20.5,12.4,25.8c-2.4,10.4-11.6,21.4-23.7,21.4
		c-15.5,0-22.9-7.8-31.2-22.1c-4.1-7-15.5-24-33-29.1c-19.1-5.6-39.3,1.1-50.9,15.8c-11.6-14.7-31.8-21.4-50.9-15.8
		c-17.5,5.1-28.9,22.1-33,29.1c-8.3,14.3-15.7,22.1-30.9,22.1c-0.1,0-0.2,0-0.2,0c-13.2-0.1-21.6-9.3-24-18.4
		c-1.2-4.3-3.7-19,13.1-29c2.9-1.7,3.9-5.5,2.1-8.5c-1.8-2.9-5.5-3.9-8.5-2.1c-19.3,11.5-22.3,29.7-18.7,42.9
		C-133.2,7170.5-118.7,7181.5-101.7,7181.6z"/>
	<polygon class="st2" points="13.5,7765.4 13.6,7765.4 13.6,7765.4 	"/>
	<circle class="st2" cx="-238.4" cy="7181.5" r="6.2"/>
	<circle class="st2" cx="-255.8" cy="7119.4" r="6.2"/>
	<circle class="st2" cx="284.8" cy="7119.4" r="6.2"/>
	<circle class="st2" cx="318" cy="7516.7" r="6.2"/>
	<circle class="st2" cx="293.1" cy="7658.5" r="6.2"/>
	<circle class="st2" cx="253.3" cy="7676.2" r="6.2"/>
	<path class="st2" d="M-114.6,7142.6c0,9.2,7.5,16.7,16.7,16.7s16.7-7.5,16.7-16.7c0-9.2-7.5-16.7-16.7-16.7
		C-107.1,7125.8-114.6,7133.3-114.6,7142.6z M-97.9,7138.2c2.4,0,4.4,2,4.4,4.4s-2,4.4-4.4,4.4s-4.4-2-4.4-4.4
		S-100.3,7138.2-97.9,7138.2z"/>
	<path class="st2" d="M127.1,7159.3c9.2,0,16.7-7.5,16.7-16.7c0-9.2-7.5-16.7-16.7-16.7s-16.7,7.5-16.7,16.7
		C110.4,7151.8,117.9,7159.3,127.1,7159.3z M127.1,7138.2c2.4,0,4.4,2,4.4,4.4s-2,4.4-4.4,4.4s-4.4-2-4.4-4.4
		C122.7,7140.2,124.7,7138.2,127.1,7138.2z"/>
	<path class="st2" d="M30.2,7153c-3.2,1.2-4.8,4.7-3.6,7.9c1.2,3.2,4.7,4.8,7.9,3.7c1-0.4,25-8.4,43.4,20.2c1.2,1.8,3.2,2.8,5.2,2.8
		c1.1,0,2.3-0.3,3.3-1c2.9-1.8,3.7-5.7,1.9-8.5C69.1,7148.4,41.9,7148.7,30.2,7153z"/>
	<path class="st2" d="M-3.2,7153c-0.9-0.3-9.1-3.2-20.3-1.5c-10.4,1.5-25.3,7.4-37.7,26.7c-1.8,2.9-1,6.7,1.9,8.5c1,0.7,2.2,1,3.3,1
		c2,0,4-1,5.2-2.8c18.3-28.6,42.3-20.6,43.4-20.2c3.2,1.2,6.7-0.5,7.9-3.7C1.7,7157.8,0,7154.2-3.2,7153z"/>
	<path class="st2" d="M281.3,7169.9l30.1-34.2v49.3c0,3.4,2.8,6.2,6.2,6.2s6.2-2.8,6.2-6.2v-65.6c0-2.6-1.6-4.9-4-5.8
		s-5.1-0.2-6.8,1.7l-40.9,46.5c-2.3,2.6-2,6.5,0.6,8.7C275.1,7172.8,279,7172.5,281.3,7169.9z"/>
	<path class="st2" d="M-289.7,7191.3c3.4,0,6.2-2.8,6.2-6.2v-49.3l30.1,34.2c2.3,2.6,6.2,2.8,8.7,0.6c2.6-2.3,2.8-6.2,0.6-8.7
		l-40.9-46.6c-1.7-1.9-4.4-2.6-6.8-1.7c-2.4,0.9-4,3.2-4,5.8v65.7C-295.8,7188.5-293.1,7191.3-289.7,7191.3z"/>
	<path class="st2" d="M146.9,7197.4c-2.9-0.2-5.6,1.8-6.3,4.6c-0.7,2.9,0.7,5.9,3.3,7.1c9.8,4.6,18.7,6.4,26.7,6.4
		c15.3,0,27.5-6.7,36-13.7c13.6-11.2,20.6-25.3,20.9-25.9c1.4-2.9,0.4-6.4-2.4-8c-6.3-3.7-17.2-6-33.8,4.1
		c-8.3,5.1-14.7,11.2-15.8,12.3C160.3,7197.7,147.6,7197.4,146.9,7197.4z M183.8,7193.5c0.1-0.1,0.2-0.2,0.3-0.3
		c4.7-4.7,18-15.6,28.4-16.1c-3,4.3-7.5,10.1-13.6,15.2c-9,7.4-18.6,11-28.8,10.8C174.3,7200.9,179,7197.7,183.8,7193.5z"/>
	<path class="st2" d="M-195.1,7167.9c-2.8,1.6-3.8,5.1-2.4,8c0.3,0.6,7.3,14.7,20.9,25.9c8.5,7,20.6,13.7,36,13.7
		c8.1,0,17-1.8,26.7-6.4c2.7-1.3,4-4.2,3.3-7.1c-0.7-2.9-3.3-4.8-6.3-4.7c-0.5,0-13.3,0.4-28.5-13c-1.1-1.1-7.5-7.2-15.8-12.3
		C-177.8,7162-188.8,7164.3-195.1,7167.9z M-153.7,7193.5c4.7,4.2,9.4,7.3,13.7,9.6c-21.6,0.2-35.9-16.3-42.4-26
		c10.4,0.5,23.7,11.4,28.4,16.1C-153.9,7193.3-153.8,7193.4-153.7,7193.5z"/>
	<path class="st2" d="M-278.7,7686c-0.2,0.1-0.4,0.1-0.6,0.2c15.4,0.8,30.9,1,46.4,1c-3.7-0.8-7.3-1.3-10.9-1.7
		c-5.2-0.6-22.7-3.2-31.9-14c-11.6-13.1-11.8-32.6-0.7-45.2c2.3-2.6,2-6.5-0.5-8.7c-2.6-2.3-6.5-2-8.7,0.5
		c-15.1,17.2-15,43.7,0.2,61.7C-283.4,7682.2-281.1,7684.2-278.7,7686z"/>
	<path class="st2" d="M323.8,7321.5c0.1-0.3,0.1-0.7,0.1-1.1v-112.7c0-3.4-2.8-6.2-6.2-6.2s-6.2,2.8-6.2,6.2v94.7
		c-10.5-9.1-25.7-10.1-32-10.1c-12.2,0.1-19.8-1.8-25.4-11.4c-4.7-8.1-2-16.5,2.7-21.3c5.9-6,14.3-6.8,22.5-2.3
		c3,1.6,6.8,0.6,8.4-2.4s0.6-6.8-2.4-8.4c-13-7.2-27.6-5.4-37.3,4.4c-9.6,9.8-11.4,24.3-4.6,36.1c8.9,15.3,22.4,17.5,35.7,17.5h0.5
		c4,0,16.9,0.6,24.3,7.6c9.6,9.1,12.1,23.4,5.8,34c0,0-0.1,0.1-0.1,0.2c-0.5,0.9-12.4,21.1-45.6,10.5c-10-21.2-21.6-39.2-32.4-53.6
		l-4.9,3.7l4.9-3.8l-2-2.6c-21.3-35.7,3.3-73.7,16.1-89.8l7.2-8.2c2.2-2.6,2-6.5-0.6-8.7c-2.5-2.1-6.1-2-8.4,0.3
		c-0.2,0.2-1.3,1.3-3,3.2c-11.1,11.3-54.5,51.3-96.6,30.4l-1.2-0.8l-0.6-0.4c-37.7-20.3-74.9-32-110.4-35
		c-4.6-10.5-10.7-18.5-18.4-18.5c-7.8,0-13.9,8.1-18.6,18.8c-49.7,2.2-111.5,34.3-114.1,35.6c-42.3,21.3-85.9-18.9-97-30.2
		c-1.7-1.9-2.9-3-3-3.2c-2.3-2.3-5.9-2.4-8.4-0.3c-2.6,2.2-2.8,6.1-0.6,8.7l7.7,8.7c4.5,5.6,10.2,13.7,15,23.4
		c12,24.3,12.2,46.4,0.7,65.8c-14.3,17.8-25.9,36.5-34.8,56.2c-33.5,10.9-45.5-9.5-46-10.4c0-0.1-0.1-0.1-0.1-0.2
		c-6.3-10.6-3.8-24.9,5.8-34c7.4-7,20.3-7.6,24.3-7.6h0.1c13.4,0,27.2-2.1,36.1-17.5c6.8-11.8,5-26.4-4.6-36.1
		c-9.7-9.9-24.3-11.6-37.3-4.4c-3,1.6-4.1,5.4-2.4,8.4c1.6,3,5.4,4.1,8.4,2.4c8.3-4.5,16.7-3.7,22.5,2.3c4.7,4.8,7.3,13.2,2.7,21.3
		c-5.5,9.5-13,11.4-25,11.4h-0.4c-5.5,0-18.3,0.8-28.5,7.4v-90.3c0-3.4-2.8-6.2-6.2-6.2c-3.4,0-6.2,2.8-6.2,6.2v104
		c-6.8,12.2-7.2,27.1-0.2,39.1c0.7,1.3,5,8.5,14.6,13.9c5.5,3.1,13.4,6,23.9,6c3.8,0,8-0.4,12.5-1.3c-10.8,29-16.2,60.2-16.4,94.2
		c0,0.1,0,0.1,0,0.2v0.9c0,61.4,21.6,121.7,60.8,169.8c16.1,19.8,35,37.3,55.8,51.9c0.7-0.5,1.7-0.8,2.8-0.7
		c6.5,0.3,13,0.6,19.5,0.9c-3-1.8-6-3.7-9-5.6c16-0.5,31.3,1.6,45.9,6.1c10.5,0,21,0,31.5,0c-24.1-12.9-55.2-21.8-93-17.3v0.1
		c-6.2-4.8-12.2-9.8-17.9-15.1c10-2,26.9-4,48-1.6c34.7,3.9,64.3,17.7,88.2,34c7,0,14.1,0.1,21.1,0.2c-41.5-32.8-81-43.8-108.8-46.8
		c-29.6-3.2-51.3,1.6-59.2,3.8c-5.2-5.4-10.5-11.3-15.5-17.4c-0.3-0.4-0.6-0.7-0.9-1.1c30.1-8.3,63-3.9,86.1,1.6
		c27.9,6.7,48.3,16.4,48.5,16.5l0.1-0.2c22.1,8.8,46.2,13.7,71.4,13.7c25.1,0,49.1-4.8,71.1-13.6c0,0,0.2-0.1,0.6-0.3
		c2.6-1.1,5.3-2.2,7.8-3.4c8.5-3.5,22.8-8.7,40-12.8c23.3-5.6,56.3-10,86.4-1.6c-5.2,6.4-10.6,12.5-16.4,18.4
		c-8.4-2.3-29.8-6.7-58.7-3.6c-28,3-67.8,14.1-109.6,47.4c7,0.1,13.9,0.2,20.9,0.2c34.4-23.8,66.4-32.4,89.6-35
		c20.7-2.3,37.4-0.4,47.4,1.5c-5.7,5.3-11.6,10.3-17.8,15c-38.9-4.5-70.5,5.1-94.8,18.5c3.8,0,7.5-0.1,11.3-0.1
		c6.9-0.1,13.8-0.2,20.6-0.4c15-4.9,30.8-7.1,47.2-6.7c-1.9,1.3-3.9,2.5-5.9,3.7c5.5-0.1,11.1,0.1,16.4,1.4c0.9,0.2,1.9,0.5,3,0.9
		c2.3-1.6,4.5-3.2,6.8-4.9c33.3-24.9,61-57.4,80-93.9c20-38.4,30.1-79.9,30.1-123.1v-0.8c0-0.1,0-0.1,0-0.2v-0.3
		c-0.2-35.1-8-66.7-19.1-93.9c4.1,0.8,8,1.1,11.5,1.1c25.9,0,37.3-17.8,38.5-19.9C326.1,7343.2,327,7331.8,323.8,7321.5z
		 M136.1,7237.3l1.3,0.9l0.7,0.4c9.9,5,20.5,7.5,31.5,7.5c11.6,0,23.7-2.8,35.9-8.4l-32,36.5c-2.9-1.4-6.1-2.1-9.6-2.1
		c-4.5,0-8.6,1.3-12.1,3.5c-31.5-23-68.8-38.3-109.4-43.3c-1-7.3-3-17.7-6-27.9C68.5,7208,102,7219,136.1,7237.3z M174.3,7294.8
		c0,4.5-3,8.4-7.1,9.8c-1,0.3-2.1,0.5-3.2,0.5h-1c-4.6-0.4-8.3-3.9-9.1-8.3c-0.1-0.6-0.2-1.3-0.2-1.9c0-0.7,0.1-1.3,0.2-2
		c0.9-4.5,4.7-8,9.4-8.3h1.3c4.6,0.3,8.5,3.6,9.5,8c0.1,0.6,0.2,1.1,0.2,1.7C174.2,7294.4,174.3,7294.6,174.3,7294.8z M-3.3,7231.2
		c2.7-18.7,11.9-43.7,16.7-45.7c5.5,2.1,14,28,16.6,45.6c0.5,3.5,0.8,6.7,0.8,9.3c0,1.1-0.1,2.1-0.3,3.1
		c-1.5,8.1-8.6,14.3-17.2,14.3s-15.7-6.2-17.2-14.3c-0.2-1-0.3-2.1-0.3-3.1C-4.1,7237.7-3.8,7234.6-3.3,7231.2z M7.5,7269.7v4.3
		c-44.6,1.4-85.4,18.1-117.4,44.9l-8.8-10.1c2.3-3.5,3.7-7.8,3.7-12.3c0-3.8-1-7.4-2.6-10.5c29.3-21.5,64-36,101.7-41.1
		C-14.2,7257.3-4.7,7267.3,7.5,7269.7z M-145.2,7246.1c11,0,21.6-2.5,31.6-7.5c0.6-0.3,57.7-30,103.9-34c-3,10.1-5,20.6-6,27.8
		c-41.1,5.1-79,21-110.7,44.6c-3.4-2-7.2-3.1-11.4-3.1c-3.5,0-6.8,0.8-9.7,2.2l-33.6-38.3C-168.8,7243.3-156.8,7246.1-145.2,7246.1z
		 M-137.8,7319.2c3.5,0,6.8-0.8,9.7-2.2l8.9,10.2c-35.3,33.7-57.8,80.6-59.6,132.7l-5-0.3c-2.4-11.7-11.5-20.9-23.2-23.3
		c6.1-46.3,26.5-88.1,56.5-120.9C-146.8,7317.8-142.5,7319.2-137.8,7319.2z M-148.1,7296.6c0-0.5,0-0.9,0.1-1.4
		c0-0.3,0.1-0.5,0.1-0.8c0.9-4.4,4.7-7.8,9.3-8.1h0.5c0.1,0,0.1,0,0.2,0c4.7,0,8.7,3.2,9.9,7.6c0.2,0.9,0.4,1.8,0.4,2.7
		c0,0.7-0.1,1.4-0.2,2.1c-0.9,4.4-4.7,7.8-9.3,8.1h-0.8c-1.3,0-2.6-0.3-3.7-0.7C-145.3,7304.7-148.1,7300.9-148.1,7296.6z
		 M-195.1,7308l0.5-0.7c10.4-17.2,13-36.8,7.8-57.4l30,34.3c-2.3,3.5-3.7,7.8-3.7,12.3c0,3.3,0.7,6.4,2,9.3
		c-32.7,35.2-54.7,80.4-61,130.4c-8.9,1.4-20.7,5.2-29.6,10.9C-245.6,7394.3-227.9,7348.6-195.1,7308z M-249.6,7465.4
		c0.2-5.8,16.3-13.8,29-16.4c2.8-0.6,5.4-0.9,7.6-0.9c1.7,0,3.2,0.2,4.8,0.7c7.3,2.1,12.7,8.8,12.7,16.8s-5.4,14.7-12.7,16.8
		c-1.5,0.4-3.1,0.7-4.8,0.7c-2.3,0-4.9-0.3-7.6-0.9c-12.7-2.7-28.8-10.7-29-16.5C-249.6,7465.5-249.6,7465.5-249.6,7465.4z
		 M-200.5,7616.8c-28.7-39.4-45.3-84.9-48.5-133c8.9,5.8,20.8,9.6,29.6,11c5.3,42.4,22.1,82.6,48.7,116.2
		C-182.6,7612.1-192.5,7614.3-200.5,7616.8z M-155.3,7610.4c-28.2-32.9-46.1-73.1-51.7-115.7c11.5-2.4,20.6-11.3,23.1-22.7l5.1,0.3
		c1.7,58,29.2,109.6,71.3,143.8C-125.6,7612.1-141.5,7610.5-155.3,7610.4z M-166,7480.2l165.9,165.9
		C-88.5,7639.4-159.3,7568.6-166,7480.2z M-162.3,7466.5l70.8-70.8c2.4-2.4,2.4-6.3,0-8.7c-2.4-2.4-6.3-2.4-8.7,0l-65.7,65.7
		c3.5-45.5,23.9-86.4,55-116.2l31,35.4c1.2,1.4,2.9,2.1,4.7,2.1c1.4,0,2.9-0.5,4.1-1.5c2.6-2.3,2.8-6.2,0.6-8.7l-31.1-35.5
		c28-23.4,63.1-38.5,101.6-41.4l-52.8,52.3c-2.4,2.4-2.4,6.3,0,8.7c1.2,1.2,2.8,1.8,4.4,1.8c1.6,0,3.1-0.6,4.4-1.8l58-57.4
		l56.3,56.3c2.4,2.4,6.3,2.4,8.7,0s2.4-6.3,0-8.7l-51.2-51.2c31.7,2.4,61.9,13,88.2,31.1c2.8,1.9,6.7,1.2,8.6-1.6
		c1.9-2.8,1.2-6.7-1.6-8.6c-30.4-20.9-65.8-32.5-102.8-33.6v-4.4c11.6-2.8,20.9-12.7,22.7-24.9c37.2,4.9,71.6,19.1,100.7,40.1
		c-1.5,3-2.3,6.3-2.3,9.9c0,4.5,1.3,8.6,3.6,12.2l-49.8,56.8c-2.3,2.6-2,6.5,0.6,8.7c1.2,1,2.6,1.5,4.1,1.5c1.7,0,3.4-0.7,4.7-2.1
		l49.7-56.7c3,1.5,6.3,2.3,9.9,2.3c4.6,0,8.8-1.4,12.3-3.7c31,33.2,51.9,75.8,58.1,123c-10.7,3-19,11.8-21.2,22.8l-7.1,0.3
		c-1.5-45.7-19.2-89.3-50.1-123.2c-2.3-2.5-6.2-2.7-8.7-0.4c-2.5,2.3-2.7,6.2-0.4,8.7c27.2,29.8,43.4,67.6,46.5,107.6l-66.5-66.3
		c-2.4-2.4-6.3-2.4-8.7,0s-2.4,6.3,0,8.7l71.4,71.4l-176,176L-162.3,7466.5z M88.6,7630.3c-4,1.6-6.8,2.9-8.2,3.5
		c-16.6,6.6-34.4,10.9-53,12.3l165.9-165.9C188.3,7547,146.7,7603.6,88.6,7630.3z M135,7615.9c42-34.2,69.4-85.7,71.1-143.6l7.2-0.3
		c2.4,10.7,10.5,19.3,21.1,22.2c-5.6,42.8-23.4,83.2-51.8,116.2C168.9,7610.4,153,7612,135,7615.9z M248.2,7583.9
		c-6,11.5-12.9,22.5-20.5,33.1c-7.9-2.5-17.8-4.8-29.7-5.9c26.5-33.6,43.3-73.7,48.7-116c8.6-1,20.5-4.7,29.6-10.6
		C273.9,7519.2,264.5,7552.6,248.2,7583.9z M276.9,7465.6c-0.2,5.6-15.5,14.7-29,16.9c-1.9,0.3-3.8,0.5-5.6,0.5
		c-2.4,0-4.7-0.5-6.8-1.4c-6.3-2.7-10.7-8.9-10.7-16.1s4.4-13.4,10.7-16.1c2.1-0.9,4.4-1.4,6.8-1.4c1.8,0,3.7,0.2,5.6,0.5
		c13.5,2.2,28.7,11.3,29,16.8V7465.6z M276,7446.5c-9-5.8-20.8-9.5-29.3-10.5c-6.4-50.6-28.9-96.3-62.2-131.6
		c1.4-2.9,2.2-6.2,2.2-9.6c0-4.6-1.4-8.9-3.7-12.4l28.4-32.4c-5.4,20.6-2.8,40.1,7.6,57.4l2.6,3.5
		C244.3,7341.2,270.9,7388.1,276,7446.5z"/>
	<path class="st2" d="M289,7681.5c6-0.2,12.1-0.5,18-1.1c1.8-0.2,3,0.4,3.8,1.5c0.7-0.7,1.3-1.3,1.9-2.1c15.3-18,15.4-44.5,0.2-61.7
		c-2.3-2.6-6.2-2.8-8.7-0.5c-2.6,2.3-2.8,6.2-0.5,8.7c11.1,12.6,10.9,32.1-0.4,45.5C299.5,7676.4,294.2,7679.4,289,7681.5z"/>
	<path class="st2" d="M19.1,7689.1c-0.9-2.2-3.2-3.8-5.7-3.8s-4.7,1.5-5.6,3.7C11.6,7689,15.4,7689,19.1,7689.1z"/>
	<polygon class="st2" points="174.7,7677.3 174.7,7677.3 175.6,7678.4 	"/>
	<path class="st2" d="M-276.9,7332.5c0,10.1,8.2,18.4,18.4,18.4c10.2,0,18.4-8.2,18.4-18.4c0-10.1-8.2-18.4-18.4-18.4
		C-268.7,7314.1-276.9,7322.4-276.9,7332.5z M-252.5,7332.5c0,3.3-2.7,6-6,6c-3.3,0-6-2.7-6-6c0-3.3,2.7-6,6-6
		C-255.2,7326.5-252.5,7329.2-252.5,7332.5z"/>
	<path class="st2" d="M302.2,7332.5c0-10.1-8.2-18.4-18.4-18.4c-10.1,0-18.4,8.2-18.4,18.4c0,10.1,8.2,18.4,18.4,18.4
		S302.2,7342.7,302.2,7332.5z M277.8,7332.5c0-3.3,2.7-6,6-6s6,2.7,6,6c0,3.3-2.7,6-6,6C280.5,7338.6,277.8,7335.9,277.8,7332.5z"/>
	<path class="st2" d="M319.9,7378.3c-2.3-0.9-5-0.4-6.8,1.4c-8.1,8.3-21.4,8-21.6,8c-0.1,0-0.2,0-0.2,0c-3.3,0-6,2.6-6.2,5.9
		c-0.1,3.4,2.5,6.3,5.9,6.4c0.6,0,10.4,0.3,20.4-4.3v100.9c0,3.4,2.8,6.2,6.2,6.2s6.2-2.8,6.2-6.2V7384
		C323.7,7381.5,322.2,7379.2,319.9,7378.3z"/>
	<path class="st2" d="M-290.8,7502.8c3.4,0,6.2-2.8,6.2-6.2v-100.9c10,4.6,19.8,4.3,20.4,4.3c3.4-0.1,6.1-3,5.9-6.4
		c-0.1-3.4-3-6.1-6.4-5.9c-0.1,0-13.5,0.3-21.6-8c-1.8-1.8-4.4-2.3-6.8-1.4c-2.3,0.9-3.8,3.2-3.8,5.7v112.7
		C-297,7500.1-294.2,7502.8-290.8,7502.8z"/>
	<path class="st2" d="M324.8,7605.7c0-3.4-2.8-6.2-6.2-6.2h-40c-3.4,0-6.2,2.8-6.2,6.2s2.8,6.2,6.2,6.2h40
		C322,7611.9,324.8,7609.2,324.8,7605.7z"/>
	<path class="st2" d="M283.3,7629.4c3.4,0,6.2-2.8,6.2-6.2s-2.8-6.2-6.2-6.2h-15.4c-3.4,0-6.2,2.8-6.2,6.2s2.8,6.2,6.2,6.2H283.3z"
		/>
	<path class="st2" d="M298.3,7640.8c0-3.4-2.8-6.2-6.2-6.2h-38.2c-3.4,0-6.2,2.8-6.2,6.2s2.8,6.2,6.2,6.2h38.2
		C295.5,7647,298.3,7644.3,298.3,7640.8z"/>
	<path class="st2" d="M274.1,7658.5c0-3.4-2.8-6.2-6.2-6.2H238c-3.4,0-6.2,2.8-6.2,6.2c0,3.4,2.8,6.2,6.2,6.2h29.9
		C271.3,7664.7,274.1,7661.9,274.1,7658.5z"/>
	<path class="st2" d="M218.6,7670c-3.4,0-6.2,2.8-6.2,6.2s2.8,6.2,6.2,6.2h17c3.4,0,6.2-2.8,6.2-6.2s-2.8-6.2-6.2-6.2H218.6z"/>
	<path class="st2" d="M318.6,7564.2h-22.3c-3.4,0-6.2,2.8-6.2,6.2c0,3.4,2.8,6.2,6.2,6.2h22.3c3.4,0,6.2-2.8,6.2-6.2
		C324.8,7567,322,7564.2,318.6,7564.2z"/>
	<path class="st2" d="M318.6,7581.9h-31.1c-3.4,0-6.2,2.8-6.2,6.2c0,3.4,2.8,6.2,6.2,6.2h31.1c3.4,0,6.2-2.8,6.2-6.2
		C324.8,7584.7,322,7581.9,318.6,7581.9z"/>
	<path class="st2" d="M318.6,7528.9h-9.9c-3.4,0-6.2,2.8-6.2,6.2s2.8,6.2,6.2,6.2h9.9c3.4,0,6.2-2.8,6.2-6.2
		C324.8,7531.7,322,7528.9,318.6,7528.9z"/>
	<path class="st2" d="M318.6,7546.6h-15.2c-3.4,0-6.2,2.8-6.2,6.2s2.8,6.2,6.2,6.2h15.2c3.4,0,6.2-2.8,6.2-6.2
		C324.8,7549.4,322,7546.6,318.6,7546.6z"/>
	<circle class="st2" cx="-291" cy="7517" r="6.2"/>
	<circle class="st2" cx="-266" cy="7658.7" r="6.2"/>
	<circle class="st2" cx="-226.2" cy="7676.4" r="6.2"/>
	<path class="st2" d="M-291.6,7612.1h40c3.4,0,6.2-2.8,6.2-6.2c0-3.4-2.8-6.2-6.2-6.2h-40c-3.4,0-6.2,2.8-6.2,6.2
		C-297.8,7609.4-295,7612.1-291.6,7612.1z"/>
	<path class="st2" d="M-240.9,7617.3h-15.4c-3.4,0-6.2,2.8-6.2,6.2c0,3.4,2.8,6.2,6.2,6.2h15.4c3.4,0,6.2-2.8,6.2-6.2
		S-237.5,7617.3-240.9,7617.3z"/>
	<path class="st2" d="M-226.9,7634.9h-38.2c-3.4,0-6.2,2.8-6.2,6.2c0,3.4,2.8,6.2,6.2,6.2h38.2c3.4,0,6.2-2.8,6.2-6.2
		C-220.7,7637.6-223.5,7634.9-226.9,7634.9z"/>
	<path class="st2" d="M-211,7652.5h-29.9c-3.4,0-6.2,2.8-6.2,6.2s2.8,6.2,6.2,6.2h29.9c3.4,0,6.2-2.8,6.2-6.2
		S-207.6,7652.5-211,7652.5z"/>
	<path class="st2" d="M-214.8,7676.4c0,3.4,2.8,6.2,6.2,6.2h17c3.4,0,6.2-2.8,6.2-6.2c0-3.4-2.8-6.2-6.2-6.2h-17
		C-212,7670.2-214.8,7673-214.8,7676.4z"/>
	<path class="st2" d="M-291.6,7576.8h22.3c3.4,0,6.2-2.8,6.2-6.2c0-3.4-2.8-6.2-6.2-6.2h-22.3c-3.4,0-6.2,2.8-6.2,6.2
		S-295,7576.8-291.6,7576.8z"/>
	<path class="st2" d="M-291.6,7594.5h31.1c3.4,0,6.2-2.8,6.2-6.2s-2.8-6.2-6.2-6.2h-31.1c-3.4,0-6.2,2.8-6.2,6.2
		S-295,7594.5-291.6,7594.5z"/>
	<path class="st2" d="M-291.6,7541.5h9.9c3.4,0,6.2-2.8,6.2-6.2s-2.8-6.2-6.2-6.2h-9.9c-3.4,0-6.2,2.8-6.2,6.2
		S-295,7541.5-291.6,7541.5z"/>
	<path class="st2" d="M-291.6,7559.1h15.2c3.4,0,6.2-2.8,6.2-6.2s-2.8-6.2-6.2-6.2h-15.2c-3.4,0-6.2,2.8-6.2,6.2
		C-297.8,7556.4-295,7559.1-291.6,7559.1z"/>
	<path class="st2" d="M13.5,7798.5L13.5,7798.5c0.1-0.1,0-0.1,0-0.2V7798.5z"/>
	<path class="st2" d="M294.7,7234.1C294.8,7234.1,294.8,7234.1,294.7,7234.1c2.8,0,5.3-1.9,6-4.7c2.2-8.8,1.3-16.3-2.9-22.5
		c-6.7-10-19-11.9-20.4-12.1c-3.2-0.4-6.2,1.6-6.9,4.8c-2.3,10.5-1,18.9,4,25.1C281.9,7233.7,293.5,7234,294.7,7234.1z
		 M287.7,7213.9c1.2,1.9,1.9,4.1,1.9,6.7c-1.8-0.7-3.8-1.8-5.2-3.6c-1.6-2-2.4-4.6-2.4-7.9C284,7210.1,286.2,7211.7,287.7,7213.9z"
		/>
	<path class="st2" d="M254.5,7144.7c-6.7-10-19-11.9-20.4-12.1c-3.2-0.4-6.2,1.6-6.9,4.8c-2.3,10.5-1,18.9,4,25.1
		c7.2,9,18.8,9.3,20.1,9.3l0,0c2.8,0,5.3-1.9,6-4.7C259.6,7158.5,258.7,7150.9,254.5,7144.7z M241,7154.8c-1.6-2-2.4-4.6-2.4-7.9
		c2.1,1,4.3,2.6,5.7,4.8c1.2,1.9,1.9,4.1,1.9,6.7C244.4,7157.7,242.4,7156.6,241,7154.8z"/>
	<path class="st2" d="M-249.2,7194.8c-1.4,0.2-13.6,2.1-20.4,12.1c-4.1,6.2-5.1,13.7-2.9,22.5c0.7,2.7,3.2,4.7,6,4.7l0,0
		c1.3,0,12.9-0.3,20.1-9.3c5-6.2,6.3-14.7,4-25.1C-243,7196.5-246,7194.4-249.2,7194.8z M-255.9,7217c-1.4,1.8-3.4,2.9-5.3,3.6
		c0-2.6,0.7-4.9,1.9-6.7c1.5-2.2,3.7-3.8,5.7-4.8C-253.6,7212.4-254.4,7215-255.9,7217z"/>
	<path class="st2" d="M-206.8,7132.6c-1.4,0.2-13.6,2.1-20.4,12.1c-4.1,6.2-5.1,13.7-2.9,22.5c0.7,2.7,3.2,4.7,6,4.7l0,0
		c1.3,0,12.9-0.3,20.1-9.3c5-6.2,6.3-14.7,4-25.1C-200.7,7134.3-203.6,7132.2-206.8,7132.6z M-213.6,7154.8
		c-1.4,1.8-3.4,2.9-5.3,3.6c0-2.6,0.7-4.9,1.9-6.7c1.5-2.2,3.7-3.8,5.7-4.8C-211.3,7150.2-212,7152.8-213.6,7154.8z"/>
	<path class="st2" d="M208.6,7423.4c0.4,3.2,3,5.5,6.1,5.5c0.2,0,0.5,0,0.7,0c3.4-0.4,5.8-3.5,5.4-6.9c-6.2-54-43.1-92.2-44.7-93.8
		c-2.4-2.4-6.3-2.5-8.7-0.1c-2.4,2.4-2.5,6.3-0.1,8.7C167.7,7337.2,202.9,7373.7,208.6,7423.4z"/>
	<path class="st2" d="M-187.4,7428.8c0.2,0,0.5,0,0.7,0c3.1,0,5.8-2.3,6.1-5.5c5.7-49.7,40.9-86.2,41.2-86.5
		c2.4-2.4,2.3-6.4-0.1-8.7c-2.4-2.4-6.4-2.4-8.7,0.1c-1.6,1.6-38.4,39.8-44.7,93.8C-193.2,7425.4-190.8,7428.4-187.4,7428.8z"/>
</g>
</svg>
