<?xml version="1.0" encoding="utf-8"?>
<!-- Generator: Adobe Illustrator 19.0.0, SVG Export Plug-In . SVG Version: 6.00 Build 0)  -->
<svg version="1.1" id="Layer_1" xmlns="http://www.w3.org/2000/svg" xmlns:xlink="http://www.w3.org/1999/xlink" x="0px" y="0px"
	 viewBox="-354.8 3647.5 983.1 1076.2" style="enable-background:new -354.8 3647.5 983.1 1076.2;" xml:space="preserve">
<style type="text/css">
	.st0{display:none;}
	.st1{display:inline;fill:#191717;}
	.st2{fill:#191717;}
	.st3{fill:#494368;}
	.st4{fill:#FC60A8;}
</style>
<g id="BACK" class="st0">
	<path class="st1" d="M-50.1,4144.8c-15.2,0-30.7-3.1-46.5-10.5c-5.9-2.8-8.5-9.8-5.7-15.7c2.8-5.9,9.8-8.5,15.7-5.7
		c57,26.6,111.2-15.2,163.6-55.7c6.1-4.7,12-9.3,17.9-13.7c8-7.6,16.7-7.6,21.9-7.6c1,0,1.9,0.1,2.9,0.4
		c69.1,17.3,143.2,10.5,208.5-19.2c6-2.7,13-0.1,15.7,5.9s0.1,13-5.9,15.7c-69.7,31.6-148.7,39-222.6,20.9c-3.1,0-3.5,0.3-4.4,1.3
		c-0.4,0.4-0.8,0.8-1.3,1.1c-6,4.5-12,9.2-18.2,13.9C50.8,4107.4,2.3,4144.8-50.1,4144.8z"/>
	<path class="st1" d="M103.3,3994.1c-3.6,0-6.2-0.3-7.2-0.4c-41.8-4.4-42.9-30.4-42.9-31.6c-0.1-25.9,27.7-39.8,44.5-44
		c30.9-9.8,50.1-10.6,60.3-2.4c4.2,3.3,6.2,7.6,6.7,11.3c6.6,20.7-8.8,41.2-19.7,50.6C131.6,3991.8,113.4,3994.1,103.3,3994.1z
		 M77,3961c0.9,2.3,6.1,7.5,21.8,9.1c0.2,0,0.4,0,0.6,0.1c0.1,0,18.1,2.4,28.8-9.2c0.3-0.4,0.7-0.7,1.1-1c4.4-3.8,16.1-16.5,12.9-26
		c-3.4-0.6-13.5-0.9-37.6,6.8c-0.2,0.1-0.5,0.2-0.8,0.2C98.2,3942.4,77.9,3949.8,77,3961z M76.9,3961.4c0,0.1,0,0.2,0,0.3
		C76.9,3961.6,76.9,3961.5,76.9,3961.4z M101,3929.5L101,3929.5L101,3929.5z M141.3,3928.5L141.3,3928.5L141.3,3928.5z"/>
	<circle class="st1" cx="305.2" cy="3875" r="20.1"/>
	<circle class="st1" cx="-12.6" cy="3951.6" r="20.1"/>
	<path class="st1" d="M114.1,4100.9c-26.3,0-46.4-16.9-47.4-17.7c-5-4.2-5.6-11.7-1.4-16.7s11.7-5.6,16.7-1.4
		c0.4,0.3,18.1,14.8,37.8,11.6c12.6-2,24.1-11.1,34-27.1c3.5-5.6,10.8-7.3,16.3-3.8c5.6,3.5,7.3,10.8,3.8,16.3
		c-13.7,22.1-30.8,34.9-50.6,38C120.2,4100.7,117.1,4100.9,114.1,4100.9z"/>
</g>
<g id="FRONT">
	<path class="st2" d="M193.4,3984.6c-2.5-1.7-5.9-1-7.6,1.5c-9.9,14.9-30.9,15.7-32,15.7c-0.2,0-0.3,0-0.5,0
		c-25.9,0-35.8,22.1-36.2,23c-1.2,2.8,0.1,6,2.8,7.2c0.7,0.3,1.5,0.5,2.2,0.5c2.1,0,4.1-1.2,5-3.3c0.1-0.2,6.9-15.4,24.4-16.4v28.3
		c-0.7,6.1-3.6,10.9-8.7,14.5c-5.3,3.7-12.4,5.6-21.1,5.6c-10.4,0-18.9-3.6-25.2-10.7c-6.4-7.1-9.6-17.2-9.6-30.2l0.1-31.2
		c0.5-11.5,3.6-20.6,9.5-27.1c6.4-7.1,14.8-10.7,25.2-10.7c8.7,0,15.8,1.9,21.1,5.6c5.3,3.7,8.3,8.8,8.8,15.4l0,0c0,0.2,0,0.5,0,0.7
		c0,3.8,3.1,6.9,6.9,6.9s6.9-3.1,6.9-6.9c0-0.2,0-0.5,0-0.7l0,0c-1-9.9-5.5-17.7-13.6-23.6s-18.2-8.8-30.4-8.8
		c-14.5,0-26.2,4.8-35.1,14.3c-8.4,8.9-12.8,20.6-13.3,35l0,0l0,0c0,1-0.1,2-0.1,3l0.1,28.1h-0.1c0,15.9,4.5,28.6,13.4,38.1
		s20.6,14.3,35.1,14.3c12.2,0,22.3-2.9,30.4-8.8c7.4-5.4,11.8-12.5,13.3-21.3l0.3-31.4c9.1-2.2,21.5-7.2,29.3-19
		C196.7,3989.7,196,3986.3,193.4,3984.6z"/>
	<path class="st2" d="M289.7,3663.1h76.7c3.4,0,6.2-2.8,6.2-6.2c0-3.4-2.8-6.2-6.2-6.2h-76.7c-3.4,0-6.2,2.8-6.2,6.2
		C283.5,3660.3,286.3,3663.1,289.7,3663.1z"/>
	<path class="st2" d="M-121.2,3663.1h76.7c3.4,0,6.2-2.8,6.2-6.2c0-3.4-2.8-6.2-6.2-6.2h-76.7c-3.4,0-6.2,2.8-6.2,6.2
		C-127.4,3660.3-124.7,3663.1-121.2,3663.1z"/>
	<circle class="st2" cx="370.3" cy="3719.1" r="6.2"/>
	<circle class="st2" cx="120.8" cy="3699.6" r="6.2"/>
	<path class="st2" d="M5.8,3719.2c0.1,0,0.2,0,0.3,0c23.3,0,33.7-14.6,41.6-28.2c2.6-4.5,12.2-19.5,25.8-23.4
		c16.8-4.9,34.7,2.9,41.7,18.2c1,2.2,3.2,3.5,5.4,3.6c0.1,0,0.2,0,0.3,0c0.1,0,0.2,0,0.4,0c2.2-0.1,4.4-1.4,5.4-3.6
		c7-15.3,24.9-23.1,41.7-18.2c13.6,4,23.2,18.9,25.8,23.4c7.9,13.7,18.3,28.2,41.9,28.2l0,0c14.2,0,31-10.6,35.7-30.9
		c3.9-16.8-3.3-32-19-39.7c-3.1-1.5-6.8-0.3-8.3,2.8c-1.5,3.1-0.3,6.8,2.8,8.3c14.9,7.4,13.6,20.5,12.4,25.8
		c-2.4,10.4-11.6,21.4-23.7,21.4c-15.5,0-22.9-7.8-31.2-22.1c-4.1-7-15.5-24-33-29.1c-19.1-5.6-39.3,1.1-50.9,15.8
		c-11.6-14.7-31.8-21.4-50.9-15.8c-17.5,5.1-28.9,22.1-33,29.1c-8.3,14.3-15.7,22.1-30.9,22.1c-0.1,0-0.2,0-0.2,0
		c-13.2-0.1-21.6-9.3-24-18.4c-1.2-4.3-3.7-19,13.1-29c2.9-1.7,3.9-5.5,2.1-8.5c-1.8-2.9-5.5-3.9-8.5-2.1
		c-19.3,11.5-22.3,29.7-18.7,42.9C-25.7,3708.1-11.2,3719.1,5.8,3719.2z"/>
	<polygon class="st2" points="121,4303 121.1,4303 121.1,4303 	"/>
	<circle class="st2" cx="-130.9" cy="3719.1" r="6.2"/>
	<circle class="st2" cx="-148.3" cy="3657" r="6.2"/>
	<circle class="st2" cx="392.3" cy="3657" r="6.2"/>
	<circle class="st2" cx="425.5" cy="4054.3" r="6.2"/>
	<circle class="st2" cx="400.6" cy="4196.1" r="6.2"/>
	<circle class="st2" cx="360.8" cy="4213.8" r="6.2"/>
	<path class="st2" d="M-7.1,3680.2c0,9.2,7.5,16.7,16.7,16.7s16.7-7.5,16.7-16.7s-7.5-16.7-16.7-16.7
		C0.4,3663.4-7.1,3670.9-7.1,3680.2z M9.6,3675.8c2.4,0,4.4,2,4.4,4.4c0,2.4-2,4.4-4.4,4.4s-4.4-2-4.4-4.4
		C5.2,3677.8,7.2,3675.8,9.6,3675.8z"/>
	<path class="st2" d="M234.6,3696.9c9.2,0,16.7-7.5,16.7-16.7s-7.5-16.7-16.7-16.7s-16.7,7.5-16.7,16.7S225.4,3696.9,234.6,3696.9z
		 M234.6,3675.8c2.4,0,4.4,2,4.4,4.4c0,2.4-2,4.4-4.4,4.4s-4.4-2-4.4-4.4C230.2,3677.8,232.2,3675.8,234.6,3675.8z"/>
	<path class="st2" d="M137.7,3690.6c-3.2,1.2-4.8,4.7-3.6,7.9c1.2,3.2,4.7,4.8,7.9,3.7c1-0.4,25-8.4,43.4,20.2
		c1.2,1.8,3.2,2.8,5.2,2.8c1.1,0,2.3-0.3,3.3-1c2.9-1.8,3.7-5.7,1.9-8.5C176.6,3686,149.4,3686.3,137.7,3690.6z"/>
	<path class="st2" d="M104.3,3690.6c-0.9-0.3-9.1-3.2-20.3-1.5c-10.4,1.5-25.3,7.4-37.7,26.7c-1.8,2.9-1,6.7,1.9,8.5
		c1,0.7,2.2,1,3.3,1c2,0,4-1,5.2-2.8c18.3-28.6,42.3-20.6,43.4-20.2c3.2,1.2,6.7-0.5,7.9-3.7
		C109.2,3695.4,107.5,3691.8,104.3,3690.6z"/>
	<path class="st2" d="M388.8,3707.5l30.1-34.2v49.3c0,3.4,2.8,6.2,6.2,6.2s6.2-2.8,6.2-6.2V3657c0-2.6-1.6-4.9-4-5.8
		c-2.4-0.9-5.1-0.2-6.8,1.7l-40.9,46.5c-2.3,2.6-2,6.5,0.6,8.7C382.6,3710.4,386.5,3710.1,388.8,3707.5z"/>
	<path class="st2" d="M-182.2,3728.9c3.4,0,6.2-2.8,6.2-6.2v-49.3l30.1,34.2c2.3,2.6,6.2,2.8,8.7,0.6c2.6-2.3,2.8-6.2,0.6-8.7
		l-40.9-46.6c-1.7-1.9-4.4-2.6-6.8-1.7c-2.4,0.9-4,3.2-4,5.8v65.7C-188.3,3726.1-185.6,3728.9-182.2,3728.9z"/>
	<path class="st2" d="M254.4,3735c-2.9-0.2-5.6,1.8-6.3,4.6c-0.7,2.9,0.7,5.9,3.3,7.1c9.8,4.6,18.7,6.4,26.7,6.4
		c15.3,0,27.5-6.7,36-13.7c13.6-11.2,20.6-25.3,20.9-25.9c1.4-2.9,0.4-6.4-2.4-8c-6.3-3.7-17.2-6-33.8,4.1
		c-8.3,5.1-14.7,11.2-15.8,12.3C267.8,3735.3,255.1,3735,254.4,3735z M291.3,3731.1c0.1-0.1,0.2-0.2,0.3-0.3
		c4.7-4.7,18-15.6,28.4-16.1c-3,4.3-7.5,10.1-13.6,15.2c-9,7.4-18.6,11-28.8,10.8C281.8,3738.5,286.5,3735.3,291.3,3731.1z"/>
	<path class="st2" d="M-87.6,3705.5c-2.8,1.6-3.8,5.1-2.4,8c0.3,0.6,7.3,14.7,20.9,25.9c8.5,7,20.6,13.7,36,13.7
		c8.1,0,17-1.8,26.7-6.4c2.7-1.3,4-4.2,3.3-7.1c-0.7-2.9-3.3-4.8-6.3-4.7c-0.5,0-13.3,0.4-28.5-13c-1.1-1.1-7.5-7.2-15.8-12.3
		C-70.3,3699.6-81.3,3701.9-87.6,3705.5z M-46.2,3731.1c4.7,4.2,9.4,7.3,13.7,9.6c-21.6,0.2-35.9-16.3-42.4-26
		c10.4,0.5,23.7,11.4,28.4,16.1C-46.4,3730.9-46.3,3731-46.2,3731.1z"/>
	<path class="st2" d="M432.8,4233.6c-6.2-5.2-13-8.2-19.3-9.9c2.4-1.8,4.7-3.9,6.7-6.2c15.3-18,15.4-44.5,0.2-61.7
		c-2.3-2.6-6.2-2.8-8.7-0.5c-2.6,2.3-2.8,6.2-0.5,8.7c11.1,12.6,10.9,32.1-0.4,45.5c-9.2,10.8-26.7,13.4-31.9,14
		c-15.7,1.7-33.3,5.3-42.8,26.8c-1.5,3.3-2.4,7-2.6,11c-2.2-0.7-4.6-1.1-7-1.1c-12.5,0-22.7,10.2-22.7,22.7
		c0,8.6,4.8,16.1,11.9,19.9c-2.1,1.9-4.1,4-5.9,6.4c-21-28.3-54.6-46.1-91.6-46.1c-5.3,0-10.6,0.4-15.7,1.1
		c30.4-9.3,58.7-23.8,84.5-43l0,0c33.3-24.9,61-57.4,80-93.9c20-38.4,30.1-79.9,30.1-123.1c0-0.3,0-0.5,0-0.8c0-0.1,0-0.1,0-0.2
		s0-0.2,0-0.3c-0.2-35.1-8-66.7-19.1-93.9c4.1,0.8,8,1.1,11.5,1.1c25.9,0,37.3-17.8,38.5-19.9l0,0c5.6-9.4,6.5-20.8,3.3-31.1
		c0.1-0.3,0.1-0.7,0.1-1.1v-112.7c0-3.4-2.8-6.2-6.2-6.2s-6.2,2.8-6.2,6.2v94.7c-10.5-9.1-25.7-10.1-32-10.1
		c-12.2,0.1-19.8-1.8-25.4-11.4c-4.7-8.1-2-16.5,2.7-21.3c5.9-6,14.3-6.8,22.5-2.3c3,1.6,6.8,0.6,8.4-2.4c1.6-3,0.6-6.8-2.4-8.4
		c-13-7.2-27.6-5.4-37.3,4.4c-9.6,9.8-11.4,24.3-4.6,36.1c8.9,15.3,22.4,17.5,35.7,17.5c0.2,0,0.3,0,0.5,0c4,0,16.9,0.6,24.3,7.6
		c9.6,9.1,12.1,23.4,5.8,34c0,0-0.1,0.1-0.1,0.2c-0.5,0.9-12.4,21.1-45.6,10.5c-10-21.2-21.6-39.2-32.4-53.6l-4.9,3.7l4.9-3.8
		l-2-2.6c-21.3-35.7,3.3-73.7,16.1-89.8l7.2-8.2l0,0l0,0l0,0c2.2-2.6,2-6.5-0.6-8.7c-2.5-2.1-6.1-2-8.4,0.3l0,0
		c-0.2,0.2-1.3,1.3-3,3.2c-11.1,11.3-54.5,51.3-96.6,30.4l-1.2-0.8l-0.6-0.4c-37.7-20.3-74.9-32-110.4-35
		c-4.6-10.5-10.7-18.5-18.4-18.5c-7.8,0-13.9,8.1-18.6,18.8c-49.7,2.2-111.5,34.3-114.1,35.6c-42.3,21.3-85.9-18.9-97-30.2
		c-1.7-1.9-2.9-3-3-3.2l0,0c-2.3-2.3-5.9-2.4-8.4-0.3c-2.6,2.2-2.8,6.1-0.6,8.7l0,0l0,0l0,0l7.7,8.7c4.5,5.6,10.2,13.7,15,23.4
		c12,24.3,12.2,46.4,0.7,65.8c-14.3,17.8-25.9,36.5-34.8,56.2c-33.5,10.9-45.5-9.5-46-10.4c0-0.1-0.1-0.1-0.1-0.2
		c-6.3-10.6-3.8-24.9,5.8-34c7.4-7,20.3-7.6,24.3-7.6h0.1c13.4,0,27.2-2.1,36.1-17.5c6.8-11.8,5-26.4-4.6-36.1
		c-9.7-9.9-24.3-11.6-37.3-4.4c-3,1.6-4.1,5.4-2.4,8.4c1.6,3,5.4,4.1,8.4,2.4c8.3-4.5,16.7-3.7,22.5,2.3c4.7,4.8,7.3,13.2,2.7,21.3
		c-5.5,9.5-13,11.4-25,11.4c-0.1,0-0.2,0-0.4,0c-5.5,0-18.3,0.8-28.5,7.4v-90.3c0-3.4-2.8-6.2-6.2-6.2c-3.4,0-6.2,2.8-6.2,6.2v104
		c-6.8,12.2-7.2,27.1-0.2,39.1c0.7,1.3,5,8.5,14.6,13.9c5.5,3.1,13.4,6,23.9,6c3.8,0,8-0.4,12.5-1.3c-10.8,29-16.2,60.2-16.4,94.2
		c0,0.1,0,0.1,0,0.2v0.1c0,0.3,0,0.6,0,0.8c0,61.4,21.6,121.7,60.8,169.8c34.7,42.6,81.9,74.2,134.2,90.3
		c-5.5-0.8-11.1-1.2-16.7-1.2c-36.7,0-70,17.5-91,45.4c-1.7-2.2-3.6-4.3-5.7-6.1c6.6-4,11.1-11.2,11.1-19.5
		c0-12.5-10.2-22.7-22.7-22.7c-2.3,0-4.5,0.4-6.6,1c-0.3-3.9-1.2-7.6-2.6-10.9c-9.6-21.5-27.1-25.1-42.8-26.8
		c-5.2-0.6-22.7-3.2-31.9-14c-11.6-13.1-11.8-32.6-0.7-45.2c2.3-2.6,2-6.5-0.5-8.7c-2.6-2.3-6.5-2-8.7,0.5
		c-15.1,17.2-15,43.7,0.2,61.7c2,2.4,4.3,4.4,6.7,6.2c-6.3,1.7-13.1,4.8-19.3,9.9c-14.7,12.1-22.2,32.3-22.4,59.8
		c-0.5,2.5,0.6,5.1,2.8,6.5c1,0.6,2.1,0.9,3.2,0.9c0.4,0,0.9-0.1,1.3-0.2h0.1c0.2,0,0.3-0.1,0.5-0.2c0.3-0.1,0.7-0.2,1-0.4
		c0.1,0,0.1-0.1,0.2-0.1c1-0.6,1.9-1.4,2.5-2.4c2.4-3.1,12.3-7,20.5-8.7c32.1-7,38.8-28.7,37.8-39.1c-0.3-3.4-3.3-5.9-6.7-5.6
		s-5.9,3.3-5.6,6.7c0,0.1,0.1,1.9-0.5,4.6c-1.5,6.2-7,16.9-27.6,21.4c-0.1,0-0.1,0-0.2,0c-2.4,0.5-9.6,2.2-16.3,5.3
		c1.8-17.8,7.5-30.8,17.2-38.9c14.9-12.4,34.6-8.9,34.8-8.8c0.7,0.1,1.3,0.1,1.9,0c3.3,0.7,6.1,1.1,8.2,1.3
		c16.5,1.8,26.6,5.4,32.9,19.5c4.9,11.1-1.4,23.9-9.9,30.3c-4.3,3.3-15.8,9.8-28.7-0.8c-2.6-2.2-6.5-1.8-8.7,0.8s-1.8,6.5,0.8,8.7
		c5.8,4.8,12.3,7.6,19,8.4c-8.6,7-14.4,15.8-17,20.4c-8.4,14.5-15.2,22.3-26.5,22.4V4302c0-3.4-2.8-6.2-6.2-6.2
		c-3.4,0-6.2,2.8-6.2,6.2v50.2c0,2.5,1.5,4.6,3.6,5.6c1.1,0.8,2.4,1.4,3.8,1.4h144c2.2,0,4-1.1,5.2-2.8c0.8-0.8,1.5-1.8,1.8-3
		c5.7-22.1,25.6-37.5,48.4-37.5c20.4,0,38.5,12.4,46.2,30.9H51.5c-5.4-13.3-18.4-22.2-33.1-22.2c-16.1,0-30.3,10.9-34.6,26.4
		c-0.9,3.3,1.1,6.7,4.3,7.6c3.3,0.9,6.7-1.1,7.6-4.3c2.8-10.2,12.1-17.3,22.6-17.3c7.8,0,14.8,3.8,19.1,9.8h-3.6
		c-3.4,0-6.2,2.8-6.2,6.2s2.8,6.2,6.2,6.2h12.5c0.2,0,0.5,0.1,0.7,0.1c0.3,0,0.6,0,0.8-0.1h24.8c3.4,0,6.2-2.8,6.2-6.2
		c0-0.3,0-0.6-0.1-0.9c0.1-0.8,0.1-1.7-0.1-2.6c-7.3-27.1-32.1-46-60.2-46c-27.2,0-51.1,17.6-59.4,43.3h-32.3
		c2.6-8.3,6.1-16,10.5-23.2c0.3-0.4,0.5-0.8,0.8-1.2c18.3-28.7,50.3-47.1,85.8-47.1c21,0,41.2,6.4,58.3,18.4c0.5,0.3,1,0.6,1.5,0.7
		c2.6,3.1,5.2,6.4,7.7,9.8c0.6,0.8,1.1,1.6,1.7,2.4c-0.6,12.7,6.3,26,20.6,39.6c0.5,1.5,1,2.8,1.3,3.8v1.3c0,3.4,2.8,6.2,6.2,6.2
		c2.9,0,5.2-1.9,5.9-4.6l0,0c0-0.1,0.9-3.1,2.7-8.1c12.9-12.6,19.3-24.9,19.2-36.8c0.8-1.2,1.7-2.5,2.6-3.7c2.8-3.8,5.7-7.5,8.7-11
		c17-11.8,36.9-18,57.7-18c44.8,0,84,29.2,97,71.5h-32.3c-8.2-25.7-32.1-43.3-59.4-43.3c-28.1,0-52.8,18.9-60.2,46c-0.3,1-0.3,2,0,3
		c0,0.2,0,0.3,0,0.5c0,3.4,2.8,6.2,6.2,6.2h54.2c3.4,0,6.2-2.8,6.2-6.2s-2.8-6.2-6.2-6.2h-19.7c4.3-6,11.3-9.8,19.1-9.8
		c10.7,0,20,7.2,22.7,17.6c0.7,2.8,3.2,4.6,6,4.6c0.5,0,1-0.1,1.5-0.2c3.3-0.8,5.3-4.2,4.5-7.5c-4.1-15.8-18.3-26.9-34.7-26.9
		c-14.6,0-27.6,8.9-33.1,22.2h-12.5c7.6-18.5,25.8-30.9,46.2-30.9c22.8,0,42.7,15.4,48.4,37.5c0.1,0.5,0.4,1,0.6,1.5
		c0.8,2.5,3.1,4.3,5.9,4.3H425c3.4,0,6.2-2.8,6.2-6.2c0-0.1,0-0.3,0-0.4s0-0.3,0-0.4v-1.2c0.1-0.6,0.1-1.2,0.1-1.8
		c0-0.1,0-0.2-0.1-0.3V4302c0-3.4-2.8-6.2-6.2-6.2s-6.2,2.8-6.2,6.2v42c-10.4-0.8-16.9-8.5-24.9-22.3c-2.6-4.4-8-12.7-16-19.5
		c5.5-1.2,10.8-3.8,15.7-7.9c2.6-2.2,3-6.1,0.8-8.7s-6.1-3-8.7-0.8c-12.8,10.6-24.3,4.1-28.7,0.8c-8.5-6.4-14.8-19.3-9.9-30.3
		c6.3-14.1,16.4-17.8,32.9-19.5c2.1-0.2,4.9-0.6,8.2-1.3c0.6,0.1,1.3,0.1,2,0c0.2,0,19.7-3.6,34.7,8.8c9.8,8.1,15.6,21.1,17.3,39
		c-6.8-3.2-14.1-4.9-16.4-5.4c-0.1,0-0.1,0-0.2,0c-20.5-4.5-26.1-15.1-27.6-21.3c-0.6-2.6-0.6-4.4-0.5-4.6c0.3-3.4-2.2-6.4-5.6-6.7
		c-3.4-0.3-6.4,2.2-6.7,5.6c-1,10.5,5.7,32.1,37.9,39.1c8.3,1.8,18.8,5.9,20.7,9c0,0,0,0.1,0.1,0.1c0.3,0.4,0.6,0.8,0.9,1.1
		c0.1,0.1,0.2,0.1,0.3,0.2c0.3,0.2,0.6,0.5,0.9,0.6c0.1,0.1,0.3,0.2,0.4,0.2c0.3,0.2,0.6,0.3,0.9,0.4c0.1,0,0.3,0.1,0.4,0.1
		c0.4,0.1,0.9,0.2,1.4,0.2l0,0c0.4,0,0.7,0,1.1-0.1c0.1,0,0.2,0,0.3-0.1c0.3-0.1,0.6-0.2,1-0.3h0.1c0.3-0.1,0.5-0.3,0.8-0.4l0.1-0.1
		c0.2-0.1,0.4-0.3,0.5-0.4s0.3-0.2,0.4-0.4c0.1-0.1,0.3-0.3,0.4-0.4c0.1-0.2,0.3-0.3,0.4-0.5c0.1-0.2,0.2-0.3,0.3-0.5
		c0.1-0.2,0.2-0.3,0.3-0.5c0.1-0.2,0.1-0.4,0.2-0.6c0.1-0.2,0.1-0.4,0.2-0.6c0-0.2,0.1-0.4,0.1-0.5c0-0.2,0.1-0.4,0.1-0.7v-0.1
		C455.3,4266.4,447.7,4245.9,432.8,4233.6z M-86.1,4346.7h-65.1c5.5-5.6,9.4-12.3,12.4-17.5c2.6-4.5,12.2-19.5,25.8-23.4
		c16-4.7,31,0.8,38.4,13.5C-79.5,4327.8-83.4,4337-86.1,4346.7z M-84.4,4293c-5.7,0-10.3-4.6-10.3-10.3c0-5.7,4.6-10.3,10.3-10.3
		s10.3,4.6,10.3,10.3C-74.1,4288.4-78.8,4293-84.4,4293z M282.2,4214.9L282.2,4214.9l0.9,1.1L282.2,4214.9z M282.4,4208.7
		c-58.4-6.8-100.6,18.3-125.8,40.5c-10.9,9.6-19.5,19.5-26,27.9c-1.2-0.8-2.3-1.6-3.3-2.1v-17.6c47.3-47.5,94.3-61.7,125.5-65.2
		c20.7-2.3,37.4-0.4,47.4,1.5C294.5,4199,288.6,4204,282.4,4208.7z M355.7,4121.5c-6,11.5-12.9,22.5-20.5,33.1
		c-7.9-2.5-17.8-4.8-29.7-5.9c26.5-33.6,43.3-73.7,48.7-116c8.6-1,20.5-4.7,29.6-10.6C381.4,4056.8,372,4090.2,355.7,4121.5z
		 M313.6,4009.9l7.2-0.3c2.4,10.7,10.5,19.3,21.1,22.2c-5.6,42.8-23.4,83.2-51.8,116.2c-13.7,0-29.6,1.6-47.6,5.5
		C284.5,4119.3,311.9,4067.8,313.6,4009.9z M196.1,4167.9c-4,1.6-6.8,2.9-8.2,3.5c-16.6,6.6-34.4,10.9-53,12.3l165.9-165.9
		C295.8,4084.6,254.2,4141.2,196.1,4167.9z M384.4,4003.2c-0.2,5.6-15.5,14.7-29,16.9c-1.9,0.3-3.8,0.5-5.6,0.5
		c-2.4,0-4.7-0.5-6.8-1.4c-6.3-2.7-10.7-8.9-10.7-16.1c0-7.2,4.4-13.4,10.7-16.1c2.1-0.9,4.4-1.4,6.8-1.4c1.8,0,3.7,0.2,5.6,0.5
		c13.5,2.2,28.7,11.3,29,16.8C384.4,4003,384.4,4003.1,384.4,4003.2z M326.5,3845l2.6,3.5l0,0c22.7,30.3,49.3,77.2,54.4,135.6
		c-9-5.8-20.8-9.5-29.3-10.5c-6.4-50.6-28.9-96.3-62.2-131.6c1.4-2.9,2.2-6.2,2.2-9.6c0-4.6-1.4-8.9-3.7-12.4l28.4-32.4
		C313.5,3808.2,316.1,3827.7,326.5,3845z M243.6,3774.9l1.3,0.9l0.7,0.4c9.9,5,20.5,7.5,31.5,7.5c11.6,0,23.7-2.8,35.9-8.4l-32,36.5
		c-2.9-1.4-6.1-2.1-9.6-2.1c-4.5,0-8.6,1.3-12.1,3.5c-31.5-23-68.8-38.3-109.4-43.3c-1-7.3-3-17.7-6-27.9
		C176,3745.6,209.5,3756.6,243.6,3774.9z M281.8,3832.4c0,4.5-3,8.4-7.1,9.8c-1,0.3-2.1,0.5-3.2,0.5c-0.3,0-0.7,0-1,0
		c-4.6-0.4-8.3-3.9-9.1-8.3c-0.1-0.6-0.2-1.3-0.2-1.9c0-0.7,0.1-1.3,0.2-2c0.9-4.5,4.7-8,9.4-8.3c0.2,0,0.5,0,0.7,0s0.4,0,0.6,0
		c4.6,0.3,8.5,3.6,9.5,8c0.1,0.6,0.2,1.1,0.2,1.7C281.7,3832,281.8,3832.2,281.8,3832.4z M150.4,3782.5
		c37.2,4.9,71.6,19.1,100.7,40.1c-1.5,3-2.3,6.3-2.3,9.9c0,4.5,1.3,8.6,3.6,12.2l-49.8,56.8c-2.3,2.6-2,6.5,0.6,8.7
		c1.2,1,2.6,1.5,4.1,1.5c1.7,0,3.4-0.7,4.7-2.1l49.7-56.7c3,1.5,6.3,2.3,9.9,2.3c4.6,0,8.8-1.4,12.3-3.7c31,33.2,51.9,75.8,58.1,123
		c-10.7,3-19,11.8-21.2,22.8l-7.1,0.3c-1.5-45.7-19.2-89.3-50.1-123.2c-2.3-2.5-6.2-2.7-8.7-0.4s-2.7,6.2-0.4,8.7
		c27.2,29.8,43.4,67.6,46.5,107.6l-66.5-66.3c-2.4-2.4-6.3-2.4-8.7,0c-2.4,2.4-2.4,6.3,0,8.7l71.4,71.4l-176,176l-176-176l70.8-70.8
		c2.4-2.4,2.4-6.3,0-8.7c-2.4-2.4-6.3-2.4-8.7,0l-65.7,65.7c3.5-45.5,23.9-86.4,55-116.2l31,35.4c1.2,1.4,2.9,2.1,4.7,2.1
		c1.4,0,2.9-0.5,4.1-1.5c2.6-2.3,2.8-6.2,0.6-8.7l-31.1-35.5c28-23.4,63.1-38.5,101.6-41.4l-52.8,52.3c-2.4,2.4-2.4,6.3,0,8.7
		c1.2,1.2,2.8,1.8,4.4,1.8s3.1-0.6,4.4-1.8l58-57.4l56.3,56.3c2.4,2.4,6.3,2.4,8.7,0c2.4-2.4,2.4-6.3,0-8.7l-51.2-51.2
		c31.7,2.4,61.9,13,88.2,31.1c2.8,1.9,6.7,1.2,8.6-1.6s1.2-6.7-1.6-8.6c-30.4-20.9-65.8-32.5-102.8-33.6v-4.4
		C139.3,3804.6,148.6,3794.7,150.4,3782.5z M-30.3,3856.8c3.5,0,6.8-0.8,9.7-2.2l8.9,10.2c-35.3,33.7-57.8,80.6-59.6,132.7l-5-0.3
		c-2.4-11.7-11.5-20.9-23.2-23.3c6.1-46.3,26.5-88.1,56.5-120.9C-39.3,3855.4-35,3856.8-30.3,3856.8z M-40.6,3834.2
		c0-0.5,0-0.9,0.1-1.4c0-0.3,0.1-0.5,0.1-0.8c0.9-4.4,4.7-7.8,9.3-8.1c0.2,0,0.4,0,0.5,0s0.1,0,0.2,0c4.7,0,8.7,3.2,9.9,7.6
		c0.2,0.9,0.4,1.8,0.4,2.7c0,0.7-0.1,1.4-0.2,2.1c-0.9,4.4-4.7,7.8-9.3,8.1c-0.3,0-0.5,0-0.8,0c-1.3,0-2.6-0.3-3.7-0.7
		C-37.8,3842.3-40.6,3838.5-40.6,3834.2z M-76.4,4009.6l5.1,0.3c1.7,58,29.2,109.6,71.3,143.8c-18.1-4-34-5.6-47.8-5.7
		c-28.2-32.9-46.1-73.1-51.7-115.7C-88,4029.9-78.9,4021-76.4,4009.6z M-58.5,4017.8l165.9,165.9C19,4177-51.8,4106.2-58.5,4017.8z
		 M104.2,3768.8c2.7-18.7,11.9-43.7,16.7-45.7c5.5,2.1,14,28,16.6,45.6c0.5,3.5,0.8,6.7,0.8,9.3c0,1.1-0.1,2.1-0.3,3.1
		c-1.5,8.1-8.6,14.3-17.2,14.3s-15.7-6.2-17.2-14.3c-0.2-1-0.3-2.1-0.3-3.1C103.4,3775.3,103.7,3772.2,104.2,3768.8z M115,3807.3
		v4.3c-44.6,1.4-85.4,18.1-117.4,44.9l-8.8-10.1c2.3-3.5,3.7-7.8,3.7-12.3c0-3.8-1-7.4-2.6-10.5c29.3-21.5,64-36,101.7-41.1
		C93.3,3794.9,102.8,3804.9,115,3807.3z M-37.7,3783.7c11,0,21.6-2.5,31.6-7.5c0.6-0.3,57.7-30,103.9-34c-3,10.1-5,20.6-6,27.8
		c-41.1,5.1-79,21-110.7,44.6c-3.4-2-7.2-3.1-11.4-3.1c-3.5,0-6.8,0.8-9.7,2.2l-33.6-38.3C-61.3,3780.9-49.3,3783.7-37.7,3783.7z
		 M-87.6,3845.6l0.5-0.7c10.4-17.2,13-36.8,7.8-57.4l30,34.3c-2.3,3.5-3.7,7.8-3.7,12.3c0,3.3,0.7,6.4,2,9.3
		c-32.7,35.2-54.7,80.4-61,130.4c-8.9,1.4-20.7,5.2-29.6,10.9C-138.1,3931.9-120.4,3886.2-87.6,3845.6z M-142.1,4003
		c0.2-5.8,16.3-13.8,29-16.4c2.8-0.6,5.4-0.9,7.6-0.9c1.7,0,3.2,0.2,4.8,0.7c7.3,2.1,12.7,8.8,12.7,16.8s-5.4,14.7-12.7,16.8
		c-1.5,0.4-3.1,0.7-4.8,0.7c-2.3,0-4.9-0.3-7.6-0.9c-12.7-2.7-28.8-10.7-29-16.5C-142.1,4003.1-142.1,4003.1-142.1,4003z
		 M-141.5,4021.4c8.9,5.8,20.8,9.6,29.6,11c5.3,42.4,22.1,82.6,48.7,116.2c-11.9,1.1-21.8,3.3-29.8,5.8
		C-121.7,4115-138.3,4069.5-141.5,4021.4z M-84.1,4166c-0.3-0.4-0.6-0.7-0.9-1.1c30.1-8.3,63-3.9,86.1,1.6
		c27.9,6.7,48.3,16.4,48.5,16.5l0.1-0.2c22.1,8.8,46.2,13.7,71.4,13.7c25.1,0,49.1-4.8,71.1-13.6l0,0c0,0,0.2-0.1,0.6-0.3
		c2.6-1.1,5.3-2.2,7.8-3.4c8.5-3.5,22.8-8.7,40-12.8c23.3-5.6,56.3-10,86.4-1.6c-5.2,6.4-10.6,12.5-16.4,18.4
		c-8.4-2.3-29.8-6.7-58.7-3.6c-31.4,3.4-77.6,16.8-124.8,60.4v-10.9c0-3.4-2.8-6.2-6.2-6.2s-6.2,2.8-6.2,6.2v10.3
		c-46.9-43.1-92.9-56.4-124.1-59.8c-29.6-3.2-51.3,1.6-59.2,3.8C-73.8,4178-79.1,4172.1-84.1,4166z M-57.8,4193.8
		c10-2,26.9-4,48-1.6c55.5,6.2,98.1,37.9,124.8,64.5v18.1c-0.9,0.5-1.9,1.1-3,1.9c-6.5-8.3-15-18-25.7-27.4
		c-25.2-22.3-67.6-47.5-126.2-40.5v0.1C-46.1,4204.1-52.1,4199.1-57.8,4193.8z M97.5,4291.8c-11.7-15-24.5-26.3-37.3-34.8l0.1-0.3
		c-0.3-0.1-0.6-0.2-0.9-0.2c-21.3-13.9-42.7-20-59.9-22.5c-8.1-4.2-16.1-8.9-23.8-14c37.7-1.1,71.9,11.7,102.1,38.2
		c10.4,9.1,18.6,18.5,24.8,26.6C100.7,4286.9,99,4289.2,97.5,4291.8z M127.4,4329.3c-1.5,1.8-3.1,3.6-4.9,5.4
		c-0.4,0.4-0.9,0.9-1.4,1.3l-0.1,0.1l-0.1,0.1v-0.2c-0.2-0.2-0.5-0.4-0.7-0.7c-2-1.9-3.7-3.8-5.3-5.7c-7.3-8.7-10.5-16.8-9.4-24.2
		c0.1-0.6,0.2-1.2,0.4-1.8c0.8-3.2,2.3-6,4.1-8.4c1.5-2,3.2-3.7,4.9-5.2c1.5-1.3,3-2.4,4.3-3.3c0.6-0.4,1.1-0.7,1.6-1
		c0,0,0.1,0,0.1-0.1h0.1c0.7,0.4,1.4,0.9,2.3,1.5c1.2,0.8,2.6,1.9,4,3.1c1.8,1.6,3.6,3.5,5.1,5.6c1.8,2.6,3.3,5.5,3.9,8.8
		c0,0.2,0.1,0.5,0.2,0.7C137.6,4312.6,134.5,4320.6,127.4,4329.3z M151.8,4284.2c-0.2,0.2-0.4,0.4-0.5,0.6c-2.3,2.6-4.4,5.2-6.3,7.7
		c-1.5-2.6-3.2-5-5-7.1c6.2-8.1,14.6-17.8,25.2-27.1c30-26.4,64.1-39.2,101.5-38.3c-7.8,5.1-15.8,9.9-24,14.1
		C199.9,4240.6,170.6,4262.8,151.8,4284.2z M326.3,4272.4c5.7,0,10.3,4.6,10.3,10.3c0,5.7-4.6,10.3-10.3,10.3s-10.3-4.6-10.3-10.3
		C316,4277.1,320.6,4272.4,326.3,4272.4z M357.5,4304.5c13.6,4,23.2,18.9,25.8,23.4c3.2,5.6,7.5,13,13.8,18.8H328
		c-2.6-9.4-6.3-18.3-11-26.5C324.6,4306.6,341.6,4299.8,357.5,4304.5z"/>
	<path class="st2" d="M-169.4,3870.1c0,10.1,8.2,18.4,18.4,18.4c10.2,0,18.4-8.2,18.4-18.4c0-10.1-8.2-18.4-18.4-18.4
		C-161.2,3851.7-169.4,3860-169.4,3870.1z M-145,3870.1c0,3.3-2.7,6-6,6s-6-2.7-6-6c0-3.3,2.7-6,6-6S-145,3866.8-145,3870.1z"/>
	<path class="st2" d="M409.7,3870.1c0-10.1-8.2-18.4-18.4-18.4c-10.1,0-18.4,8.2-18.4,18.4c0,10.1,8.2,18.4,18.4,18.4
		S409.7,3880.3,409.7,3870.1z M385.3,3870.1c0-3.3,2.7-6,6-6s6,2.7,6,6c0,3.3-2.7,6-6,6C388,3876.2,385.3,3873.5,385.3,3870.1z"/>
	<path class="st2" d="M427.4,3915.9c-2.3-0.9-5-0.4-6.8,1.4c-8.1,8.3-21.4,8-21.6,8c-0.1,0-0.2,0-0.2,0c-3.3,0-6,2.6-6.2,5.9
		c-0.1,3.4,2.5,6.3,5.9,6.4c0.6,0,10.4,0.3,20.4-4.3v100.9c0,3.4,2.8,6.2,6.2,6.2s6.2-2.8,6.2-6.2v-112.6
		C431.2,3919.1,429.7,3916.8,427.4,3915.9z"/>
	<path class="st2" d="M-183.3,4040.4c3.4,0,6.2-2.8,6.2-6.2v-100.9c10,4.6,19.8,4.3,20.4,4.3c3.4-0.1,6.1-3,5.9-6.4
		c-0.1-3.4-3-6.1-6.4-5.9c-0.1,0-13.5,0.3-21.6-8c-1.8-1.8-4.4-2.3-6.8-1.4c-2.3,0.9-3.8,3.2-3.8,5.7v112.7
		C-189.5,4037.7-186.7,4040.4-183.3,4040.4z"/>
	<path class="st2" d="M432.3,4143.3c0-3.4-2.8-6.2-6.2-6.2h-40c-3.4,0-6.2,2.8-6.2,6.2c0,3.4,2.8,6.2,6.2,6.2h40
		C429.5,4149.5,432.3,4146.8,432.3,4143.3z"/>
	<path class="st2" d="M390.8,4167c3.4,0,6.2-2.8,6.2-6.2c0-3.4-2.8-6.2-6.2-6.2h-15.4c-3.4,0-6.2,2.8-6.2,6.2c0,3.4,2.8,6.2,6.2,6.2
		H390.8z"/>
	<path class="st2" d="M405.8,4178.4c0-3.4-2.8-6.2-6.2-6.2h-38.2c-3.4,0-6.2,2.8-6.2,6.2s2.8,6.2,6.2,6.2h38.2
		C403,4184.6,405.8,4181.9,405.8,4178.4z"/>
	<path class="st2" d="M381.6,4196.1c0-3.4-2.8-6.2-6.2-6.2h-29.9c-3.4,0-6.2,2.8-6.2,6.2c0,3.4,2.8,6.2,6.2,6.2h29.9
		C378.8,4202.3,381.6,4199.5,381.6,4196.1z"/>
	<path class="st2" d="M326.1,4207.6c-3.4,0-6.2,2.8-6.2,6.2c0,3.4,2.8,6.2,6.2,6.2h17c3.4,0,6.2-2.8,6.2-6.2c0-3.4-2.8-6.2-6.2-6.2
		H326.1z"/>
	<path class="st2" d="M426.1,4101.8h-22.3c-3.4,0-6.2,2.8-6.2,6.2s2.8,6.2,6.2,6.2h22.3c3.4,0,6.2-2.8,6.2-6.2
		S429.5,4101.8,426.1,4101.8z"/>
	<path class="st2" d="M426.1,4119.5H395c-3.4,0-6.2,2.8-6.2,6.2c0,3.4,2.8,6.2,6.2,6.2h31.1c3.4,0,6.2-2.8,6.2-6.2
		C432.3,4122.3,429.5,4119.5,426.1,4119.5z"/>
	<path class="st2" d="M426.1,4066.5h-9.9c-3.4,0-6.2,2.8-6.2,6.2c0,3.4,2.8,6.2,6.2,6.2h9.9c3.4,0,6.2-2.8,6.2-6.2
		C432.3,4069.3,429.5,4066.5,426.1,4066.5z"/>
	<path class="st2" d="M426.1,4084.2h-15.2c-3.4,0-6.2,2.8-6.2,6.2c0,3.4,2.8,6.2,6.2,6.2h15.2c3.4,0,6.2-2.8,6.2-6.2
		C432.3,4087,429.5,4084.2,426.1,4084.2z"/>
	<circle class="st2" cx="-183.5" cy="4054.6" r="6.2"/>
	<circle class="st2" cx="-158.5" cy="4196.3" r="6.2"/>
	<circle class="st2" cx="-118.7" cy="4214" r="6.2"/>
	<path class="st2" d="M-184.1,4149.7h40c3.4,0,6.2-2.8,6.2-6.2s-2.8-6.2-6.2-6.2h-40c-3.4,0-6.2,2.8-6.2,6.2
		C-190.3,4147-187.5,4149.7-184.1,4149.7z"/>
	<path class="st2" d="M-133.4,4154.9h-15.4c-3.4,0-6.2,2.8-6.2,6.2s2.8,6.2,6.2,6.2h15.4c3.4,0,6.2-2.8,6.2-6.2
		C-127.2,4157.7-130,4154.9-133.4,4154.9z"/>
	<path class="st2" d="M-119.4,4172.5h-38.2c-3.4,0-6.2,2.8-6.2,6.2c0,3.4,2.8,6.2,6.2,6.2h38.2c3.4,0,6.2-2.8,6.2-6.2
		C-113.2,4175.2-116,4172.5-119.4,4172.5z"/>
	<path class="st2" d="M-103.5,4190.1h-29.9c-3.4,0-6.2,2.8-6.2,6.2c0,3.4,2.8,6.2,6.2,6.2h29.9c3.4,0,6.2-2.8,6.2-6.2
		C-97.3,4192.9-100.1,4190.1-103.5,4190.1z"/>
	<path class="st2" d="M-107.3,4214c0,3.4,2.8,6.2,6.2,6.2h17c3.4,0,6.2-2.8,6.2-6.2s-2.8-6.2-6.2-6.2h-17
		C-104.5,4207.8-107.3,4210.6-107.3,4214z"/>
	<path class="st2" d="M-184.1,4114.4h22.3c3.4,0,6.2-2.8,6.2-6.2c0-3.4-2.8-6.2-6.2-6.2h-22.3c-3.4,0-6.2,2.8-6.2,6.2
		C-190.3,4111.6-187.5,4114.4-184.1,4114.4z"/>
	<path class="st2" d="M-184.1,4132.1h31.1c3.4,0,6.2-2.8,6.2-6.2s-2.8-6.2-6.2-6.2h-31.1c-3.4,0-6.2,2.8-6.2,6.2
		S-187.5,4132.1-184.1,4132.1z"/>
	<path class="st2" d="M-184.1,4079.1h9.9c3.4,0,6.2-2.8,6.2-6.2c0-3.4-2.8-6.2-6.2-6.2h-9.9c-3.4,0-6.2,2.8-6.2,6.2
		C-190.3,4076.3-187.5,4079.1-184.1,4079.1z"/>
	<path class="st2" d="M-184.1,4096.7h15.2c3.4,0,6.2-2.8,6.2-6.2c0-3.4-2.8-6.2-6.2-6.2h-15.2c-3.4,0-6.2,2.8-6.2,6.2
		C-190.3,4094-187.5,4096.7-184.1,4096.7z"/>
	<path class="st2" d="M121,4336.1L121,4336.1c0.1-0.1,0-0.1,0-0.2V4336.1z"/>
	<path class="st2" d="M402.2,3771.7C402.3,3771.7,402.3,3771.7,402.2,3771.7c2.8,0,5.3-1.9,6-4.7c2.2-8.8,1.3-16.3-2.9-22.5
		c-6.7-10-19-11.9-20.4-12.1c-3.2-0.4-6.2,1.6-6.9,4.8c-2.3,10.5-1,18.9,4,25.1C389.4,3771.3,401,3771.6,402.2,3771.7z
		 M395.2,3751.5c1.2,1.9,1.9,4.1,1.9,6.7c-1.8-0.7-3.8-1.8-5.2-3.6c-1.6-2-2.4-4.6-2.4-7.9C391.5,3747.7,393.7,3749.3,395.2,3751.5z
		"/>
	<path class="st2" d="M362,3682.3c-6.7-10-19-11.9-20.4-12.1c-3.2-0.4-6.2,1.6-6.9,4.8c-2.3,10.5-1,18.9,4,25.1
		c7.2,9,18.8,9.3,20.1,9.3l0,0c2.8,0,5.3-1.9,6-4.7C367.1,3696.1,366.2,3688.5,362,3682.3z M348.5,3692.4c-1.6-2-2.4-4.6-2.4-7.9
		c2.1,1,4.3,2.6,5.7,4.8c1.2,1.9,1.9,4.1,1.9,6.7C351.9,3695.3,349.9,3694.2,348.5,3692.4z"/>
	<path class="st2" d="M-141.7,3732.4c-1.4,0.2-13.6,2.1-20.4,12.1c-4.1,6.2-5.1,13.7-2.9,22.5c0.7,2.7,3.2,4.7,6,4.7l0,0
		c1.3,0,12.9-0.3,20.1-9.3c5-6.2,6.3-14.7,4-25.1C-135.5,3734.1-138.5,3732-141.7,3732.4z M-148.4,3754.6c-1.4,1.8-3.4,2.9-5.3,3.6
		c0-2.6,0.7-4.9,1.9-6.7c1.5-2.2,3.7-3.8,5.7-4.8C-146.1,3750-146.9,3752.6-148.4,3754.6z"/>
	<path class="st2" d="M-99.3,3670.2c-1.4,0.2-13.6,2.1-20.4,12.1c-4.1,6.2-5.1,13.7-2.9,22.5c0.7,2.7,3.2,4.7,6,4.7l0,0
		c1.3,0,12.9-0.3,20.1-9.3c5-6.2,6.3-14.7,4-25.1C-93.2,3671.9-96.1,3669.8-99.3,3670.2z M-106.1,3692.4c-1.4,1.8-3.4,2.9-5.3,3.6
		c0-2.6,0.7-4.9,1.9-6.7c1.5-2.2,3.7-3.8,5.7-4.8C-103.8,3687.8-104.5,3690.4-106.1,3692.4z"/>
	<path class="st2" d="M316.1,3961c0.4,3.2,3,5.5,6.1,5.5c0.2,0,0.5,0,0.7,0c3.4-0.4,5.8-3.5,5.4-6.9c-6.2-54-43.1-92.2-44.7-93.8
		c-2.4-2.4-6.3-2.5-8.7-0.1c-2.4,2.4-2.5,6.3-0.1,8.7C275.2,3874.8,310.4,3911.3,316.1,3961z"/>
	<path class="st2" d="M-79.9,3966.4c0.2,0,0.5,0,0.7,0c3.1,0,5.8-2.3,6.1-5.5c5.7-49.7,40.9-86.2,41.2-86.5c2.4-2.4,2.3-6.4-0.1-8.7
		c-2.4-2.4-6.4-2.4-8.7,0.1c-1.6,1.6-38.4,39.8-44.7,93.8C-85.7,3963-83.3,3966-79.9,3966.4z"/>
</g>
<path class="st3" d="M-269.6,4616.2c6.7,0,12.3,2.4,17,7.1c4.7,4.7,7.1,10.4,7.1,17v83.3h-85.2c-6.7,0-12.3-2.4-17-7.1
	s-7.1-10.4-7.1-17v-39.7h89.2v-19.7c0-1.2-0.3-2-1.2-2.9c-0.8-0.8-1.7-1.2-2.9-1.2h-85.2v-20H-269.6L-269.6,4616.2z M-265.6,4703.6
	v-23.7h-69.2v19.7c0,1.2,0.3,2,1.2,2.9c0.8,0.8,1.7,1.2,2.9,1.2H-265.6L-265.6,4703.6z M-72.9,4616.2h21.3l-40.3,107.4h-16.3
	l-36.1-79.8l-34.1,79.8l-0.3-0.2l0.2,0.2h-16.1l-42.2-107.4h21.2l29.1,71.2l30.9-71.2h22.9l32.8,71.2L-72.9,4616.2z M40,4616.2
	c6.7,0,12.3,2.4,17,7.1c4.7,4.7,7.1,10.4,7.1,17v39.7h-89.2v19.7c0,1.2,0.3,2,1.2,2.9c0.8,0.8,1.7,1.2,2.9,1.2H64v20h-85.2
	c-6.7,0-12.3-2.4-17-7.1s-7.1-10.4-7.1-17v-59.3c0-6.7,2.4-12.3,7.1-17s10.4-7.1,17-7.1H40L40,4616.2z M-25.2,4659.9h69.2v-19.7
	c0-1.2-0.3-2-1.2-2.9c-0.8-0.8-1.7-1.2-2.9-1.2h-61.2c-1.2,0-2,0.3-2.9,1.2c-0.8,0.8-1.2,1.7-1.2,2.9L-25.2,4659.9L-25.2,4659.9z
	 M191.6,4640.4v4h-20v-4c0-1.2-0.3-2-1.2-2.9c-0.8-0.8-1.7-1.2-2.9-1.2h-61.2c-1.2,0-2,0.3-2.9,1.2c-0.8,0.8-1.2,1.7-1.2,2.9v15.6
	c0,1.2,0.3,2,1.2,2.9c0.8,0.8,1.7,1.2,2.9,1.2h61.2c6.7,0,12.3,2.4,17,7.1c4.7,4.7,7.1,10.4,7.1,17v15.6c0,6.7-2.4,12.3-7.1,17
	c-4.7,4.7-10.4,7.1-17,7.1h-61.2c-6.7,0-12.3-2.4-17-7.1c-4.7-4.7-7.1-10.4-7.1-17v-4h20v4c0,1.2,0.3,2,1.2,2.9
	c0.8,0.8,1.7,1.2,2.9,1.2h61.2c1.2,0,2-0.3,2.9-1.2c0.8-0.8,1.2-1.7,1.2-2.9v-15.6c0-1.2-0.3-2-1.2-2.9c-0.8-0.8-1.7-1.2-2.9-1.2
	h-61.2c-6.7,0-12.3-2.4-17-7.1c-4.7-4.7-7.1-10.4-7.1-17v-15.6c0-6.7,2.4-12.3,7.1-17c4.7-4.7,10.4-7.1,17-7.1h61.2
	c6.7,0,12.3,2.4,17,7.1C189.2,4628,191.6,4633.7,191.6,4640.4z M233.9,4616.2h61.2c6.7,0,12.3,2.4,17,7.1c4.7,4.7,7.1,10.4,7.1,17
	v59.3c0,6.7-2.4,12.3-7.1,17c-4.7,4.7-10.4,7.1-17,7.1h-61.2c-6.7,0-12.3-2.4-17-7.1c-4.7-4.7-7.1-10.4-7.1-17v-59.3
	c0-6.7,2.4-12.3,7.1-17C221.7,4618.6,227.4,4616.2,233.9,4616.2L233.9,4616.2z M295.1,4636.2h-61.2c-1.2,0-2,0.3-2.9,1.2
	c-0.8,0.8-1.2,1.7-1.2,2.9v59.3c0,1.2,0.3,2,1.2,2.9c0.8,0.8,1.7,1.2,2.9,1.2h61.2c1.2,0,2-0.3,2.9-1.2c0.8-0.8,1.2-1.7,1.2-2.9
	v-59.3c0-1.2-0.3-2-1.2-2.9C297.1,4636.7,296.3,4636.2,295.1,4636.2z M475.7,4616.2c6.7,0,12.3,2.4,17,7.1c4.7,4.7,7.1,10.4,7.1,17
	v83.3h-19.8v-83.3c0-1.2-0.3-2-1.2-2.9c-0.8-0.8-1.8-1.2-3-1.2h-42.3c-1.2,0-2,0.3-2.9,1.2c-0.8,0.8-1.2,1.7-1.2,2.9v83.3h-20v-83.3
	c0-1.2-0.3-2-1.2-2.9c-0.8-0.8-1.7-1.2-2.9-1.2h-42.5c-1.2,0-2,0.3-2.9,1.2c-0.8,0.8-1.2,1.7-1.2,2.9v83.3h-20v-107.4H475.7z
	 M604.2,4616.2c6.7,0,12.3,2.4,17,7.1c4.7,4.7,7.1,10.4,7.1,17v39.7H539v19.7c0,1.2,0.3,2,1.2,2.9c0.8,0.8,1.7,1.2,2.9,1.2h85.2v20
	h-85.2c-6.7,0-12.3-2.4-17-7.1c-4.7-4.7-7.1-10.4-7.1-17v-59.3c0-6.7,2.4-12.3,7.1-17c4.7-4.7,10.4-7.1,17-7.1H604.2L604.2,4616.2z
	 M539,4659.9h69.2v-19.7c0-1.2-0.3-2-1.2-2.9c-0.8-0.8-1.7-1.2-2.9-1.2h-61.2c-1.2,0-2,0.3-2.9,1.2c-0.8,0.8-1.2,1.7-1.2,2.9
	L539,4659.9L539,4659.9z"/>
<path class="st4" d="M628.1,4226.2l-252-231.2l-35.5,38.6l210,192.5h-827.8l210-192.7l-35.5-38.6l-252,231.4h-0.2v152.4
	c0,68.9,66.4,125,147.9,125h155.4c81.5,0,147.9-56.1,147.9-125v-100.1H177v100.1c0,68.9,66.4,125,147.9,125h155.4
	c81.5,0,147.9-56.1,147.9-125V4226.2z"/>
<g id="FRONT_1_">
	<path class="st2" d="M193.4,3984.6c-2.5-1.7-5.9-1-7.6,1.5c-9.9,14.9-30.9,15.7-32,15.7c-0.2,0-0.3,0-0.5,0
		c-25.9,0-35.8,22.1-36.2,23c-1.2,2.8,0.1,6,2.8,7.2c0.7,0.3,1.5,0.5,2.2,0.5c2.1,0,4.1-1.2,5-3.3c0.1-0.2,6.9-15.4,24.4-16.4v28.3
		c-0.7,6.1-3.6,10.9-8.7,14.5c-5.3,3.7-12.4,5.6-21.1,5.6c-10.4,0-18.9-3.6-25.2-10.7c-6.4-7.1-9.6-17.2-9.6-30.2l0.1-31.2
		c0.5-11.5,3.6-20.6,9.5-27.1c6.4-7.1,14.8-10.7,25.2-10.7c8.7,0,15.8,1.9,21.1,5.6c5.3,3.7,8.3,8.8,8.8,15.4l0,0c0,0.2,0,0.5,0,0.7
		c0,3.8,3.1,6.9,6.9,6.9s6.9-3.1,6.9-6.9c0-0.2,0-0.5,0-0.7l0,0c-1-9.9-5.5-17.7-13.6-23.6s-18.2-8.8-30.4-8.8
		c-14.5,0-26.2,4.8-35.1,14.3c-8.4,8.9-12.8,20.6-13.3,35l0,0l0,0c0,1-0.1,2-0.1,3l0.1,28.1h-0.1c0,15.9,4.5,28.6,13.4,38.1
		s20.6,14.3,35.1,14.3c12.2,0,22.3-2.9,30.4-8.8c7.4-5.4,11.8-12.5,13.3-21.3l0.3-31.4c9.1-2.2,21.5-7.2,29.3-19
		C196.7,3989.7,196,3986.3,193.4,3984.6z"/>
	<path class="st2" d="M289.7,3663.1h76.7c3.4,0,6.2-2.8,6.2-6.2c0-3.4-2.8-6.2-6.2-6.2h-76.7c-3.4,0-6.2,2.8-6.2,6.2
		C283.5,3660.3,286.3,3663.1,289.7,3663.1z"/>
	<path class="st2" d="M-121.2,3663.1h76.7c3.4,0,6.2-2.8,6.2-6.2c0-3.4-2.8-6.2-6.2-6.2h-76.7c-3.4,0-6.2,2.8-6.2,6.2
		C-127.4,3660.3-124.7,3663.1-121.2,3663.1z"/>
	<circle class="st2" cx="370.3" cy="3719.1" r="6.2"/>
	<circle class="st2" cx="120.8" cy="3699.6" r="6.2"/>
	<path class="st2" d="M5.8,3719.2c0.1,0,0.2,0,0.3,0c23.3,0,33.7-14.6,41.6-28.2c2.6-4.5,12.2-19.5,25.8-23.4
		c16.8-4.9,34.7,2.9,41.7,18.2c1,2.2,3.2,3.5,5.4,3.6c0.1,0,0.2,0,0.3,0c0.1,0,0.2,0,0.4,0c2.2-0.1,4.4-1.4,5.4-3.6
		c7-15.3,24.9-23.1,41.7-18.2c13.6,4,23.2,18.9,25.8,23.4c7.9,13.7,18.3,28.2,41.9,28.2l0,0c14.2,0,31-10.6,35.7-30.9
		c3.9-16.8-3.3-32-19-39.7c-3.1-1.5-6.8-0.3-8.3,2.8c-1.5,3.1-0.3,6.8,2.8,8.3c14.9,7.4,13.6,20.5,12.4,25.8
		c-2.4,10.4-11.6,21.4-23.7,21.4c-15.5,0-22.9-7.8-31.2-22.1c-4.1-7-15.5-24-33-29.1c-19.1-5.6-39.3,1.1-50.9,15.8
		c-11.6-14.7-31.8-21.4-50.9-15.8c-17.5,5.1-28.9,22.1-33,29.1c-8.3,14.3-15.7,22.1-30.9,22.1c-0.1,0-0.2,0-0.2,0
		c-13.2-0.1-21.6-9.3-24-18.4c-1.2-4.3-3.7-19,13.1-29c2.9-1.7,3.9-5.5,2.1-8.5c-1.8-2.9-5.5-3.9-8.5-2.1
		c-19.3,11.5-22.3,29.7-18.7,42.9C-25.7,3708.1-11.2,3719.1,5.8,3719.2z"/>
	<polygon class="st2" points="121,4303 121.1,4303 121.1,4303 	"/>
	<circle class="st2" cx="-130.9" cy="3719.1" r="6.2"/>
	<circle class="st2" cx="-148.3" cy="3657" r="6.2"/>
	<circle class="st2" cx="392.3" cy="3657" r="6.2"/>
	<circle class="st2" cx="425.5" cy="4054.3" r="6.2"/>
	<circle class="st2" cx="400.6" cy="4196.1" r="6.2"/>
	<circle class="st2" cx="360.8" cy="4213.8" r="6.2"/>
	<path class="st2" d="M-7.1,3680.2c0,9.2,7.5,16.7,16.7,16.7s16.7-7.5,16.7-16.7s-7.5-16.7-16.7-16.7
		C0.4,3663.4-7.1,3670.9-7.1,3680.2z M9.6,3675.8c2.4,0,4.4,2,4.4,4.4c0,2.4-2,4.4-4.4,4.4s-4.4-2-4.4-4.4
		C5.2,3677.8,7.2,3675.8,9.6,3675.8z"/>
	<path class="st2" d="M234.6,3696.9c9.2,0,16.7-7.5,16.7-16.7s-7.5-16.7-16.7-16.7s-16.7,7.5-16.7,16.7S225.4,3696.9,234.6,3696.9z
		 M234.6,3675.8c2.4,0,4.4,2,4.4,4.4c0,2.4-2,4.4-4.4,4.4s-4.4-2-4.4-4.4C230.2,3677.8,232.2,3675.8,234.6,3675.8z"/>
	<path class="st2" d="M137.7,3690.6c-3.2,1.2-4.8,4.7-3.6,7.9c1.2,3.2,4.7,4.8,7.9,3.7c1-0.4,25-8.4,43.4,20.2
		c1.2,1.8,3.2,2.8,5.2,2.8c1.1,0,2.3-0.3,3.3-1c2.9-1.8,3.7-5.7,1.9-8.5C176.6,3686,149.4,3686.3,137.7,3690.6z"/>
	<path class="st2" d="M104.3,3690.6c-0.9-0.3-9.1-3.2-20.3-1.5c-10.4,1.5-25.3,7.4-37.7,26.7c-1.8,2.9-1,6.7,1.9,8.5
		c1,0.7,2.2,1,3.3,1c2,0,4-1,5.2-2.8c18.3-28.6,42.3-20.6,43.4-20.2c3.2,1.2,6.7-0.5,7.9-3.7
		C109.2,3695.4,107.5,3691.8,104.3,3690.6z"/>
	<path class="st2" d="M388.8,3707.5l30.1-34.2v49.3c0,3.4,2.8,6.2,6.2,6.2s6.2-2.8,6.2-6.2V3657c0-2.6-1.6-4.9-4-5.8
		c-2.4-0.9-5.1-0.2-6.8,1.7l-40.9,46.5c-2.3,2.6-2,6.5,0.6,8.7C382.6,3710.4,386.5,3710.1,388.8,3707.5z"/>
	<path class="st2" d="M-182.2,3728.9c3.4,0,6.2-2.8,6.2-6.2v-49.3l30.1,34.2c2.3,2.6,6.2,2.8,8.7,0.6c2.6-2.3,2.8-6.2,0.6-8.7
		l-40.9-46.6c-1.7-1.9-4.4-2.6-6.8-1.7c-2.4,0.9-4,3.2-4,5.8v65.7C-188.3,3726.1-185.6,3728.9-182.2,3728.9z"/>
	<path class="st2" d="M254.4,3735c-2.9-0.2-5.6,1.8-6.3,4.6c-0.7,2.9,0.7,5.9,3.3,7.1c9.8,4.6,18.7,6.4,26.7,6.4
		c15.3,0,27.5-6.7,36-13.7c13.6-11.2,20.6-25.3,20.9-25.9c1.4-2.9,0.4-6.4-2.4-8c-6.3-3.7-17.2-6-33.8,4.1
		c-8.3,5.1-14.7,11.2-15.8,12.3C267.8,3735.3,255.1,3735,254.4,3735z M291.3,3731.1c0.1-0.1,0.2-0.2,0.3-0.3
		c4.7-4.7,18-15.6,28.4-16.1c-3,4.3-7.5,10.1-13.6,15.2c-9,7.4-18.6,11-28.8,10.8C281.8,3738.5,286.5,3735.3,291.3,3731.1z"/>
	<path class="st2" d="M-87.6,3705.5c-2.8,1.6-3.8,5.1-2.4,8c0.3,0.6,7.3,14.7,20.9,25.9c8.5,7,20.6,13.7,36,13.7
		c8.1,0,17-1.8,26.7-6.4c2.7-1.3,4-4.2,3.3-7.1c-0.7-2.9-3.3-4.8-6.3-4.7c-0.5,0-13.3,0.4-28.5-13c-1.1-1.1-7.5-7.2-15.8-12.3
		C-70.3,3699.6-81.3,3701.9-87.6,3705.5z M-46.2,3731.1c4.7,4.2,9.4,7.3,13.7,9.6c-21.6,0.2-35.9-16.3-42.4-26
		c10.4,0.5,23.7,11.4,28.4,16.1C-46.4,3730.9-46.3,3731-46.2,3731.1z"/>
	<path class="st2" d="M282.2,4214.9L282.2,4214.9l0.9,1.1L282.2,4214.9z"/>
	<path class="st2" d="M-169.4,3870.1c0,10.1,8.2,18.4,18.4,18.4c10.2,0,18.4-8.2,18.4-18.4c0-10.1-8.2-18.4-18.4-18.4
		C-161.2,3851.7-169.4,3860-169.4,3870.1z M-145,3870.1c0,3.3-2.7,6-6,6s-6-2.7-6-6c0-3.3,2.7-6,6-6S-145,3866.8-145,3870.1z"/>
	<path class="st2" d="M409.7,3870.1c0-10.1-8.2-18.4-18.4-18.4c-10.1,0-18.4,8.2-18.4,18.4c0,10.1,8.2,18.4,18.4,18.4
		S409.7,3880.3,409.7,3870.1z M385.3,3870.1c0-3.3,2.7-6,6-6s6,2.7,6,6c0,3.3-2.7,6-6,6C388,3876.2,385.3,3873.5,385.3,3870.1z"/>
	<path class="st2" d="M427.4,3915.9c-2.3-0.9-5-0.4-6.8,1.4c-8.1,8.3-21.4,8-21.6,8c-0.1,0-0.2,0-0.2,0c-3.3,0-6,2.6-6.2,5.9
		c-0.1,3.4,2.5,6.3,5.9,6.4c0.6,0,10.4,0.3,20.4-4.3v100.9c0,3.4,2.8,6.2,6.2,6.2s6.2-2.8,6.2-6.2v-112.6
		C431.2,3919.1,429.7,3916.8,427.4,3915.9z"/>
	<path class="st2" d="M-183.3,4040.4c3.4,0,6.2-2.8,6.2-6.2v-100.9c10,4.6,19.8,4.3,20.4,4.3c3.4-0.1,6.1-3,5.9-6.4
		c-0.1-3.4-3-6.1-6.4-5.9c-0.1,0-13.5,0.3-21.6-8c-1.8-1.8-4.4-2.3-6.8-1.4c-2.3,0.9-3.8,3.2-3.8,5.7v112.7
		C-189.5,4037.7-186.7,4040.4-183.3,4040.4z"/>
	<path class="st2" d="M432.3,4143.3c0-3.4-2.8-6.2-6.2-6.2h-40c-3.4,0-6.2,2.8-6.2,6.2c0,3.4,2.8,6.2,6.2,6.2h40
		C429.5,4149.5,432.3,4146.8,432.3,4143.3z"/>
	<path class="st2" d="M390.8,4167c3.4,0,6.2-2.8,6.2-6.2c0-3.4-2.8-6.2-6.2-6.2h-15.4c-3.4,0-6.2,2.8-6.2,6.2c0,3.4,2.8,6.2,6.2,6.2
		H390.8z"/>
	<path class="st2" d="M405.8,4178.4c0-3.4-2.8-6.2-6.2-6.2h-38.2c-3.4,0-6.2,2.8-6.2,6.2s2.8,6.2,6.2,6.2h38.2
		C403,4184.6,405.8,4181.9,405.8,4178.4z"/>
	<path class="st2" d="M381.6,4196.1c0-3.4-2.8-6.2-6.2-6.2h-29.9c-3.4,0-6.2,2.8-6.2,6.2c0,3.4,2.8,6.2,6.2,6.2h29.9
		C378.8,4202.3,381.6,4199.5,381.6,4196.1z"/>
	<path class="st2" d="M326.1,4207.6c-3.4,0-6.2,2.8-6.2,6.2c0,3.4,2.8,6.2,6.2,6.2h17c3.4,0,6.2-2.8,6.2-6.2c0-3.4-2.8-6.2-6.2-6.2
		H326.1z"/>
	<path class="st2" d="M426.1,4101.8h-22.3c-3.4,0-6.2,2.8-6.2,6.2s2.8,6.2,6.2,6.2h22.3c3.4,0,6.2-2.8,6.2-6.2
		S429.5,4101.8,426.1,4101.8z"/>
	<path class="st2" d="M426.1,4119.5H395c-3.4,0-6.2,2.8-6.2,6.2c0,3.4,2.8,6.2,6.2,6.2h31.1c3.4,0,6.2-2.8,6.2-6.2
		C432.3,4122.3,429.5,4119.5,426.1,4119.5z"/>
	<path class="st2" d="M426.1,4066.5h-9.9c-3.4,0-6.2,2.8-6.2,6.2c0,3.4,2.8,6.2,6.2,6.2h9.9c3.4,0,6.2-2.8,6.2-6.2
		C432.3,4069.3,429.5,4066.5,426.1,4066.5z"/>
	<path class="st2" d="M426.1,4084.2h-15.2c-3.4,0-6.2,2.8-6.2,6.2c0,3.4,2.8,6.2,6.2,6.2h15.2c3.4,0,6.2-2.8,6.2-6.2
		C432.3,4087,429.5,4084.2,426.1,4084.2z"/>
	<circle class="st2" cx="-158.5" cy="4196.3" r="6.2"/>
	<circle class="st2" cx="-118.7" cy="4214" r="6.2"/>
	<path class="st2" d="M-184.1,4149.7h40c3.4,0,6.2-2.8,6.2-6.2s-2.8-6.2-6.2-6.2h-40c-3.4,0-6.2,2.8-6.2,6.2
		C-190.3,4147-187.5,4149.7-184.1,4149.7z"/>
	<path class="st2" d="M-133.4,4154.9h-15.4c-3.4,0-6.2,2.8-6.2,6.2s2.8,6.2,6.2,6.2h15.4c3.4,0,6.2-2.8,6.2-6.2
		C-127.2,4157.7-130,4154.9-133.4,4154.9z"/>
	<path class="st2" d="M-119.4,4172.5h-38.2c-3.4,0-6.2,2.8-6.2,6.2c0,3.4,2.8,6.2,6.2,6.2h38.2c3.4,0,6.2-2.8,6.2-6.2
		C-113.2,4175.2-116,4172.5-119.4,4172.5z"/>
	<path class="st2" d="M-103.5,4190.1h-29.9c-3.4,0-6.2,2.8-6.2,6.2c0,3.4,2.8,6.2,6.2,6.2h29.9c3.4,0,6.2-2.8,6.2-6.2
		C-97.3,4192.9-100.1,4190.1-103.5,4190.1z"/>
	<path class="st2" d="M-107.3,4214c0,3.4,2.8,6.2,6.2,6.2h17c3.4,0,6.2-2.8,6.2-6.2s-2.8-6.2-6.2-6.2h-17
		C-104.5,4207.8-107.3,4210.6-107.3,4214z"/>
	<path class="st2" d="M-184.1,4114.4h22.3c3.4,0,6.2-2.8,6.2-6.2c0-3.4-2.8-6.2-6.2-6.2h-22.3c-3.4,0-6.2,2.8-6.2,6.2
		C-190.3,4111.6-187.5,4114.4-184.1,4114.4z"/>
	<path class="st2" d="M-184.1,4132.1h31.1c3.4,0,6.2-2.8,6.2-6.2s-2.8-6.2-6.2-6.2h-31.1c-3.4,0-6.2,2.8-6.2,6.2
		S-187.5,4132.1-184.1,4132.1z"/>
	<path class="st2" d="M-184.1,4079.1h9.9c3.4,0,6.2-2.8,6.2-6.2c0-3.4-2.8-6.2-6.2-6.2h-9.9c-3.4,0-6.2,2.8-6.2,6.2
		C-190.3,4076.3-187.5,4079.1-184.1,4079.1z"/>
	<path class="st2" d="M-184.1,4096.7h15.2c3.4,0,6.2-2.8,6.2-6.2c0-3.4-2.8-6.2-6.2-6.2h-15.2c-3.4,0-6.2,2.8-6.2,6.2
		C-190.3,4094-187.5,4096.7-184.1,4096.7z"/>
	<path class="st2" d="M121,4336.1L121,4336.1c0.1-0.1,0-0.1,0-0.2V4336.1z"/>
	<path class="st2" d="M402.2,3771.7C402.3,3771.7,402.3,3771.7,402.2,3771.7c2.8,0,5.3-1.9,6-4.7c2.2-8.8,1.3-16.3-2.9-22.5
		c-6.7-10-19-11.9-20.4-12.1c-3.2-0.4-6.2,1.6-6.9,4.8c-2.3,10.5-1,18.9,4,25.1C389.4,3771.3,401,3771.6,402.2,3771.7z
		 M395.2,3751.5c1.2,1.9,1.9,4.1,1.9,6.7c-1.8-0.7-3.8-1.8-5.2-3.6c-1.6-2-2.4-4.6-2.4-7.9C391.5,3747.7,393.7,3749.3,395.2,3751.5z
		"/>
	<path class="st2" d="M362,3682.3c-6.7-10-19-11.9-20.4-12.1c-3.2-0.4-6.2,1.6-6.9,4.8c-2.3,10.5-1,18.9,4,25.1
		c7.2,9,18.8,9.3,20.1,9.3l0,0c2.8,0,5.3-1.9,6-4.7C367.1,3696.1,366.2,3688.5,362,3682.3z M348.5,3692.4c-1.6-2-2.4-4.6-2.4-7.9
		c2.1,1,4.3,2.6,5.7,4.8c1.2,1.9,1.9,4.1,1.9,6.7C351.9,3695.3,349.9,3694.2,348.5,3692.4z"/>
	<path class="st2" d="M-141.7,3732.4c-1.4,0.2-13.6,2.1-20.4,12.1c-4.1,6.2-5.1,13.7-2.9,22.5c0.7,2.7,3.2,4.7,6,4.7l0,0
		c1.3,0,12.9-0.3,20.1-9.3c5-6.2,6.3-14.7,4-25.1C-135.5,3734.1-138.5,3732-141.7,3732.4z M-148.4,3754.6c-1.4,1.8-3.4,2.9-5.3,3.6
		c0-2.6,0.7-4.9,1.9-6.7c1.5-2.2,3.7-3.8,5.7-4.8C-146.1,3750-146.9,3752.6-148.4,3754.6z"/>
	<path class="st2" d="M-99.3,3670.2c-1.4,0.2-13.6,2.1-20.4,12.1c-4.1,6.2-5.1,13.7-2.9,22.5c0.7,2.7,3.2,4.7,6,4.7l0,0
		c1.3,0,12.9-0.3,20.1-9.3c5-6.2,6.3-14.7,4-25.1C-93.2,3671.9-96.1,3669.8-99.3,3670.2z M-106.1,3692.4c-1.4,1.8-3.4,2.9-5.3,3.6
		c0-2.6,0.7-4.9,1.9-6.7c1.5-2.2,3.7-3.8,5.7-4.8C-103.8,3687.8-104.5,3690.4-106.1,3692.4z"/>
	<path class="st2" d="M316.1,3961c0.4,3.2,3,5.5,6.1,5.5c0.2,0,0.5,0,0.7,0c3.4-0.4,5.8-3.5,5.4-6.9c-6.2-54-43.1-92.2-44.7-93.8
		c-2.4-2.4-6.3-2.5-8.7-0.1c-2.4,2.4-2.5,6.3-0.1,8.7C275.2,3874.8,310.4,3911.3,316.1,3961z"/>
	<path class="st2" d="M-79.9,3966.4c0.2,0,0.5,0,0.7,0c3.1,0,5.8-2.3,6.1-5.5c5.7-49.7,40.9-86.2,41.2-86.5c2.4-2.4,2.3-6.4-0.1-8.7
		c-2.4-2.4-6.4-2.4-8.7,0.1c-1.6,1.6-38.4,39.8-44.7,93.8C-85.7,3963-83.3,3966-79.9,3966.4z"/>
</g>
<g id="FRONT_2_">
	<path class="st2" d="M192.9,3984.2c-2.5-1.7-5.9-1-7.6,1.5c-9.9,14.9-30.9,15.7-32,15.7c-0.2,0-0.3,0-0.5,0
		c-25.9,0-35.8,22.1-36.2,23c-1.2,2.8,0.1,6,2.8,7.2c0.7,0.3,1.5,0.5,2.2,0.5c2.1,0,4.1-1.2,5-3.3c0.1-0.2,6.9-15.4,24.4-16.4v28.3
		c-0.7,6.1-3.6,10.9-8.7,14.5c-5.3,3.7-12.4,5.6-21.1,5.6c-10.4,0-18.9-3.6-25.2-10.7c-6.4-7.1-9.6-17.2-9.6-30.2l0.1-31.2
		c0.5-11.5,3.6-20.6,9.5-27.1c6.4-7.1,14.8-10.7,25.2-10.7c8.7,0,15.8,1.9,21.1,5.6c5.3,3.7,8.3,8.8,8.8,15.4l0,0c0,0.2,0,0.5,0,0.7
		c0,3.8,3.1,6.9,6.9,6.9s6.9-3.1,6.9-6.9c0-0.2,0-0.5,0-0.7l0,0c-1-9.9-5.5-17.7-13.6-23.6c-8.1-5.9-18.2-8.8-30.4-8.8
		c-14.5,0-26.2,4.8-35.1,14.3c-8.4,8.9-12.8,20.6-13.3,35l0,0l0,0c0,1-0.1,2-0.1,3l0.1,28.1h-0.1c0,15.9,4.5,28.6,13.4,38.1
		s20.6,14.3,35.1,14.3c12.2,0,22.3-2.9,30.4-8.8c7.4-5.4,11.8-12.5,13.3-21.3l0.3-31.4c9.1-2.2,21.5-7.2,29.3-19
		C196.2,3989.3,195.5,3985.9,192.9,3984.2z"/>
	<path class="st2" d="M289.2,3662.7h76.7c3.4,0,6.2-2.8,6.2-6.2c0-3.4-2.8-6.2-6.2-6.2h-76.7c-3.4,0-6.2,2.8-6.2,6.2
		C283,3659.9,285.8,3662.7,289.2,3662.7z"/>
	<path class="st2" d="M-121.7,3662.7H-45c3.4,0,6.2-2.8,6.2-6.2c0-3.4-2.8-6.2-6.2-6.2h-76.7c-3.4,0-6.2,2.8-6.2,6.2
		C-127.9,3659.9-125.2,3662.7-121.7,3662.7z"/>
	<circle class="st2" cx="369.8" cy="3718.7" r="6.2"/>
	<circle class="st2" cx="120.3" cy="3699.2" r="6.2"/>
	<path class="st2" d="M5.3,3718.8c0.1,0,0.2,0,0.3,0c23.3,0,33.7-14.6,41.6-28.2c2.6-4.5,12.2-19.5,25.8-23.4
		c16.8-4.9,34.7,2.9,41.7,18.2c1,2.2,3.2,3.5,5.4,3.6c0.1,0,0.2,0,0.3,0c0.1,0,0.2,0,0.4,0c2.2-0.1,4.4-1.4,5.4-3.6
		c7-15.3,24.9-23.1,41.7-18.2c13.6,4,23.2,18.9,25.8,23.4c7.9,13.7,18.3,28.2,41.9,28.2l0,0c14.2,0,31-10.6,35.7-30.9
		c3.9-16.8-3.3-32-19-39.7c-3.1-1.5-6.8-0.3-8.3,2.8c-1.5,3.1-0.3,6.8,2.8,8.3c14.9,7.4,13.6,20.5,12.4,25.8
		c-2.4,10.4-11.6,21.4-23.7,21.4c-15.5,0-22.9-7.8-31.2-22.1c-4.1-7-15.5-24-33-29.1c-19.1-5.6-39.3,1.1-50.9,15.8
		c-11.6-14.7-31.8-21.4-50.9-15.8c-17.5,5.1-28.9,22.1-33,29.1c-8.3,14.3-15.7,22.1-30.9,22.1c-0.1,0-0.2,0-0.2,0
		c-13.2-0.1-21.6-9.3-24-18.4c-1.2-4.3-3.7-19,13.1-29c2.9-1.7,3.9-5.5,2.1-8.5c-1.8-2.9-5.5-3.9-8.5-2.1
		c-19.3,11.5-22.3,29.7-18.7,42.9C-26.2,3707.7-11.7,3718.7,5.3,3718.8z"/>
	<polygon class="st2" points="120.5,4302.6 120.6,4302.6 120.6,4302.6 	"/>
	<circle class="st2" cx="-131.4" cy="3718.7" r="6.2"/>
	<circle class="st2" cx="-148.8" cy="3656.6" r="6.2"/>
	<circle class="st2" cx="391.8" cy="3656.6" r="6.2"/>
	<circle class="st2" cx="425" cy="4053.9" r="6.2"/>
	<circle class="st2" cx="400.1" cy="4195.7" r="6.2"/>
	<circle class="st2" cx="360.3" cy="4213.4" r="6.2"/>
	<path class="st2" d="M-7.6,3679.8c0,9.2,7.5,16.7,16.7,16.7s16.7-7.5,16.7-16.7c0-9.2-7.5-16.7-16.7-16.7
		C-0.1,3663-7.6,3670.5-7.6,3679.8z M9.1,3675.4c2.4,0,4.4,2,4.4,4.4c0,2.4-2,4.4-4.4,4.4s-4.4-2-4.4-4.4
		C4.7,3677.4,6.7,3675.4,9.1,3675.4z"/>
	<path class="st2" d="M234.1,3696.5c9.2,0,16.7-7.5,16.7-16.7c0-9.2-7.5-16.7-16.7-16.7s-16.7,7.5-16.7,16.7
		C217.4,3689,224.9,3696.5,234.1,3696.5z M234.1,3675.4c2.4,0,4.4,2,4.4,4.4c0,2.4-2,4.4-4.4,4.4s-4.4-2-4.4-4.4
		C229.7,3677.4,231.7,3675.4,234.1,3675.4z"/>
	<path class="st2" d="M137.2,3690.2c-3.2,1.2-4.8,4.7-3.6,7.9c1.2,3.2,4.7,4.8,7.9,3.7c1-0.4,25-8.4,43.4,20.2
		c1.2,1.8,3.2,2.8,5.2,2.8c1.1,0,2.3-0.3,3.3-1c2.9-1.8,3.7-5.7,1.9-8.5C176.1,3685.6,148.9,3685.9,137.2,3690.2z"/>
	<path class="st2" d="M103.8,3690.2c-0.9-0.3-9.1-3.2-20.3-1.5c-10.4,1.5-25.3,7.4-37.7,26.7c-1.8,2.9-1,6.7,1.9,8.5
		c1,0.7,2.2,1,3.3,1c2,0,4-1,5.2-2.8c18.3-28.6,42.3-20.6,43.4-20.2c3.2,1.2,6.7-0.5,7.9-3.7C108.7,3695,107,3691.4,103.8,3690.2z"
		/>
	<path class="st2" d="M388.3,3707.1l30.1-34.2v49.3c0,3.4,2.8,6.2,6.2,6.2s6.2-2.8,6.2-6.2v-65.6c0-2.6-1.6-4.9-4-5.8
		c-2.4-0.9-5.1-0.2-6.8,1.7l-40.9,46.5c-2.3,2.6-2,6.5,0.6,8.7C382.1,3710,386,3709.7,388.3,3707.1z"/>
	<path class="st2" d="M-182.7,3728.5c3.4,0,6.2-2.8,6.2-6.2V3673l30.1,34.2c2.3,2.6,6.2,2.8,8.7,0.6c2.6-2.3,2.8-6.2,0.6-8.7
		l-40.9-46.6c-1.7-1.9-4.4-2.6-6.8-1.7c-2.4,0.9-4,3.2-4,5.8v65.7C-188.8,3725.7-186.1,3728.5-182.7,3728.5z"/>
	<path class="st2" d="M253.9,3734.6c-2.9-0.2-5.6,1.8-6.3,4.6c-0.7,2.9,0.7,5.9,3.3,7.1c9.8,4.6,18.7,6.4,26.7,6.4
		c15.3,0,27.5-6.7,36-13.7c13.6-11.2,20.6-25.3,20.9-25.9c1.4-2.9,0.4-6.4-2.4-8c-6.3-3.7-17.2-6-33.8,4.1
		c-8.3,5.1-14.7,11.2-15.8,12.3C267.3,3734.9,254.6,3734.6,253.9,3734.6z M290.8,3730.7c0.1-0.1,0.2-0.2,0.3-0.3
		c4.7-4.7,18-15.6,28.4-16.1c-3,4.3-7.5,10.1-13.6,15.2c-9,7.4-18.6,11-28.8,10.8C281.3,3738.1,286,3734.9,290.8,3730.7z"/>
	<path class="st2" d="M-88.1,3705.1c-2.8,1.6-3.8,5.1-2.4,8c0.3,0.6,7.3,14.7,20.9,25.9c8.5,7,20.6,13.7,36,13.7
		c8.1,0,17-1.8,26.7-6.4c2.7-1.3,4-4.2,3.3-7.1s-3.3-4.8-6.3-4.7c-0.5,0-13.3,0.4-28.5-13c-1.1-1.1-7.5-7.2-15.8-12.3
		C-70.8,3699.2-81.8,3701.5-88.1,3705.1z M-46.7,3730.7c4.7,4.2,9.4,7.3,13.7,9.6c-21.6,0.2-35.9-16.3-42.4-26
		c10.4,0.5,23.7,11.4,28.4,16.1C-46.9,3730.5-46.8,3730.6-46.7,3730.7z"/>
	<path class="st2" d="M-171.7,4223.2c-0.2,0.1-0.4,0.1-0.6,0.2c15.4,0.8,30.9,1,46.4,1c-3.7-0.8-7.3-1.3-10.9-1.7
		c-5.2-0.6-22.7-3.2-31.9-14c-11.6-13.1-11.8-32.6-0.7-45.2c2.3-2.6,2-6.5-0.5-8.7c-2.6-2.3-6.5-2-8.7,0.5
		c-15.1,17.2-15,43.7,0.2,61.7C-176.4,4219.4-174.1,4221.4-171.7,4223.2z"/>
	<path class="st2" d="M430.8,3858.7c0.1-0.3,0.1-0.7,0.1-1.1v-112.7c0-3.4-2.8-6.2-6.2-6.2s-6.2,2.8-6.2,6.2v94.7
		c-10.5-9.1-25.7-10.1-32-10.1c-12.2,0.1-19.8-1.8-25.4-11.4c-4.7-8.1-2-16.5,2.7-21.3c5.9-6,14.3-6.8,22.5-2.3
		c3,1.6,6.8,0.6,8.4-2.4c1.6-3,0.6-6.8-2.4-8.4c-13-7.2-27.6-5.4-37.3,4.4c-9.6,9.8-11.4,24.3-4.6,36.1
		c8.9,15.3,22.4,17.5,35.7,17.5h0.5c4,0,16.9,0.6,24.3,7.6c9.6,9.1,12.1,23.4,5.8,34c0,0-0.1,0.1-0.1,0.2
		c-0.5,0.9-12.4,21.1-45.6,10.5c-10-21.2-21.6-39.2-32.4-53.6l-4.9,3.7l4.9-3.8l-2-2.6c-21.3-35.7,3.3-73.7,16.1-89.8l7.2-8.2
		c2.2-2.6,2-6.5-0.6-8.7c-2.5-2.1-6.1-2-8.4,0.3c-0.2,0.2-1.3,1.3-3,3.2c-11.1,11.3-54.5,51.3-96.6,30.4l-1.2-0.8l-0.6-0.4
		c-37.7-20.3-74.9-32-110.4-35c-4.6-10.5-10.7-18.5-18.4-18.5c-7.8,0-13.9,8.1-18.6,18.8c-49.7,2.2-111.5,34.3-114.1,35.6
		c-42.3,21.3-85.9-18.9-97-30.2c-1.7-1.9-2.9-3-3-3.2c-2.3-2.3-5.9-2.4-8.4-0.3c-2.6,2.2-2.8,6.1-0.6,8.7l7.7,8.7
		c4.5,5.6,10.2,13.7,15,23.4c12,24.3,12.2,46.4,0.7,65.8c-14.3,17.8-25.9,36.5-34.8,56.2c-33.5,10.9-45.5-9.5-46-10.4
		c0-0.1-0.1-0.1-0.1-0.2c-6.3-10.6-3.8-24.9,5.8-34c7.4-7,20.3-7.6,24.3-7.6h0.1c13.4,0,27.2-2.1,36.1-17.5
		c6.8-11.8,5-26.4-4.6-36.1c-9.7-9.9-24.3-11.6-37.3-4.4c-3,1.6-4.1,5.4-2.4,8.4c1.6,3,5.4,4.1,8.4,2.4c8.3-4.5,16.7-3.7,22.5,2.3
		c4.7,4.8,7.3,13.2,2.7,21.3c-5.5,9.5-13,11.4-25,11.4h-0.4c-5.5,0-18.3,0.8-28.5,7.4v-90.3c0-3.4-2.8-6.2-6.2-6.2
		c-3.4,0-6.2,2.8-6.2,6.2v104c-6.8,12.2-7.2,27.1-0.2,39.1c0.7,1.3,5,8.5,14.6,13.9c5.5,3.1,13.4,6,23.9,6c3.8,0,8-0.4,12.5-1.3
		c-10.8,29-16.2,60.2-16.4,94.2c0,0.1,0,0.1,0,0.2v0.9c0,61.4,21.6,121.7,60.8,169.8c16.1,19.8,35,37.3,55.8,51.9
		c0.7-0.5,1.7-0.8,2.8-0.7c6.5,0.3,13,0.6,19.5,0.9c-3-1.8-6-3.7-9-5.6c16-0.5,31.3,1.6,45.9,6.1c10.5,0,21,0,31.5,0
		c-24.1-12.9-55.2-21.8-93-17.3v0.1c-6.2-4.8-12.2-9.8-17.9-15.1c10-2,26.9-4,48-1.6c34.7,3.9,64.3,17.7,88.2,34
		c7,0,14.1,0.1,21.1,0.2c-41.5-32.8-81-43.8-108.8-46.8c-29.6-3.2-51.3,1.6-59.2,3.8c-5.2-5.4-10.5-11.3-15.5-17.4
		c-0.3-0.4-0.6-0.7-0.9-1.1c30.1-8.3,63-3.9,86.1,1.6c27.9,6.7,48.3,16.4,48.5,16.5l0.1-0.2c22.1,8.8,46.2,13.7,71.4,13.7
		c25.1,0,49.1-4.8,71.1-13.6c0,0,0.2-0.1,0.6-0.3c2.6-1.1,5.3-2.2,7.8-3.4c8.5-3.5,22.8-8.7,40-12.8c23.3-5.6,56.3-10,86.4-1.6
		c-5.2,6.4-10.6,12.5-16.4,18.4c-8.4-2.3-29.8-6.7-58.7-3.6c-28,3-67.8,14.1-109.6,47.4c7,0.1,13.9,0.2,20.9,0.2
		c34.4-23.8,66.4-32.4,89.6-35c20.7-2.3,37.4-0.4,47.4,1.5c-5.7,5.3-11.6,10.3-17.8,15c-38.9-4.5-70.5,5.1-94.8,18.5
		c3.8,0,7.5-0.1,11.3-0.1c6.9-0.1,13.8-0.2,20.6-0.4c15-4.9,30.8-7.1,47.2-6.7c-1.9,1.3-3.9,2.5-5.9,3.7c5.5-0.1,11.1,0.1,16.4,1.4
		c0.9,0.2,1.9,0.5,3,0.9c2.3-1.6,4.5-3.2,6.8-4.9c33.3-24.9,61-57.4,80-93.9c20-38.4,30.1-79.9,30.1-123.1v-0.8c0-0.1,0-0.1,0-0.2
		v-0.3c-0.2-35.1-8-66.7-19.1-93.9c4.1,0.8,8,1.1,11.5,1.1c25.9,0,37.3-17.8,38.5-19.9C433.1,3880.4,434,3869,430.8,3858.7z
		 M243.1,3774.5l1.3,0.9l0.7,0.4c9.9,5,20.5,7.5,31.5,7.5c11.6,0,23.7-2.8,35.9-8.4l-32,36.5c-2.9-1.4-6.1-2.1-9.6-2.1
		c-4.5,0-8.6,1.3-12.1,3.5c-31.5-23-68.8-38.3-109.4-43.3c-1-7.3-3-17.7-6-27.9C175.5,3745.2,209,3756.2,243.1,3774.5z M281.3,3832
		c0,4.5-3,8.4-7.1,9.8c-1,0.3-2.1,0.5-3.2,0.5h-1c-4.6-0.4-8.3-3.9-9.1-8.3c-0.1-0.6-0.2-1.3-0.2-1.9c0-0.7,0.1-1.3,0.2-2
		c0.9-4.5,4.7-8,9.4-8.3h1.3c4.6,0.3,8.5,3.6,9.5,8c0.1,0.6,0.2,1.1,0.2,1.7C281.2,3831.6,281.3,3831.8,281.3,3832z M103.7,3768.4
		c2.7-18.7,11.9-43.7,16.7-45.7c5.5,2.1,14,28,16.6,45.6c0.5,3.5,0.8,6.7,0.8,9.3c0,1.1-0.1,2.1-0.3,3.1
		c-1.5,8.1-8.6,14.3-17.2,14.3c-8.6,0-15.7-6.2-17.2-14.3c-0.2-1-0.3-2.1-0.3-3.1C102.9,3774.9,103.2,3771.8,103.7,3768.4z
		 M114.5,3806.9v4.3c-44.6,1.4-85.4,18.1-117.4,44.9l-8.8-10.1c2.3-3.5,3.7-7.8,3.7-12.3c0-3.8-1-7.4-2.6-10.5
		c29.3-21.5,64-36,101.7-41.1C92.8,3794.5,102.3,3804.5,114.5,3806.9z M-38.2,3783.3c11,0,21.6-2.5,31.6-7.5
		c0.6-0.3,57.7-30,103.9-34c-3,10.1-5,20.6-6,27.8c-41.1,5.1-79,21-110.7,44.6c-3.4-2-7.2-3.1-11.4-3.1c-3.5,0-6.8,0.8-9.7,2.2
		l-33.6-38.3C-61.8,3780.5-49.8,3783.3-38.2,3783.3z M-30.8,3856.4c3.5,0,6.8-0.8,9.7-2.2l8.9,10.2c-35.3,33.7-57.8,80.6-59.6,132.7
		l-5-0.3c-2.4-11.7-11.5-20.9-23.2-23.3c6.1-46.3,26.5-88.1,56.5-120.9C-39.8,3855-35.5,3856.4-30.8,3856.4z M-41.1,3833.8
		c0-0.5,0-0.9,0.1-1.4c0-0.3,0.1-0.5,0.1-0.8c0.9-4.4,4.7-7.8,9.3-8.1h0.5c0.1,0,0.1,0,0.2,0c4.7,0,8.7,3.2,9.9,7.6
		c0.2,0.9,0.4,1.8,0.4,2.7c0,0.7-0.1,1.4-0.2,2.1c-0.9,4.4-4.7,7.8-9.3,8.1h-0.8c-1.3,0-2.6-0.3-3.7-0.7
		C-38.3,3841.9-41.1,3838.1-41.1,3833.8z M-88.1,3845.2l0.5-0.7c10.4-17.2,13-36.8,7.8-57.4l30,34.3c-2.3,3.5-3.7,7.8-3.7,12.3
		c0,3.3,0.7,6.4,2,9.3c-32.7,35.2-54.7,80.4-61,130.4c-8.9,1.4-20.7,5.2-29.6,10.9C-138.6,3931.5-120.9,3885.8-88.1,3845.2z
		 M-142.6,4002.6c0.2-5.8,16.3-13.8,29-16.4c2.8-0.6,5.4-0.9,7.6-0.9c1.7,0,3.2,0.2,4.8,0.7c7.3,2.1,12.7,8.8,12.7,16.8
		s-5.4,14.7-12.7,16.8c-1.5,0.4-3.1,0.7-4.8,0.7c-2.3,0-4.9-0.3-7.6-0.9c-12.7-2.7-28.8-10.7-29-16.5
		C-142.6,4002.7-142.6,4002.7-142.6,4002.6z M-93.5,4154c-28.7-39.4-45.3-84.9-48.5-133c8.9,5.8,20.8,9.6,29.6,11
		c5.3,42.4,22.1,82.6,48.7,116.2C-75.6,4149.3-85.5,4151.5-93.5,4154z M-48.3,4147.6c-28.2-32.9-46.1-73.1-51.7-115.7
		c11.5-2.4,20.6-11.3,23.1-22.7l5.1,0.3c1.7,58,29.2,109.6,71.3,143.8C-18.6,4149.3-34.5,4147.7-48.3,4147.6z M-59,4017.4
		l165.9,165.9C18.5,4176.6-52.3,4105.8-59,4017.4z M-55.3,4003.7l70.8-70.8c2.4-2.4,2.4-6.3,0-8.7c-2.4-2.4-6.3-2.4-8.7,0
		l-65.7,65.7c3.5-45.5,23.9-86.4,55-116.2l31,35.4c1.2,1.4,2.9,2.1,4.7,2.1c1.4,0,2.9-0.5,4.1-1.5c2.6-2.3,2.8-6.2,0.6-8.7
		l-31.1-35.5c28-23.4,63.1-38.5,101.6-41.4l-52.8,52.3c-2.4,2.4-2.4,6.3,0,8.7c1.2,1.2,2.8,1.8,4.4,1.8c1.6,0,3.1-0.6,4.4-1.8
		l58-57.4l56.3,56.3c2.4,2.4,6.3,2.4,8.7,0c2.4-2.4,2.4-6.3,0-8.7l-51.2-51.2c31.7,2.4,61.9,13,88.2,31.1c2.8,1.9,6.7,1.2,8.6-1.6
		c1.9-2.8,1.2-6.7-1.6-8.6c-30.4-20.9-65.8-32.5-102.8-33.6v-4.4c11.6-2.8,20.9-12.7,22.7-24.9c37.2,4.9,71.6,19.1,100.7,40.1
		c-1.5,3-2.3,6.3-2.3,9.9c0,4.5,1.3,8.6,3.6,12.2l-49.8,56.8c-2.3,2.6-2,6.5,0.6,8.7c1.2,1,2.6,1.5,4.1,1.5c1.7,0,3.4-0.7,4.7-2.1
		l49.7-56.7c3,1.5,6.3,2.3,9.9,2.3c4.6,0,8.8-1.4,12.3-3.7c31,33.2,51.9,75.8,58.1,123c-10.7,3-19,11.8-21.2,22.8l-7.1,0.3
		c-1.5-45.7-19.2-89.3-50.1-123.2c-2.3-2.5-6.2-2.7-8.7-0.4s-2.7,6.2-0.4,8.7c27.2,29.8,43.4,67.6,46.5,107.6l-66.5-66.3
		c-2.4-2.4-6.3-2.4-8.7,0c-2.4,2.4-2.4,6.3,0,8.7l71.4,71.4l-176,176L-55.3,4003.7z M195.6,4167.5c-4,1.6-6.8,2.9-8.2,3.5
		c-16.6,6.6-34.4,10.9-53,12.3l165.9-165.9C295.3,4084.2,253.7,4140.8,195.6,4167.5z M242,4153.1c42-34.2,69.4-85.7,71.1-143.6
		l7.2-0.3c2.4,10.7,10.5,19.3,21.1,22.2c-5.6,42.8-23.4,83.2-51.8,116.2C275.9,4147.6,260,4149.2,242,4153.1z M355.2,4121.1
		c-6,11.5-12.9,22.5-20.5,33.1c-7.9-2.5-17.8-4.8-29.7-5.9c26.5-33.6,43.3-73.7,48.7-116c8.6-1,20.5-4.7,29.6-10.6
		C380.9,4056.4,371.5,4089.8,355.2,4121.1z M383.9,4002.8c-0.2,5.6-15.5,14.7-29,16.9c-1.9,0.3-3.8,0.5-5.6,0.5
		c-2.4,0-4.7-0.5-6.8-1.4c-6.3-2.7-10.7-8.9-10.7-16.1s4.4-13.4,10.7-16.1c2.1-0.9,4.4-1.4,6.8-1.4c1.8,0,3.7,0.2,5.6,0.5
		c13.5,2.2,28.7,11.3,29,16.8V4002.8z M383,3983.7c-9-5.8-20.8-9.5-29.3-10.5c-6.4-50.6-28.9-96.3-62.2-131.6
		c1.4-2.9,2.2-6.2,2.2-9.6c0-4.6-1.4-8.9-3.7-12.4l28.4-32.4c-5.4,20.6-2.8,40.1,7.6,57.4l2.6,3.5
		C351.3,3878.4,377.9,3925.3,383,3983.7z"/>
	<path class="st2" d="M396,4218.7c6-0.2,12.1-0.5,18-1.1c1.8-0.2,3,0.4,3.8,1.5c0.7-0.7,1.3-1.3,1.9-2.1c15.3-18,15.4-44.5,0.2-61.7
		c-2.3-2.6-6.2-2.8-8.7-0.5c-2.6,2.3-2.8,6.2-0.5,8.7c11.1,12.6,10.9,32.1-0.4,45.5C406.5,4213.6,401.2,4216.6,396,4218.7z"/>
	<path class="st2" d="M126.1,4226.3c-0.9-2.2-3.2-3.8-5.7-3.8c-2.5,0-4.7,1.5-5.6,3.7C118.6,4226.2,122.4,4226.2,126.1,4226.3z"/>
	<polygon class="st2" points="281.7,4214.5 281.7,4214.5 282.6,4215.6 	"/>
	<path class="st2" d="M-169.9,3869.7c0,10.1,8.2,18.4,18.4,18.4c10.2,0,18.4-8.2,18.4-18.4c0-10.1-8.2-18.4-18.4-18.4
		C-161.7,3851.3-169.9,3859.6-169.9,3869.7z M-145.5,3869.7c0,3.3-2.7,6-6,6s-6-2.7-6-6s2.7-6,6-6S-145.5,3866.4-145.5,3869.7z"/>
	<path class="st2" d="M409.2,3869.7c0-10.1-8.2-18.4-18.4-18.4c-10.1,0-18.4,8.2-18.4,18.4c0,10.1,8.2,18.4,18.4,18.4
		S409.2,3879.9,409.2,3869.7z M384.8,3869.7c0-3.3,2.7-6,6-6s6,2.7,6,6s-2.7,6-6,6C387.5,3875.8,384.8,3873.1,384.8,3869.7z"/>
	<path class="st2" d="M426.9,3915.5c-2.3-0.9-5-0.4-6.8,1.4c-8.1,8.3-21.4,8-21.6,8c-0.1,0-0.2,0-0.2,0c-3.3,0-6,2.6-6.2,5.9
		c-0.1,3.4,2.5,6.3,5.9,6.4c0.6,0,10.4,0.3,20.4-4.3v100.9c0,3.4,2.8,6.2,6.2,6.2s6.2-2.8,6.2-6.2v-112.6
		C430.7,3918.7,429.2,3916.4,426.9,3915.5z"/>
	<path class="st2" d="M-183.8,4040c3.4,0,6.2-2.8,6.2-6.2v-100.9c10,4.6,19.8,4.3,20.4,4.3c3.4-0.1,6.1-3,5.9-6.4
		c-0.1-3.4-3-6.1-6.4-5.9c-0.1,0-13.5,0.3-21.6-8c-1.8-1.8-4.4-2.3-6.8-1.4c-2.3,0.9-3.8,3.2-3.8,5.7v112.7
		C-190,4037.3-187.2,4040-183.8,4040z"/>
	<path class="st2" d="M431.8,4142.9c0-3.4-2.8-6.2-6.2-6.2h-40c-3.4,0-6.2,2.8-6.2,6.2s2.8,6.2,6.2,6.2h40
		C429,4149.1,431.8,4146.4,431.8,4142.9z"/>
	<path class="st2" d="M390.3,4166.6c3.4,0,6.2-2.8,6.2-6.2s-2.8-6.2-6.2-6.2h-15.4c-3.4,0-6.2,2.8-6.2,6.2s2.8,6.2,6.2,6.2H390.3z"
		/>
	<path class="st2" d="M405.3,4178c0-3.4-2.8-6.2-6.2-6.2h-38.2c-3.4,0-6.2,2.8-6.2,6.2s2.8,6.2,6.2,6.2h38.2
		C402.5,4184.2,405.3,4181.5,405.3,4178z"/>
	<path class="st2" d="M381.1,4195.7c0-3.4-2.8-6.2-6.2-6.2H345c-3.4,0-6.2,2.8-6.2,6.2c0,3.4,2.8,6.2,6.2,6.2h29.9
		C378.3,4201.9,381.1,4199.1,381.1,4195.7z"/>
	<path class="st2" d="M325.6,4207.2c-3.4,0-6.2,2.8-6.2,6.2s2.8,6.2,6.2,6.2h17c3.4,0,6.2-2.8,6.2-6.2s-2.8-6.2-6.2-6.2H325.6z"/>
	<path class="st2" d="M425.6,4101.4h-22.3c-3.4,0-6.2,2.8-6.2,6.2c0,3.4,2.8,6.2,6.2,6.2h22.3c3.4,0,6.2-2.8,6.2-6.2
		C431.8,4104.2,429,4101.4,425.6,4101.4z"/>
	<path class="st2" d="M425.6,4119.1h-31.1c-3.4,0-6.2,2.8-6.2,6.2c0,3.4,2.8,6.2,6.2,6.2h31.1c3.4,0,6.2-2.8,6.2-6.2
		C431.8,4121.9,429,4119.1,425.6,4119.1z"/>
	<path class="st2" d="M425.6,4066.1h-9.9c-3.4,0-6.2,2.8-6.2,6.2c0,3.4,2.8,6.2,6.2,6.2h9.9c3.4,0,6.2-2.8,6.2-6.2
		C431.8,4068.9,429,4066.1,425.6,4066.1z"/>
	<path class="st2" d="M425.6,4083.8h-15.2c-3.4,0-6.2,2.8-6.2,6.2c0,3.4,2.8,6.2,6.2,6.2h15.2c3.4,0,6.2-2.8,6.2-6.2
		C431.8,4086.6,429,4083.8,425.6,4083.8z"/>
	<circle class="st2" cx="-184" cy="4054.2" r="6.2"/>
	<circle class="st2" cx="-159" cy="4195.9" r="6.2"/>
	<circle class="st2" cx="-119.2" cy="4213.6" r="6.2"/>
	<path class="st2" d="M-184.6,4149.3h40c3.4,0,6.2-2.8,6.2-6.2c0-3.4-2.8-6.2-6.2-6.2h-40c-3.4,0-6.2,2.8-6.2,6.2
		C-190.8,4146.6-188,4149.3-184.6,4149.3z"/>
	<path class="st2" d="M-133.9,4154.5h-15.4c-3.4,0-6.2,2.8-6.2,6.2c0,3.4,2.8,6.2,6.2,6.2h15.4c3.4,0,6.2-2.8,6.2-6.2
		C-127.7,4157.3-130.5,4154.5-133.9,4154.5z"/>
	<path class="st2" d="M-119.9,4172.1h-38.2c-3.4,0-6.2,2.8-6.2,6.2c0,3.4,2.8,6.2,6.2,6.2h38.2c3.4,0,6.2-2.8,6.2-6.2
		C-113.7,4174.8-116.5,4172.1-119.9,4172.1z"/>
	<path class="st2" d="M-104,4189.7h-29.9c-3.4,0-6.2,2.8-6.2,6.2s2.8,6.2,6.2,6.2h29.9c3.4,0,6.2-2.8,6.2-6.2
		S-100.6,4189.7-104,4189.7z"/>
	<path class="st2" d="M-107.8,4213.6c0,3.4,2.8,6.2,6.2,6.2h17c3.4,0,6.2-2.8,6.2-6.2c0-3.4-2.8-6.2-6.2-6.2h-17
		C-105,4207.4-107.8,4210.2-107.8,4213.6z"/>
	<path class="st2" d="M-184.6,4114h22.3c3.4,0,6.2-2.8,6.2-6.2c0-3.4-2.8-6.2-6.2-6.2h-22.3c-3.4,0-6.2,2.8-6.2,6.2
		S-188,4114-184.6,4114z"/>
	<path class="st2" d="M-184.6,4131.7h31.1c3.4,0,6.2-2.8,6.2-6.2s-2.8-6.2-6.2-6.2h-31.1c-3.4,0-6.2,2.8-6.2,6.2
		S-188,4131.7-184.6,4131.7z"/>
	<path class="st2" d="M-184.6,4078.7h9.9c3.4,0,6.2-2.8,6.2-6.2c0-3.4-2.8-6.2-6.2-6.2h-9.9c-3.4,0-6.2,2.8-6.2,6.2
		C-190.8,4075.9-188,4078.7-184.6,4078.7z"/>
	<path class="st2" d="M-184.6,4096.3h15.2c3.4,0,6.2-2.8,6.2-6.2c0-3.4-2.8-6.2-6.2-6.2h-15.2c-3.4,0-6.2,2.8-6.2,6.2
		C-190.8,4093.6-188,4096.3-184.6,4096.3z"/>
	<path class="st2" d="M120.5,4335.7L120.5,4335.7c0.1-0.1,0-0.1,0-0.2V4335.7z"/>
	<path class="st2" d="M401.7,3771.3C401.8,3771.3,401.8,3771.3,401.7,3771.3c2.8,0,5.3-1.9,6-4.7c2.2-8.8,1.3-16.3-2.9-22.5
		c-6.7-10-19-11.9-20.4-12.1c-3.2-0.4-6.2,1.6-6.9,4.8c-2.3,10.5-1,18.9,4,25.1C388.9,3770.9,400.5,3771.2,401.7,3771.3z
		 M394.7,3751.1c1.2,1.9,1.9,4.1,1.9,6.7c-1.8-0.7-3.8-1.8-5.2-3.6c-1.6-2-2.4-4.6-2.4-7.9C391,3747.3,393.2,3748.9,394.7,3751.1z"
		/>
	<path class="st2" d="M361.5,3681.9c-6.7-10-19-11.9-20.4-12.1c-3.2-0.4-6.2,1.6-6.9,4.8c-2.3,10.5-1,18.9,4,25.1
		c7.2,9,18.8,9.3,20.1,9.3l0,0c2.8,0,5.3-1.9,6-4.7C366.6,3695.7,365.7,3688.1,361.5,3681.9z M348,3692c-1.6-2-2.4-4.6-2.4-7.9
		c2.1,1,4.3,2.6,5.7,4.8c1.2,1.9,1.9,4.1,1.9,6.7C351.4,3694.9,349.4,3693.8,348,3692z"/>
	<path class="st2" d="M-142.2,3732c-1.4,0.2-13.6,2.1-20.4,12.1c-4.1,6.2-5.1,13.7-2.9,22.5c0.7,2.7,3.2,4.7,6,4.7l0,0
		c1.3,0,12.9-0.3,20.1-9.3c5-6.2,6.3-14.7,4-25.1C-136,3733.7-139,3731.6-142.2,3732z M-148.9,3754.2c-1.4,1.8-3.4,2.9-5.3,3.6
		c0-2.6,0.7-4.9,1.9-6.7c1.5-2.2,3.7-3.8,5.7-4.8C-146.6,3749.6-147.4,3752.2-148.9,3754.2z"/>
	<path class="st2" d="M-99.8,3669.8c-1.4,0.2-13.6,2.1-20.4,12.1c-4.1,6.2-5.1,13.7-2.9,22.5c0.7,2.7,3.2,4.7,6,4.7l0,0
		c1.3,0,12.9-0.3,20.1-9.3c5-6.2,6.3-14.7,4-25.1C-93.7,3671.5-96.6,3669.4-99.8,3669.8z M-106.6,3692c-1.4,1.8-3.4,2.9-5.3,3.6
		c0-2.6,0.7-4.9,1.9-6.7c1.5-2.2,3.7-3.8,5.7-4.8C-104.3,3687.4-105,3690-106.6,3692z"/>
	<path class="st2" d="M315.6,3960.6c0.4,3.2,3,5.5,6.1,5.5c0.2,0,0.5,0,0.7,0c3.4-0.4,5.8-3.5,5.4-6.9c-6.2-54-43.1-92.2-44.7-93.8
		c-2.4-2.4-6.3-2.5-8.7-0.1c-2.4,2.4-2.5,6.3-0.1,8.7C274.7,3874.4,309.9,3910.9,315.6,3960.6z"/>
	<path class="st2" d="M-80.4,3966c0.2,0,0.5,0,0.7,0c3.1,0,5.8-2.3,6.1-5.5c5.7-49.7,40.9-86.2,41.2-86.5c2.4-2.4,2.3-6.4-0.1-8.7
		c-2.4-2.4-6.4-2.4-8.7,0.1c-1.6,1.6-38.4,39.8-44.7,93.8C-86.2,3962.6-83.8,3965.6-80.4,3966z"/>
</g>
</svg>
